<svg xmlns="http://www.w3.org/2000/svg" xmlns:xlink="http://www.w3.org/1999/xlink" width="500" zoomAndPan="magnify" viewBox="0 0 375 374.999991" height="500" preserveAspectRatio="xMidYMid meet" version="1.0"><defs><clipPath id="331e5cb92b"><path d="M 16.070312 16.070312 L 358.929688 16.070312 L 358.929688 358.929688 L 16.070312 358.929688 Z M 16.070312 16.070312 " clip-rule="nonzero"/></clipPath><clipPath id="a06ef7ddc0"><path d="M 187.5 16.070312 C 92.820312 16.070312 16.070312 92.820312 16.070312 187.5 C 16.070312 282.179688 92.820312 358.929688 187.5 358.929688 C 282.179688 358.929688 358.929688 282.179688 358.929688 187.5 C 358.929688 92.820312 282.179688 16.070312 187.5 16.070312 Z M 187.5 16.070312 " clip-rule="nonzero"/></clipPath><clipPath id="ea438fafe4"><path d="M 64 78.703125 L 171.5 78.703125 L 171.5 296.886719 L 64 296.886719 Z M 64 78.703125 " clip-rule="nonzero"/></clipPath><clipPath id="60ae9cf662"><path d="M 172 78.113281 L 305 78.113281 L 305 296.296875 L 172 296.296875 Z M 172 78.113281 " clip-rule="nonzero"/></clipPath><clipPath id="0d157925a6"><path d="M 276 215.136719 L 374.789062 215.136719 L 374.789062 314 L 276 314 Z M 276 215.136719 " clip-rule="nonzero"/></clipPath><clipPath id="d179cb5f6e"><path d="M 232 296.886719 L 371 296.886719 L 371 370.386719 L 232 370.386719 Z M 232 296.886719 " clip-rule="nonzero"/></clipPath></defs><g clip-path="url(#331e5cb92b)"><g clip-path="url(#a06ef7ddc0)"><path fill="#ffffff" d="M 16.070312 16.070312 L 358.929688 16.070312 L 358.929688 358.929688 L 16.070312 358.929688 Z M 16.070312 16.070312 " fill-opacity="1" fill-rule="nonzero"/></g></g><g clip-path="url(#ea438fafe4)"><path fill="#231815" d="M 154.519531 296.929688 L 125.902344 296.929688 C 121.546875 296.929688 117.460938 295.289062 114.371094 292.304688 C 111.1875 289.296875 109.363281 285.046875 109.363281 280.617188 L 109.691406 173.398438 C 106.277344 176.105469 101.917969 177.417969 97.652344 177 C 97.578125 176.992188 97.5 176.984375 97.421875 176.976562 C 92.964844 176.433594 89.019531 174.273438 86.308594 170.882812 L 68.046875 148.40625 C 62.46875 141.507812 63.410156 131.605469 70.171875 125.84375 L 120.78125 82.730469 C 123.773438 80.144531 127.613281 78.722656 131.605469 78.722656 C 134.046875 78.722656 136.425781 79.238281 138.671875 80.253906 C 138.769531 80.300781 138.867188 80.34375 138.964844 80.390625 L 162.378906 91.914062 C 167.949219 94.660156 171.542969 100.386719 171.542969 106.507812 L 171.027344 280.648438 C 170.949219 289.652344 163.542969 296.929688 154.519531 296.929688 Z M 154.519531 296.929688 " fill-opacity="1" fill-rule="nonzero"/></g><path fill="#231815" d="M 98.625 136.375 C 95.5 136.375 92.421875 134.9375 90.4375 132.226562 C 87.132812 127.710938 88.113281 121.371094 92.628906 118.0625 L 124.683594 94.597656 C 129.199219 91.296875 135.542969 92.277344 138.847656 96.792969 C 142.152344 101.308594 141.171875 107.648438 136.65625 110.957031 L 104.601562 134.417969 C 102.796875 135.738281 100.699219 136.375 98.625 136.375 Z M 98.625 136.375 " fill-opacity="1" fill-rule="nonzero"/><path fill="#ff9441" d="M 134.492188 89.484375 C 132.085938 88.398438 129.324219 88.722656 127.386719 90.417969 L 76.742188 133.554688 C 74.199219 135.722656 73.863281 139.484375 75.914062 142.019531 L 94.222656 164.550781 C 95.328125 165.9375 96.933594 166.707031 98.644531 166.917969 C 100.359375 167.085938 102.128906 166.492188 103.476562 165.394531 L 119.894531 151.328125 L 119.5 280.617188 C 119.5 282.222656 120.171875 283.867188 121.367188 284.972656 C 122.574219 286.160156 124.199219 286.792969 125.902344 286.792969 L 154.523438 286.792969 C 158.023438 286.792969 160.867188 284.019531 160.894531 280.617188 L 161.410156 106.507812 C 161.410156 104.222656 160.035156 102.054688 157.90625 101.003906 Z M 134.492188 89.484375 " fill-opacity="1" fill-rule="nonzero"/><path fill="#ffffff" d="M 98.617188 130.949219 C 97.167969 130.949219 95.738281 130.28125 94.820312 129.019531 C 93.285156 126.921875 93.738281 123.980469 95.835938 122.445312 L 127.890625 98.980469 C 129.988281 97.445312 132.933594 97.902344 134.46875 99.996094 C 136.003906 102.09375 135.546875 105.039062 133.449219 106.574219 L 101.394531 130.039062 C 100.558594 130.652344 99.582031 130.949219 98.617188 130.949219 Z M 98.617188 130.949219 " fill-opacity="1" fill-rule="nonzero"/><g clip-path="url(#60ae9cf662)"><path fill="#231815" d="M 201.773438 296.273438 L 201.753906 296.273438 C 195.375 296.273438 189.789062 292.722656 187.144531 286.996094 L 176.605469 264.859375 C 174.054688 259.476562 174.671875 253.160156 178.21875 248.359375 C 184.179688 240.3125 190.417969 232.527344 196.816406 224.601562 L 198.449219 222.578125 C 206.425781 212.710938 214.65625 201.007812 223.621094 186.792969 C 238.746094 162.476562 243.472656 145.277344 244.101562 138.171875 C 243.101562 138.035156 242.113281 137.964844 241.1875 137.964844 C 238.105469 137.964844 236.722656 138.722656 236.285156 139.035156 C 234.144531 140.898438 231.625 146.285156 230.726562 154.28125 C 230.289062 158.457031 228.214844 162.3125 224.886719 165.050781 C 224.792969 165.128906 224.695312 165.207031 224.59375 165.285156 C 221.722656 167.480469 218.0625 168.640625 214.007812 168.640625 C 213.613281 168.640625 213.222656 168.617188 212.832031 168.570312 L 186.40625 165.527344 C 182.105469 165.066406 178.253906 162.949219 175.546875 159.5625 C 172.847656 156.179688 171.640625 151.957031 172.140625 147.667969 C 174.808594 123.394531 184.375 104.078125 199.8125 91.804688 C 211.019531 82.859375 225.183594 78.128906 240.761719 78.128906 C 244.804688 78.128906 248.976562 78.445312 253.171875 79.078125 C 273.941406 82.035156 289.878906 93.332031 297.96875 110.867188 C 298.003906 110.9375 298.035156 111.007812 298.066406 111.078125 C 312.613281 144.546875 292.722656 188.179688 273.46875 218.890625 C 269.757812 224.871094 266.023438 230.605469 262.210938 236.164062 L 287.828125 236.09375 C 296.71875 236.09375 303.972656 243.3125 304.023438 252.191406 L 304.144531 279.765625 C 304.171875 284.023438 302.519531 288.082031 299.484375 291.167969 C 296.605469 294.15625 292.597656 295.898438 288.265625 296.011719 C 288.183594 296.011719 288.105469 296.015625 288.027344 296.015625 L 201.804688 296.273438 C 201.792969 296.273438 201.785156 296.273438 201.773438 296.273438 Z M 201.773438 296.273438 " fill-opacity="1" fill-rule="nonzero"/></g><path fill="#231815" d="M 198.777344 136.617188 C 197.585938 136.617188 196.375 136.40625 195.191406 135.96875 C 189.867188 133.996094 187.164062 128.054688 189.136719 122.730469 C 189.492188 121.777344 198.050781 99.269531 219.402344 93.027344 C 224.851562 91.429688 230.558594 94.554688 232.152344 100.003906 C 233.746094 105.453125 230.621094 111.160156 225.175781 112.753906 C 213.828125 116.070312 208.441406 129.792969 208.386719 129.933594 C 206.851562 134.070312 202.945312 136.617188 198.777344 136.617188 Z M 198.777344 136.617188 " fill-opacity="1" fill-rule="nonzero"/><path fill="#231815" d="M 236.066406 110.078125 C 231.308594 110.078125 227.039062 106.753906 226.019531 101.914062 C 224.851562 96.355469 228.410156 90.910156 233.964844 89.742188 L 240.265625 88.414062 C 245.820312 87.246094 251.269531 90.804688 252.4375 96.359375 C 253.605469 101.914062 250.046875 107.363281 244.496094 108.53125 L 238.191406 109.855469 C 237.480469 110.003906 236.769531 110.078125 236.066406 110.078125 Z M 236.066406 110.078125 " fill-opacity="1" fill-rule="nonzero"/><path fill="#ff9441" d="M 287.855469 246.371094 L 242.058594 246.492188 C 249.816406 236.316406 257.265625 225.515625 264.761719 213.429688 C 279.445312 190.003906 302.078125 146.085938 288.636719 115.171875 C 283.960938 105.035156 273.765625 92.390625 251.644531 89.238281 C 233.988281 86.589844 218.191406 90.28125 206.207031 99.847656 C 192.980469 110.367188 184.710938 127.289062 182.351562 148.835938 C 181.960938 152.058594 184.308594 154.980469 187.53125 155.308594 L 214.007812 158.359375 C 215.511719 158.359375 217.117188 158.058594 218.351562 157.117188 C 219.546875 156.132812 220.339844 154.769531 220.511719 153.132812 C 221.652344 142.945312 225.085938 134.933594 229.851562 131.011719 C 233.605469 128.058594 239.347656 127.066406 245.992188 128.058594 C 248.472656 128.441406 252.714844 129.425781 253.589844 131.402344 C 256.863281 139.007812 250.546875 162.957031 232.3125 192.273438 C 223.238281 206.65625 214.769531 218.730469 206.445312 229.027344 L 204.8125 231.054688 C 198.589844 238.765625 192.386719 246.492188 186.484375 254.457031 C 185.210938 256.1875 184.96875 258.515625 185.882812 260.441406 L 196.453125 282.640625 C 197.414062 284.769531 199.460938 285.996094 201.75 285.996094 L 201.769531 285.996094 L 287.992188 285.734375 C 289.558594 285.695312 291.066406 285.089844 292.148438 283.964844 C 293.230469 282.863281 293.875 281.398438 293.863281 279.8125 L 293.746094 252.253906 C 293.726562 249 291.109375 246.371094 287.855469 246.371094 Z M 287.855469 246.371094 " fill-opacity="1" fill-rule="nonzero"/><path fill="#ffffff" d="M 198.773438 131.15625 C 198.210938 131.15625 197.640625 131.058594 197.085938 130.851562 C 194.574219 129.921875 193.292969 127.128906 194.222656 124.617188 C 194.539062 123.765625 202.160156 103.722656 220.925781 98.234375 C 223.5 97.480469 226.191406 98.957031 226.945312 101.527344 C 227.695312 104.097656 226.222656 106.792969 223.652344 107.546875 C 209.511719 111.679688 203.382812 127.828125 203.320312 127.992188 C 202.597656 129.945312 200.742188 131.15625 198.773438 131.15625 Z M 198.773438 131.15625 " fill-opacity="1" fill-rule="nonzero"/><path fill="#ffffff" d="M 236.074219 104.652344 C 233.828125 104.652344 231.8125 103.082031 231.328125 100.796875 C 230.777344 98.175781 232.457031 95.601562 235.078125 95.050781 L 241.382812 93.726562 C 244.003906 93.179688 246.574219 94.855469 247.128906 97.476562 C 247.679688 100.097656 246 102.671875 243.378906 103.222656 L 237.074219 104.546875 C 236.738281 104.617188 236.402344 104.652344 236.074219 104.652344 Z M 236.074219 104.652344 " fill-opacity="1" fill-rule="nonzero"/><g clip-path="url(#0d157925a6)"><path fill="#e80c66" d="M 372.851562 266.304688 L 330.96875 311.890625 C 329.03125 314.003906 325.738281 314.136719 323.621094 312.195312 L 278.035156 270.316406 C 275.921875 268.375 275.789062 265.082031 277.730469 262.96875 L 319.613281 217.382812 C 321.550781 215.265625 324.84375 215.136719 326.957031 217.078125 L 372.546875 258.957031 C 374.660156 260.898438 374.789062 264.1875 372.851562 266.304688 Z M 372.851562 266.304688 " fill-opacity="1" fill-rule="nonzero"/></g><path fill="#ffffff" d="M 320.070312 259.808594 C 320.070312 264.515625 316.253906 268.308594 311.566406 268.308594 C 306.878906 268.308594 303.0625 264.496094 303.0625 259.808594 C 303.0625 255.121094 306.878906 251.304688 311.566406 251.304688 C 316.253906 251.304688 320.070312 255.097656 320.070312 259.808594 Z M 339.015625 250.824219 C 334.304688 250.824219 330.511719 254.640625 330.511719 259.328125 C 330.511719 264.015625 334.328125 267.832031 339.015625 267.832031 C 343.703125 267.832031 347.515625 264.015625 347.515625 259.328125 C 347.515625 254.640625 343.722656 250.824219 339.015625 250.824219 Z M 339.015625 250.824219 " fill-opacity="1" fill-rule="nonzero"/><path fill="#e8ed24" d="M 354.710938 269.660156 C 354.710938 272.582031 352.355469 274.9375 349.4375 274.9375 C 346.515625 274.9375 344.160156 272.582031 344.160156 269.660156 C 344.160156 266.738281 346.515625 264.386719 349.4375 264.386719 C 352.335938 264.363281 354.710938 266.738281 354.710938 269.660156 Z M 301.167969 264.84375 C 298.246094 264.84375 295.890625 267.199219 295.890625 270.121094 C 295.890625 273.039062 298.246094 275.394531 301.167969 275.394531 C 304.089844 275.394531 306.445312 273.039062 306.445312 270.121094 C 306.445312 267.199219 304.089844 264.84375 301.167969 264.84375 Z M 301.167969 264.84375 " fill-opacity="1" fill-rule="nonzero"/><path fill="#000000" d="M 316.753906 259.808594 C 316.753906 262.664062 314.421875 264.996094 311.566406 264.996094 C 308.710938 264.996094 306.378906 262.664062 306.378906 259.808594 C 306.378906 256.953125 308.710938 254.617188 311.566406 254.617188 C 314.421875 254.617188 316.753906 256.929688 316.753906 259.808594 Z M 339.015625 254.140625 C 336.160156 254.140625 333.824219 256.472656 333.824219 259.328125 C 333.824219 262.183594 336.160156 264.515625 339.015625 264.515625 C 341.871094 264.515625 344.203125 262.183594 344.203125 259.328125 C 344.203125 256.472656 341.871094 254.140625 339.015625 254.140625 Z M 339.015625 254.140625 " fill-opacity="1" fill-rule="nonzero"/><path fill="#000000" d="M 325.5625 272.734375 C 325.367188 272.734375 325.171875 272.734375 324.976562 272.714844 C 319.4375 272.429688 315.839844 268.046875 315.6875 267.875 C 314.96875 266.980469 315.097656 265.648438 315.992188 264.929688 C 316.886719 264.210938 318.214844 264.34375 318.9375 265.234375 C 319 265.300781 321.574219 268.375 325.214844 268.550781 C 327.613281 268.660156 330.03125 267.503906 332.453125 265.082031 C 333.28125 264.253906 334.589844 264.253906 335.417969 265.082031 C 336.246094 265.910156 336.246094 267.21875 335.417969 268.046875 C 332.320312 271.164062 329.007812 272.734375 325.5625 272.734375 Z M 325.5625 272.734375 " fill-opacity="1" fill-rule="nonzero"/><g clip-path="url(#d179cb5f6e)"><path fill="#3128e8" d="M 254.070312 370.386719 C 238.753906 370.386719 228.429688 354.628906 234.640625 340.632812 C 246.039062 314.855469 271.84375 296.886719 301.839844 296.886719 C 331.839844 296.886719 357.644531 314.855469 369.070312 340.632812 C 375.28125 354.628906 364.957031 370.386719 349.640625 370.386719 Z M 254.070312 370.386719 " fill-opacity="1" fill-rule="nonzero"/></g><path fill="#ffffff" d="M 300.738281 326.253906 C 300.738281 332.796875 295.4375 338.09375 288.898438 338.09375 C 282.355469 338.09375 277.058594 332.796875 277.058594 326.253906 C 277.058594 319.714844 282.355469 314.414062 288.898438 314.414062 C 295.4375 314.414062 300.738281 319.714844 300.738281 326.253906 Z M 314.8125 314.414062 C 308.273438 314.414062 302.972656 319.714844 302.972656 326.253906 C 302.972656 332.796875 308.273438 338.09375 314.8125 338.09375 C 321.355469 338.09375 326.652344 332.796875 326.652344 326.253906 C 326.652344 319.714844 321.355469 314.414062 314.8125 314.414062 Z M 314.8125 314.414062 " fill-opacity="1" fill-rule="nonzero"/><path fill="#000000" d="M 301.648438 353.332031 C 295.878906 353.332031 291.214844 348.640625 291.214844 342.898438 C 291.214844 337.128906 295.90625 332.464844 301.648438 332.464844 C 307.417969 332.464844 312.082031 337.15625 312.082031 342.898438 C 312.082031 348.640625 307.417969 353.332031 301.648438 353.332031 Z M 301.648438 338.152344 C 299.027344 338.152344 296.902344 340.277344 296.902344 342.898438 C 296.902344 345.519531 299.027344 347.644531 301.648438 347.644531 C 304.269531 347.644531 306.394531 345.519531 306.394531 342.898438 C 306.394531 340.277344 304.269531 338.152344 301.648438 338.152344 Z M 301.648438 338.152344 " fill-opacity="1" fill-rule="nonzero"/><path fill="#af3bf2" d="M 336.671875 340.632812 C 336.671875 344.691406 333.386719 348.003906 329.300781 348.003906 C 325.246094 348.003906 321.933594 344.71875 321.933594 340.632812 C 321.933594 336.550781 325.21875 333.265625 329.300781 333.265625 C 333.359375 333.265625 336.671875 336.578125 336.671875 340.632812 Z M 274.410156 333.265625 C 270.351562 333.265625 267.039062 336.550781 267.039062 340.632812 C 267.039062 344.71875 270.324219 348.003906 274.410156 348.003906 C 278.492188 348.003906 281.777344 344.71875 281.777344 340.632812 C 281.777344 336.550781 278.464844 333.265625 274.410156 333.265625 Z M 274.410156 333.265625 " fill-opacity="1" fill-rule="nonzero"/><path fill="#000000" d="M 296.101562 326.253906 C 296.101562 330.257812 292.871094 333.484375 288.871094 333.484375 C 284.867188 333.484375 281.640625 330.257812 281.640625 326.253906 C 281.640625 322.253906 284.867188 319.023438 288.871094 319.023438 C 292.871094 319.023438 296.101562 322.253906 296.101562 326.253906 Z M 314.8125 319.023438 C 310.8125 319.023438 307.582031 322.253906 307.582031 326.253906 C 307.582031 330.257812 310.8125 333.484375 314.8125 333.484375 C 318.816406 333.484375 322.042969 330.257812 322.042969 326.253906 C 322.042969 322.253906 318.816406 319.023438 314.8125 319.023438 Z M 314.8125 319.023438 " fill-opacity="1" fill-rule="nonzero"/></svg>