<svg xmlns="http://www.w3.org/2000/svg" xmlns:xlink="http://www.w3.org/1999/xlink" width="500" zoomAndPan="magnify" viewBox="0 0 375 374.999991" height="500" preserveAspectRatio="xMidYMid meet" version="1.0"><defs><clipPath id="1bca509d71"><path d="M 3 16.070312 L 345.863281 16.070312 L 345.863281 358.929688 L 3 358.929688 Z M 3 16.070312 " clip-rule="nonzero"/></clipPath><clipPath id="6a68626404"><path d="M 174.429688 16.070312 C 79.753906 16.070312 3 92.820312 3 187.5 C 3 282.179688 79.753906 358.929688 174.429688 358.929688 C 269.109375 358.929688 345.863281 282.179688 345.863281 187.5 C 345.863281 92.820312 269.109375 16.070312 174.429688 16.070312 Z M 174.429688 16.070312 " clip-rule="nonzero"/></clipPath><clipPath id="9d3ec5714c"><path d="M 252 188 L 369 188 L 369 313 L 252 313 Z M 252 188 " clip-rule="nonzero"/></clipPath><clipPath id="197bf22203"><path d="M 236.859375 208.246094 L 344.792969 171.550781 L 383.660156 285.875 L 275.726562 322.570312 Z M 236.859375 208.246094 " clip-rule="nonzero"/></clipPath><clipPath id="6116d5a539"><path d="M 236.859375 208.246094 L 344.792969 171.550781 L 383.660156 285.875 L 275.726562 322.570312 Z M 236.859375 208.246094 " clip-rule="nonzero"/></clipPath><clipPath id="230ec191db"><path d="M 283 223 L 333 223 L 333 256 L 283 256 Z M 283 223 " clip-rule="nonzero"/></clipPath><clipPath id="3e8dbbb83a"><path d="M 236.859375 208.246094 L 344.792969 171.550781 L 383.660156 285.875 L 275.726562 322.570312 Z M 236.859375 208.246094 " clip-rule="nonzero"/></clipPath><clipPath id="a2223e6d10"><path d="M 236.859375 208.246094 L 344.792969 171.550781 L 383.660156 285.875 L 275.726562 322.570312 Z M 236.859375 208.246094 " clip-rule="nonzero"/></clipPath><clipPath id="4819bcb224"><path d="M 279 237 L 346 237 L 346 270 L 279 270 Z M 279 237 " clip-rule="nonzero"/></clipPath><clipPath id="6af49e0c2a"><path d="M 236.859375 208.246094 L 344.792969 171.550781 L 383.660156 285.875 L 275.726562 322.570312 Z M 236.859375 208.246094 " clip-rule="nonzero"/></clipPath><clipPath id="5bf54463c8"><path d="M 236.859375 208.246094 L 344.792969 171.550781 L 383.660156 285.875 L 275.726562 322.570312 Z M 236.859375 208.246094 " clip-rule="nonzero"/></clipPath><clipPath id="de38d81fe8"><path d="M 289 243 L 337 243 L 337 267 L 289 267 Z M 289 243 " clip-rule="nonzero"/></clipPath><clipPath id="58da0444af"><path d="M 236.859375 208.246094 L 344.792969 171.550781 L 383.660156 285.875 L 275.726562 322.570312 Z M 236.859375 208.246094 " clip-rule="nonzero"/></clipPath><clipPath id="36fbd31669"><path d="M 236.859375 208.246094 L 344.792969 171.550781 L 383.660156 285.875 L 275.726562 322.570312 Z M 236.859375 208.246094 " clip-rule="nonzero"/></clipPath><clipPath id="6beb8f9c00"><path d="M 288 228 L 328 228 L 328 252 L 288 252 Z M 288 228 " clip-rule="nonzero"/></clipPath><clipPath id="da6868d448"><path d="M 236.859375 208.246094 L 344.792969 171.550781 L 383.660156 285.875 L 275.726562 322.570312 Z M 236.859375 208.246094 " clip-rule="nonzero"/></clipPath><clipPath id="cc24f5bcab"><path d="M 236.859375 208.246094 L 344.792969 171.550781 L 383.660156 285.875 L 275.726562 322.570312 Z M 236.859375 208.246094 " clip-rule="nonzero"/></clipPath><clipPath id="7777e3f9a4"><path d="M 214 285.609375 L 352 285.609375 L 352 359 L 214 359 Z M 214 285.609375 " clip-rule="nonzero"/></clipPath><clipPath id="0ed0285c05"><path d="M 101.140625 78.113281 L 247 78.113281 L 247 297 L 101.140625 297 Z M 101.140625 78.113281 " clip-rule="nonzero"/></clipPath></defs><g clip-path="url(#1bca509d71)"><g clip-path="url(#6a68626404)"><path fill="#ffffff" d="M 3 16.070312 L 345.863281 16.070312 L 345.863281 358.929688 L 3 358.929688 Z M 3 16.070312 " fill-opacity="1" fill-rule="nonzero"/></g></g><g clip-path="url(#9d3ec5714c)"><g clip-path="url(#197bf22203)"><g clip-path="url(#6116d5a539)"><path fill="#05a552" d="M 354.898438 250.144531 C 360.496094 253.027344 365.023438 258.007812 367.207031 264.433594 C 371.699219 277.640625 364.625 292 351.417969 296.492188 C 341.484375 299.867188 330.921875 296.714844 324.386719 289.332031 C 323.445312 298.890625 317.082031 307.511719 307.378906 310.808594 C 294.171875 315.300781 279.8125 308.226562 275.320312 295.019531 C 273.1875 288.746094 273.683594 282.203125 276.167969 276.597656 C 266.453125 275.761719 257.667969 269.34375 254.335938 259.539062 C 249.84375 246.332031 256.917969 231.96875 270.125 227.480469 C 272.15625 226.789062 274.199219 226.378906 276.21875 226.230469 C 275.523438 224.9375 274.894531 223.59375 274.410156 222.167969 C 269.921875 208.960938 276.996094 194.601562 290.203125 190.109375 C 303.410156 185.621094 317.773438 192.695312 322.261719 205.902344 C 322.804688 207.503906 323.179688 209.101562 323.386719 210.707031 C 325.464844 209.148438 327.804688 207.871094 330.421875 206.980469 C 343.628906 202.492188 357.992188 209.566406 362.480469 222.773438 C 365.882812 232.863281 362.546875 243.632812 354.898438 250.144531 Z M 354.898438 250.144531 " fill-opacity="1" fill-rule="nonzero"/></g></g></g><g clip-path="url(#230ec191db)"><g clip-path="url(#3e8dbbb83a)"><g clip-path="url(#a2223e6d10)"><path fill="#f5f5ef" d="M 306.898438 240.222656 C 309.007812 246.421875 305.679688 253.132812 299.507812 255.230469 C 293.335938 257.332031 286.597656 254.011719 284.5 247.839844 C 282.402344 241.667969 285.71875 234.929688 291.890625 232.832031 C 298.0625 230.734375 304.800781 234.050781 306.898438 240.222656 Z M 316.402344 224.5 C 310.203125 226.605469 306.910156 233.335938 309.007812 239.507812 C 311.105469 245.679688 317.84375 248.996094 324.015625 246.898438 C 330.1875 244.800781 333.507812 238.0625 331.410156 231.890625 C 329.3125 225.71875 322.574219 222.398438 316.402344 224.5 Z M 316.402344 224.5 " fill-opacity="1" fill-rule="nonzero"/></g></g></g><g clip-path="url(#4819bcb224)"><g clip-path="url(#6af49e0c2a)"><g clip-path="url(#5bf54463c8)"><path fill="#05a552" d="M 345.476562 242.265625 C 346.78125 246.101562 344.71875 250.289062 340.882812 251.59375 C 337.046875 252.894531 332.863281 250.835938 331.558594 247 C 330.253906 243.164062 332.316406 238.976562 336.152344 237.675781 C 339.988281 236.371094 344.171875 238.433594 345.476562 242.265625 Z M 284.246094 255.347656 C 280.410156 256.652344 278.347656 260.839844 279.652344 264.671875 C 280.957031 268.507812 285.144531 270.570312 288.976562 269.265625 C 292.8125 267.964844 294.875 263.777344 293.570312 259.941406 C 292.257812 256.082031 288.105469 254.035156 284.246094 255.347656 Z M 284.246094 255.347656 " fill-opacity="1" fill-rule="nonzero"/></g></g></g><g clip-path="url(#de38d81fe8)"><g clip-path="url(#58da0444af)"><g clip-path="url(#36fbd31669)"><path fill="#000000" d="M 317.089844 264.867188 C 306.730469 268.390625 296.640625 265.554688 291.371094 263.46875 C 289.898438 262.890625 289.195312 261.230469 289.769531 259.761719 C 290.347656 258.289062 292.003906 257.585938 293.476562 258.160156 C 302.550781 261.761719 319.519531 264.917969 331.421875 245.261719 C 332.234375 243.90625 333.988281 243.480469 335.34375 244.296875 C 336.695312 245.109375 337.125 246.863281 336.308594 248.21875 C 330.605469 257.695312 323.769531 262.59375 317.089844 264.867188 Z M 317.089844 264.867188 " fill-opacity="1" fill-rule="nonzero"/></g></g></g><g clip-path="url(#6beb8f9c00)"><g clip-path="url(#da6868d448)"><g clip-path="url(#cc24f5bcab)"><path fill="#000000" d="M 302.507812 241.71875 C 303.785156 245.476562 301.78125 249.585938 297.996094 250.871094 C 294.238281 252.148438 290.128906 250.148438 288.84375 246.363281 C 287.554688 242.578125 289.566406 238.496094 293.351562 237.207031 C 297.136719 235.921875 301.226562 237.957031 302.507812 241.71875 Z M 317.886719 228.867188 C 314.128906 230.144531 312.089844 234.238281 313.375 238.023438 C 314.664062 241.804688 318.746094 243.816406 322.53125 242.53125 C 326.289062 241.253906 328.328125 237.160156 327.042969 233.375 C 325.753906 229.59375 321.644531 227.589844 317.886719 228.867188 Z M 317.886719 228.867188 " fill-opacity="1" fill-rule="nonzero"/></g></g></g><g clip-path="url(#7777e3f9a4)"><path fill="#ff9441" d="M 235.441406 358.921875 C 220.164062 358.921875 209.867188 343.203125 216.0625 329.242188 C 227.429688 303.53125 253.171875 285.609375 283.097656 285.609375 C 313.023438 285.609375 338.761719 303.53125 350.160156 329.242188 C 356.355469 343.203125 346.058594 358.921875 330.777344 358.921875 Z M 235.441406 358.921875 " fill-opacity="1" fill-rule="nonzero"/></g><path fill="#ffffff" d="M 281.996094 314.902344 C 281.996094 321.425781 276.710938 326.710938 270.183594 326.710938 C 263.660156 326.710938 258.375 321.425781 258.375 314.902344 C 258.375 308.375 263.660156 303.089844 270.183594 303.089844 C 276.710938 303.089844 281.996094 308.375 281.996094 314.902344 Z M 296.035156 303.089844 C 289.511719 303.089844 284.226562 308.375 284.226562 314.902344 C 284.226562 321.425781 289.511719 326.710938 296.035156 326.710938 C 302.5625 326.710938 307.847656 321.425781 307.847656 314.902344 C 307.847656 308.375 302.5625 303.089844 296.035156 303.089844 Z M 296.035156 303.089844 " fill-opacity="1" fill-rule="nonzero"/><path fill="#000000" d="M 282.90625 341.90625 C 277.152344 341.90625 272.5 337.226562 272.5 331.5 C 272.5 325.746094 277.179688 321.09375 282.90625 321.09375 C 288.65625 321.09375 293.3125 325.773438 293.3125 331.5 C 293.3125 337.226562 288.65625 341.90625 282.90625 341.90625 Z M 282.90625 326.765625 C 280.289062 326.765625 278.167969 328.886719 278.167969 331.5 C 278.167969 334.117188 280.289062 336.238281 282.90625 336.238281 C 285.519531 336.238281 287.640625 334.117188 287.640625 331.5 C 287.640625 328.886719 285.519531 326.765625 282.90625 326.765625 Z M 282.90625 326.765625 " fill-opacity="1" fill-rule="nonzero"/><path fill="#ff9441" d="M 317.839844 329.242188 C 317.839844 333.289062 314.5625 336.59375 310.488281 336.59375 C 306.441406 336.59375 303.140625 333.316406 303.140625 329.242188 C 303.140625 325.167969 306.414062 321.894531 310.488281 321.894531 C 314.535156 321.894531 317.839844 325.195312 317.839844 329.242188 Z M 255.730469 321.894531 C 251.683594 321.894531 248.382812 325.167969 248.382812 329.242188 C 248.382812 333.316406 251.65625 336.59375 255.730469 336.59375 C 259.808594 336.59375 263.082031 333.316406 263.082031 329.242188 C 263.082031 325.167969 259.777344 321.894531 255.730469 321.894531 Z M 255.730469 321.894531 " fill-opacity="1" fill-rule="nonzero"/><path fill="#000000" d="M 277.371094 314.902344 C 277.371094 318.890625 274.148438 322.113281 270.15625 322.113281 C 266.167969 322.113281 262.945312 318.890625 262.945312 314.902344 C 262.945312 310.910156 266.167969 307.6875 270.15625 307.6875 C 274.148438 307.6875 277.371094 310.910156 277.371094 314.902344 Z M 296.035156 307.6875 C 292.042969 307.6875 288.824219 310.910156 288.824219 314.902344 C 288.824219 318.890625 292.042969 322.113281 296.035156 322.113281 C 300.027344 322.113281 303.25 318.890625 303.25 314.902344 C 303.25 310.910156 300.027344 307.6875 296.035156 307.6875 Z M 296.035156 307.6875 " fill-opacity="1" fill-rule="nonzero"/><g clip-path="url(#0ed0285c05)"><path fill="#231815" d="M 174.140625 296.742188 L 145.6875 296.742188 C 137.496094 296.742188 130.660156 290.886719 129.425781 282.820312 C 122.46875 236.152344 133.242188 188.042969 161.460938 139.542969 L 117.558594 139.542969 C 108.503906 139.542969 101.140625 132.175781 101.140625 123.121094 L 101.140625 94.8125 C 101.140625 85.730469 108.503906 78.339844 117.558594 78.339844 L 220.433594 78.25 C 227.101562 78.25 233.234375 82.429688 235.699219 88.648438 L 245.417969 112.609375 C 247.679688 118.257812 246.703125 124.601562 242.890625 129.210938 C 242.847656 129.261719 242.804688 129.3125 242.757812 129.363281 C 236.359375 136.804688 180.78125 203.789062 189.707031 275.042969 C 190.316406 276.785156 190.621094 278.574219 190.621094 280.382812 C 190.621094 289.40625 183.230469 296.742188 174.140625 296.742188 Z M 174.140625 296.742188 " fill-opacity="1" fill-rule="nonzero"/></g><path fill="#231815" d="M 123.023438 129.855469 C 117.257812 129.855469 112.582031 125.179688 112.582031 119.410156 L 112.582031 99.992188 C 112.582031 94.226562 117.257812 89.550781 123.023438 89.550781 L 173.894531 89.550781 C 179.664062 89.550781 184.339844 94.226562 184.339844 99.992188 C 184.339844 105.761719 179.664062 110.4375 173.894531 110.4375 L 133.46875 110.4375 L 133.46875 119.410156 C 133.46875 125.179688 128.792969 129.855469 123.023438 129.855469 Z M 123.023438 129.855469 " fill-opacity="1" fill-rule="nonzero"/><path fill="#2a4674" d="M 234.84375 122.550781 C 236.210938 120.898438 236.554688 118.574219 235.742188 116.535156 L 225.992188 92.496094 C 225.09375 90.234375 222.871094 88.691406 220.441406 88.691406 L 117.558594 88.785156 C 114.253906 88.785156 111.582031 91.496094 111.582031 94.8125 L 111.582031 123.121094 C 111.582031 126.394531 114.253906 129.097656 117.558594 129.097656 L 180.238281 129.097656 C 146.03125 180.867188 132.410156 232.003906 139.75 281.242188 C 140.199219 284.179688 142.730469 286.300781 145.6875 286.300781 L 173.855469 286.300781 C 173.9375 286.300781 174.058594 286.300781 174.144531 286.300781 C 177.445312 286.300781 180.179688 283.6875 180.179688 280.382812 C 180.179688 279.40625 179.914062 278.507812 179.523438 277.710938 C 169.164062 201.46875 227.824219 130.710938 234.84375 122.550781 Z M 234.84375 122.550781 " fill-opacity="1" fill-rule="nonzero"/><path fill="#ffffff" d="M 123.023438 124.339844 C 120.300781 124.339844 118.09375 122.132812 118.09375 119.410156 L 118.09375 95.0625 L 173.894531 95.0625 C 176.617188 95.0625 178.824219 97.269531 178.824219 99.992188 C 178.824219 102.714844 176.617188 104.921875 173.894531 104.921875 L 127.953125 104.921875 L 127.953125 119.410156 C 127.953125 122.132812 125.746094 124.339844 123.023438 124.339844 Z M 123.023438 124.339844 " fill-opacity="1" fill-rule="nonzero"/></svg>