<svg xmlns="http://www.w3.org/2000/svg" xmlns:xlink="http://www.w3.org/1999/xlink" width="500" zoomAndPan="magnify" viewBox="0 0 375 374.999991" height="500" preserveAspectRatio="xMidYMid meet" version="1.0"><defs><clipPath id="489705ec55"><path d="M 16.070312 16.070312 L 358.929688 16.070312 L 358.929688 358.929688 L 16.070312 358.929688 Z M 16.070312 16.070312 " clip-rule="nonzero"/></clipPath><clipPath id="2d1d7ea928"><path d="M 187.5 16.070312 C 92.820312 16.070312 16.070312 92.820312 16.070312 187.5 C 16.070312 282.179688 92.820312 358.929688 187.5 358.929688 C 282.179688 358.929688 358.929688 282.179688 358.929688 187.5 C 358.929688 92.820312 282.179688 16.070312 187.5 16.070312 Z M 187.5 16.070312 " clip-rule="nonzero"/></clipPath><clipPath id="31bfa4b8b9"><path d="M 117 79.125 L 258 79.125 L 258 295.875 L 117 295.875 Z M 117 79.125 " clip-rule="nonzero"/></clipPath><clipPath id="7b47bedcee"><path d="M 270.46875 223 L 346.21875 223 L 346.21875 337.703125 L 270.46875 337.703125 Z M 270.46875 223 " clip-rule="nonzero"/></clipPath><clipPath id="b5d6c07cbf"><path d="M 150 295.875 L 289 295.875 L 289 369.375 L 150 369.375 Z M 150 295.875 " clip-rule="nonzero"/></clipPath><clipPath id="48bbea1c87"><path d="M 293 297 L 357 297 L 357 355.125 L 293 355.125 Z M 293 297 " clip-rule="nonzero"/></clipPath></defs><g clip-path="url(#489705ec55)"><g clip-path="url(#2d1d7ea928)"><path fill="#ffffff" d="M 16.070312 16.070312 L 358.929688 16.070312 L 358.929688 358.929688 L 16.070312 358.929688 Z M 16.070312 16.070312 " fill-opacity="1" fill-rule="nonzero"/></g></g><g clip-path="url(#31bfa4b8b9)"><path fill="#231815" d="M 236.320312 98.953125 C 223.804688 86 207.285156 79.152344 188.546875 79.152344 L 187.035156 79.152344 C 186.96875 79.152344 186.894531 79.152344 186.824219 79.152344 C 148.691406 79.957031 118.75 109.472656 117.175781 147.898438 C 116.203125 177.113281 132.199219 202.90625 155.835938 214.726562 C 155.753906 214.746094 155.679688 214.773438 155.597656 214.796875 L 131.628906 222.261719 C 123.5625 224.84375 118.875 233.3125 120.976562 241.613281 C 129.128906 272.917969 154.476562 294.722656 184.035156 295.875 C 184.164062 295.882812 184.296875 295.886719 184.429688 295.886719 L 186.339844 295.886719 C 223.566406 295.886719 253.90625 263.882812 255.425781 223.050781 L 257.894531 160.328125 C 258.746094 136.460938 250.890625 114.09375 236.320312 98.953125 Z M 185.84375 138.039062 C 187.75 138.039062 190.15625 139.222656 192.113281 141.117188 C 194.71875 143.648438 196.136719 147.183594 196.019531 150.742188 C 195.738281 157.546875 190.867188 162.5 184.40625 162.597656 C 178.46875 162.269531 173.863281 156.640625 174.097656 150.003906 C 174.378906 143.183594 179.425781 138.039062 185.84375 138.039062 Z M 198.621094 220.859375 C 198.292969 229.726562 192.855469 236.695312 186.15625 236.855469 C 181.699219 236.523438 177.492188 232.09375 175.859375 225.933594 C 175.320312 223.953125 174.433594 222.132812 173.25 220.535156 C 176.210938 221.070312 179.238281 221.40625 182.320312 221.519531 L 184.390625 221.589844 C 184.503906 221.589844 184.617188 221.59375 184.730469 221.59375 C 189.433594 221.59375 194.085938 221.070312 198.652344 220.03125 Z M 198.621094 220.859375 " fill-opacity="1" fill-rule="nonzero"/></g><path fill="#ffb72c" d="M 188.546875 89.335938 C 188.511719 89.335938 187.078125 89.335938 187.035156 89.335938 C 154.367188 90.023438 128.707031 115.292969 127.355469 148.234375 C 126.238281 181.808594 151.066406 210.140625 182.660156 211.339844 L 184.730469 211.410156 C 193.203125 211.410156 201.582031 209.332031 209.398438 205.332031 L 208.800781 221.238281 C 208.265625 235.664062 198.496094 247.042969 185.964844 247.042969 C 185.925781 247.042969 185.925781 247.042969 185.925781 247.042969 C 176.890625 246.644531 168.851562 239.242188 166.027344 228.601562 C 165.589844 226.988281 164.597656 225.753906 163.203125 224.957031 C 161.769531 224.226562 160.179688 224.082031 158.628906 224.523438 L 134.734375 231.960938 C 131.75 232.917969 130.058594 235.980469 130.832031 239.042969 C 137.855469 266 159.421875 284.722656 184.429688 285.699219 L 186.339844 285.699219 C 218.074219 285.699219 243.933594 258.007812 245.25 222.652344 L 247.710938 159.964844 C 248.472656 138.835938 241.648438 119.179688 228.992188 106.027344 C 218.46875 95.136719 204.464844 89.335938 188.546875 89.335938 Z M 185.84375 127.851562 C 190.898438 127.851562 195.710938 130.421875 199.214844 133.8125 C 203.847656 138.320312 206.414062 144.65625 206.195312 151.160156 C 205.699219 163.257812 196.390625 172.785156 184.214844 172.785156 C 172.570312 172.359375 163.480469 161.894531 163.921875 149.589844 C 164.417969 137.425781 173.828125 127.851562 185.84375 127.851562 Z M 185.84375 127.851562 " fill-opacity="1" fill-rule="nonzero"/><path fill="#ffffff" d="M 144.160156 130.535156 C 143.433594 130.535156 142.699219 130.367188 142.003906 130.019531 C 139.632812 128.828125 138.675781 125.9375 139.867188 123.566406 C 140.273438 122.761719 149.988281 103.839844 169.054688 100.488281 C 171.667969 100.03125 174.164062 101.773438 174.625 104.390625 C 175.085938 107.003906 173.339844 109.5 170.71875 109.960938 C 156.355469 112.484375 148.539062 127.730469 148.460938 127.886719 C 147.617188 129.566406 145.917969 130.535156 144.160156 130.535156 Z M 144.160156 130.535156 " fill-opacity="1" fill-rule="nonzero"/><path fill="#ffffff" d="M 143.347656 149.851562 C 140.695312 149.851562 138.539062 147.699219 138.539062 145.042969 L 138.539062 138.628906 C 138.539062 135.96875 140.695312 133.820312 143.347656 133.820312 C 146.003906 133.820312 148.15625 135.96875 148.15625 138.628906 L 148.15625 145.042969 C 148.15625 147.699219 146.003906 149.851562 143.347656 149.851562 Z M 143.347656 149.851562 " fill-opacity="1" fill-rule="nonzero"/><g clip-path="url(#7b47bedcee)"><path fill="#af3bf2" d="M 308.34375 337.585938 C 287.519531 337.585938 270.46875 320.582031 270.46875 299.820312 L 270.46875 260.832031 C 270.46875 240.070312 287.519531 223.070312 308.34375 223.070312 C 329.164062 223.070312 346.21875 240.070312 346.21875 260.832031 L 346.21875 299.820312 C 346.21875 320.582031 329.164062 337.585938 308.34375 337.585938 Z M 308.34375 337.585938 " fill-opacity="1" fill-rule="nonzero"/></g><path fill="#f93ae7" d="M 338.398438 263.160156 C 338.398438 266.660156 335.550781 269.5 332.039062 269.5 C 328.523438 269.5 325.679688 266.660156 325.679688 263.160156 C 325.679688 259.65625 328.523438 256.816406 332.039062 256.816406 C 335.550781 256.816406 338.398438 259.65625 338.398438 263.160156 Z M 284.625 256.816406 C 281.109375 256.816406 278.265625 259.65625 278.265625 263.160156 C 278.265625 266.660156 281.109375 269.5 284.625 269.5 C 288.136719 269.5 290.984375 266.636719 290.984375 263.160156 C 290.984375 259.679688 288.136719 256.816406 284.625 256.816406 Z M 284.625 256.816406 " fill-opacity="1" fill-rule="nonzero"/><path fill="#000000" d="M 298.035156 257.429688 C 293.085938 257.429688 289.574219 253.085938 289.1875 252.597656 C 288.238281 251.398438 288.46875 249.660156 289.699219 248.714844 C 290.90625 247.792969 292.648438 247.996094 293.597656 249.199219 C 294.164062 249.914062 296.214844 251.933594 298.113281 251.882812 C 299.316406 251.859375 300.523438 250.988281 301.753906 249.277344 C 302.652344 248.023438 304.367188 247.742188 305.625 248.636719 C 306.882812 249.53125 307.164062 251.246094 306.265625 252.496094 C 303.394531 256.484375 300.292969 257.378906 298.1875 257.40625 C 298.164062 257.429688 298.085938 257.429688 298.035156 257.429688 Z M 319.625 257.429688 C 321.730469 257.378906 324.832031 256.511719 327.703125 252.523438 C 328.601562 251.269531 328.292969 249.558594 327.0625 248.660156 C 325.804688 247.765625 324.089844 248.046875 323.191406 249.300781 C 321.984375 250.988281 320.753906 251.882812 319.550781 251.910156 C 317.625 251.960938 315.601562 249.941406 315.035156 249.222656 C 314.085938 248.023438 312.371094 247.792969 311.136719 248.738281 C 309.933594 249.683594 309.703125 251.421875 310.625 252.625 C 311.011719 253.136719 314.523438 257.457031 319.472656 257.457031 C 319.523438 257.429688 319.574219 257.429688 319.625 257.429688 Z M 308.675781 268.65625 C 310.78125 268.605469 313.882812 267.734375 316.753906 263.746094 C 317.652344 262.492188 317.34375 260.78125 316.113281 259.886719 C 314.855469 258.992188 313.140625 259.273438 312.242188 260.523438 C 311.035156 262.210938 309.804688 263.109375 308.601562 263.132812 C 306.703125 263.183594 304.652344 261.164062 304.085938 260.449219 C 303.136719 259.246094 301.417969 259.015625 300.1875 259.960938 C 298.984375 260.910156 298.753906 262.648438 299.675781 263.847656 C 300.0625 264.359375 303.574219 268.679688 308.523438 268.679688 C 308.574219 268.65625 308.625 268.65625 308.675781 268.65625 Z M 308.675781 268.65625 " fill-opacity="1" fill-rule="nonzero"/><g clip-path="url(#b5d6c07cbf)"><path fill="#3128e8" d="M 172.101562 369.375 C 156.78125 369.375 146.460938 353.613281 152.671875 339.621094 C 164.070312 313.84375 189.875 295.875 219.871094 295.875 C 249.871094 295.875 275.675781 313.84375 287.101562 339.621094 C 293.3125 353.613281 282.988281 369.375 267.671875 369.375 Z M 172.101562 369.375 " fill-opacity="1" fill-rule="nonzero"/></g><path fill="#ffffff" d="M 218.769531 325.242188 C 218.769531 331.78125 213.46875 337.082031 206.929688 337.082031 C 200.386719 337.082031 195.089844 331.78125 195.089844 325.242188 C 195.089844 318.699219 200.386719 313.402344 206.929688 313.402344 C 213.46875 313.402344 218.769531 318.699219 218.769531 325.242188 Z M 232.84375 313.402344 C 226.304688 313.402344 221.003906 318.699219 221.003906 325.242188 C 221.003906 331.78125 226.304688 337.082031 232.84375 337.082031 C 239.382812 337.082031 244.683594 331.78125 244.683594 325.242188 C 244.683594 318.699219 239.382812 313.402344 232.84375 313.402344 Z M 232.84375 313.402344 " fill-opacity="1" fill-rule="nonzero"/><path fill="#000000" d="M 219.679688 352.316406 C 213.910156 352.316406 209.246094 347.625 209.246094 341.886719 C 209.246094 336.117188 213.9375 331.453125 219.679688 331.453125 C 225.449219 331.453125 230.113281 336.144531 230.113281 341.886719 C 230.113281 347.625 225.449219 352.316406 219.679688 352.316406 Z M 219.679688 337.136719 C 217.058594 337.136719 214.933594 339.261719 214.933594 341.886719 C 214.933594 344.507812 217.058594 346.632812 219.679688 346.632812 C 222.300781 346.632812 224.425781 344.507812 224.425781 341.886719 C 224.425781 339.261719 222.300781 337.136719 219.679688 337.136719 Z M 219.679688 337.136719 " fill-opacity="1" fill-rule="nonzero"/><path fill="#af3bf2" d="M 254.703125 339.621094 C 254.703125 343.679688 251.417969 346.992188 247.332031 346.992188 C 243.277344 346.992188 239.964844 343.707031 239.964844 339.621094 C 239.964844 335.535156 243.25 332.253906 247.332031 332.253906 C 251.390625 332.253906 254.703125 335.5625 254.703125 339.621094 Z M 192.441406 332.253906 C 188.382812 332.253906 185.070312 335.535156 185.070312 339.621094 C 185.070312 343.707031 188.355469 346.992188 192.441406 346.992188 C 196.523438 346.992188 199.808594 343.707031 199.808594 339.621094 C 199.808594 335.535156 196.496094 332.253906 192.441406 332.253906 Z M 192.441406 332.253906 " fill-opacity="1" fill-rule="nonzero"/><path fill="#000000" d="M 214.132812 325.242188 C 214.132812 329.242188 210.902344 332.472656 206.902344 332.472656 C 202.898438 332.472656 199.671875 329.242188 199.671875 325.242188 C 199.671875 321.238281 202.898438 318.011719 206.902344 318.011719 C 210.902344 318.011719 214.132812 321.238281 214.132812 325.242188 Z M 232.84375 318.011719 C 228.84375 318.011719 225.613281 321.238281 225.613281 325.242188 C 225.613281 329.242188 228.84375 332.472656 232.84375 332.472656 C 236.84375 332.472656 240.074219 329.242188 240.074219 325.242188 C 240.074219 321.238281 236.84375 318.011719 232.84375 318.011719 Z M 232.84375 318.011719 " fill-opacity="1" fill-rule="nonzero"/><g clip-path="url(#48bbea1c87)"><path fill="#e8ed24" d="M 316.71875 302.191406 C 320.339844 295.914062 329.378906 295.914062 333 302.191406 L 344.183594 321.582031 L 355.363281 340.96875 C 358.984375 347.25 354.460938 355.085938 347.21875 355.085938 L 302.503906 355.085938 C 295.261719 355.085938 290.734375 347.238281 294.355469 340.96875 L 305.539062 321.582031 Z M 316.71875 302.191406 " fill-opacity="1" fill-rule="nonzero"/></g><path fill="#ffffff" d="M 324.179688 332.53125 C 324.179688 336.566406 320.914062 339.835938 316.886719 339.835938 C 312.855469 339.835938 309.59375 336.566406 309.59375 332.53125 C 309.59375 328.5 312.855469 325.230469 316.886719 325.230469 C 320.914062 325.230469 324.179688 328.5 324.179688 332.53125 Z M 332.835938 325.230469 C 328.808594 325.230469 325.542969 328.5 325.542969 332.53125 C 325.542969 336.566406 328.808594 339.835938 332.835938 339.835938 C 336.863281 339.835938 340.128906 336.566406 340.128906 332.53125 C 340.128906 328.5 336.863281 325.230469 332.835938 325.230469 Z M 332.835938 325.230469 " fill-opacity="1" fill-rule="nonzero"/><path fill="#e5890e" d="M 346.273438 341.390625 C 346.273438 343.894531 344.246094 345.921875 341.746094 345.921875 C 339.25 345.921875 337.222656 343.894531 337.222656 341.390625 C 337.222656 338.890625 339.25 336.859375 341.746094 336.859375 C 344.246094 336.859375 346.273438 338.890625 346.273438 341.390625 Z M 307.972656 336.859375 C 305.476562 336.859375 303.449219 338.890625 303.449219 341.390625 C 303.449219 343.894531 305.476562 345.921875 307.972656 345.921875 C 310.472656 345.921875 312.5 343.894531 312.5 341.390625 C 312.5 338.890625 310.472656 336.859375 307.972656 336.859375 Z M 307.972656 336.859375 " fill-opacity="1" fill-rule="nonzero"/><path fill="#000000" d="M 321.324219 332.53125 C 321.324219 334.984375 319.332031 336.988281 316.875 336.988281 C 314.414062 336.988281 312.421875 334.996094 312.421875 332.53125 C 312.421875 330.070312 314.414062 328.078125 316.875 328.078125 C 319.332031 328.078125 321.324219 330.082031 321.324219 332.53125 Z M 332.835938 328.089844 C 330.386719 328.089844 328.386719 330.082031 328.386719 332.546875 C 328.386719 335.007812 330.375 337 332.835938 337 C 335.296875 337 337.285156 335.007812 337.285156 332.546875 C 337.285156 330.082031 335.296875 328.089844 332.835938 328.089844 Z M 325.570312 343.585938 L 330.054688 340.089844 C 330.65625 339.628906 330.757812 338.761719 330.296875 338.160156 C 329.839844 337.5625 328.972656 337.460938 328.375 337.917969 L 324.726562 340.765625 L 321.003906 337.917969 C 320.40625 337.460938 319.539062 337.574219 319.078125 338.175781 C 318.621094 338.773438 318.734375 339.644531 319.332031 340.101562 L 323.886719 343.597656 C 324.128906 343.789062 324.421875 343.878906 324.714844 343.878906 C 325.019531 343.878906 325.3125 343.777344 325.570312 343.585938 Z M 325.570312 343.585938 " fill-opacity="1" fill-rule="nonzero"/><path fill="#000000" d="M 336.074219 323.164062 L 312.984375 323.164062 C 312.230469 323.164062 311.621094 322.550781 311.621094 321.796875 C 311.621094 321.046875 312.230469 320.433594 312.984375 320.433594 L 336.074219 320.433594 C 336.828125 320.433594 337.4375 321.046875 337.4375 321.796875 C 337.4375 322.550781 336.839844 323.164062 336.074219 323.164062 Z M 336.074219 323.164062 " fill-opacity="1" fill-rule="nonzero"/></svg>