<svg xmlns="http://www.w3.org/2000/svg" xmlns:xlink="http://www.w3.org/1999/xlink" width="500" zoomAndPan="magnify" viewBox="0 0 375 374.999991" height="500" preserveAspectRatio="xMidYMid meet" version="1.0"><defs><clipPath id="2df55ee1ff"><path d="M 16.070312 16.070312 L 358.929688 16.070312 L 358.929688 358.929688 L 16.070312 358.929688 Z M 16.070312 16.070312 " clip-rule="nonzero"/></clipPath><clipPath id="3737f6f3ba"><path d="M 187.5 16.070312 C 92.820312 16.070312 16.070312 92.820312 16.070312 187.5 C 16.070312 282.179688 92.820312 358.929688 187.5 358.929688 C 282.179688 358.929688 358.929688 282.179688 358.929688 187.5 C 358.929688 92.820312 282.179688 16.070312 187.5 16.070312 Z M 187.5 16.070312 " clip-rule="nonzero"/></clipPath><clipPath id="f31c787488"><path d="M 85 295.890625 L 224 295.890625 L 224 369.390625 L 85 369.390625 Z M 85 295.890625 " clip-rule="nonzero"/></clipPath><clipPath id="46cacd6185"><path d="M 117 79.109375 L 258.914062 79.109375 L 258.914062 295.859375 L 117 295.859375 Z M 117 79.109375 " clip-rule="nonzero"/></clipPath><clipPath id="d0161dc0a5"><path d="M 242 34 L 332 34 L 332 124 L 242 124 Z M 242 34 " clip-rule="nonzero"/></clipPath><clipPath id="508333f242"><path d="M 227.6875 42.882812 L 323.207031 19.878906 L 346.210938 115.398438 L 250.691406 138.402344 Z M 227.6875 42.882812 " clip-rule="nonzero"/></clipPath><clipPath id="abc06f9c13"><path d="M 227.6875 42.882812 L 323.207031 19.878906 L 346.210938 115.398438 L 250.691406 138.402344 Z M 227.6875 42.882812 " clip-rule="nonzero"/></clipPath><clipPath id="dfc04d8ce1"><path d="M 258 55 L 312 55 L 312 88 L 258 88 Z M 258 55 " clip-rule="nonzero"/></clipPath><clipPath id="ab1c47192a"><path d="M 227.6875 42.882812 L 323.207031 19.878906 L 346.210938 115.398438 L 250.691406 138.402344 Z M 227.6875 42.882812 " clip-rule="nonzero"/></clipPath><clipPath id="d2075afed4"><path d="M 227.6875 42.882812 L 323.207031 19.878906 L 346.210938 115.398438 L 250.691406 138.402344 Z M 227.6875 42.882812 " clip-rule="nonzero"/></clipPath><clipPath id="ee6d206807"><path d="M 263 60 L 307 60 L 307 83 L 263 83 Z M 263 60 " clip-rule="nonzero"/></clipPath><clipPath id="c6f6501159"><path d="M 227.6875 42.882812 L 323.207031 19.878906 L 346.210938 115.398438 L 250.691406 138.402344 Z M 227.6875 42.882812 " clip-rule="nonzero"/></clipPath><clipPath id="969fce8ad5"><path d="M 227.6875 42.882812 L 323.207031 19.878906 L 346.210938 115.398438 L 250.691406 138.402344 Z M 227.6875 42.882812 " clip-rule="nonzero"/></clipPath><clipPath id="02788eb539"><path d="M 251 71 L 326 71 L 326 102 L 251 102 Z M 251 71 " clip-rule="nonzero"/></clipPath><clipPath id="a35fe8b548"><path d="M 227.6875 42.882812 L 323.207031 19.878906 L 346.210938 115.398438 L 250.691406 138.402344 Z M 227.6875 42.882812 " clip-rule="nonzero"/></clipPath><clipPath id="9debd7269e"><path d="M 227.6875 42.882812 L 323.207031 19.878906 L 346.210938 115.398438 L 250.691406 138.402344 Z M 227.6875 42.882812 " clip-rule="nonzero"/></clipPath><clipPath id="04c496b2d9"><path d="M 265 81 L 314 81 L 314 101 L 265 101 Z M 265 81 " clip-rule="nonzero"/></clipPath><clipPath id="b1fb6bbbf7"><path d="M 227.6875 42.882812 L 323.207031 19.878906 L 346.210938 115.398438 L 250.691406 138.402344 Z M 227.6875 42.882812 " clip-rule="nonzero"/></clipPath><clipPath id="2c54cfbe3e"><path d="M 227.6875 42.882812 L 323.207031 19.878906 L 346.210938 115.398438 L 250.691406 138.402344 Z M 227.6875 42.882812 " clip-rule="nonzero"/></clipPath><clipPath id="6d5e24456d"><path d="M 10 242 L 133 242 L 133 365 L 10 365 Z M 10 242 " clip-rule="nonzero"/></clipPath><clipPath id="9220bae370"><path d="M 0 250.925781 L 124.425781 231.074219 L 144.277344 355.5 L 19.851562 375.351562 Z M 0 250.925781 " clip-rule="nonzero"/></clipPath><clipPath id="d6f974e370"><path d="M 0 250.925781 L 124.425781 231.074219 L 144.277344 355.5 L 19.851562 375.351562 Z M 0 250.925781 " clip-rule="nonzero"/></clipPath><clipPath id="58ac2d4514"><path d="M 42 282 L 99 282 L 99 311 L 42 311 Z M 42 282 " clip-rule="nonzero"/></clipPath><clipPath id="63ebd5d4e9"><path d="M 0 250.925781 L 124.425781 231.074219 L 144.277344 355.5 L 19.851562 375.351562 Z M 0 250.925781 " clip-rule="nonzero"/></clipPath><clipPath id="ce1b91549d"><path d="M 0 250.925781 L 124.425781 231.074219 L 144.277344 355.5 L 19.851562 375.351562 Z M 0 250.925781 " clip-rule="nonzero"/></clipPath><clipPath id="efc29b040f"><path d="M 36 297 L 110 297 L 110 322 L 36 322 Z M 36 297 " clip-rule="nonzero"/></clipPath><clipPath id="c5e2fc761c"><path d="M 0 250.925781 L 124.425781 231.074219 L 144.277344 355.5 L 19.851562 375.351562 Z M 0 250.925781 " clip-rule="nonzero"/></clipPath><clipPath id="43afc5f656"><path d="M 0 250.925781 L 124.425781 231.074219 L 144.277344 355.5 L 19.851562 375.351562 Z M 0 250.925781 " clip-rule="nonzero"/></clipPath><clipPath id="c81a645cc1"><path d="M 47 287 L 95 287 L 95 307 L 47 307 Z M 47 287 " clip-rule="nonzero"/></clipPath><clipPath id="74c57ab481"><path d="M 0 250.925781 L 124.425781 231.074219 L 144.277344 355.5 L 19.851562 375.351562 Z M 0 250.925781 " clip-rule="nonzero"/></clipPath><clipPath id="54b9d7c7b7"><path d="M 0 250.925781 L 124.425781 231.074219 L 144.277344 355.5 L 19.851562 375.351562 Z M 0 250.925781 " clip-rule="nonzero"/></clipPath><clipPath id="af9f7b1f34"><path d="M 59 301 L 86 301 L 86 314 L 59 314 Z M 59 301 " clip-rule="nonzero"/></clipPath><clipPath id="fd6834f370"><path d="M 0 250.925781 L 124.425781 231.074219 L 144.277344 355.5 L 19.851562 375.351562 Z M 0 250.925781 " clip-rule="nonzero"/></clipPath><clipPath id="9906005fb0"><path d="M 0 250.925781 L 124.425781 231.074219 L 144.277344 355.5 L 19.851562 375.351562 Z M 0 250.925781 " clip-rule="nonzero"/></clipPath></defs><g clip-path="url(#2df55ee1ff)"><g clip-path="url(#3737f6f3ba)"><path fill="#ffffff" d="M 16.070312 16.070312 L 358.929688 16.070312 L 358.929688 358.929688 L 16.070312 358.929688 Z M 16.070312 16.070312 " fill-opacity="1" fill-rule="nonzero"/></g></g><g clip-path="url(#f31c787488)"><path fill="#ff9441" d="M 106.691406 369.203125 C 91.414062 369.203125 81.117188 353.484375 87.3125 339.523438 C 98.683594 313.8125 124.421875 295.890625 154.347656 295.890625 C 184.273438 295.890625 210.011719 313.8125 221.410156 339.523438 C 227.605469 353.484375 217.308594 369.203125 202.03125 369.203125 Z M 106.691406 369.203125 " fill-opacity="1" fill-rule="nonzero"/></g><path fill="#ffffff" d="M 153.246094 325.183594 C 153.246094 331.707031 147.960938 336.992188 141.4375 336.992188 C 134.910156 336.992188 129.625 331.707031 129.625 325.183594 C 129.625 318.65625 134.910156 313.371094 141.4375 313.371094 C 147.960938 313.371094 153.246094 318.65625 153.246094 325.183594 Z M 167.285156 313.371094 C 160.761719 313.371094 155.476562 318.65625 155.476562 325.183594 C 155.476562 331.707031 160.761719 336.992188 167.285156 336.992188 C 173.8125 336.992188 179.097656 331.707031 179.097656 325.183594 C 179.097656 318.65625 173.8125 313.371094 167.285156 313.371094 Z M 167.285156 313.371094 " fill-opacity="1" fill-rule="nonzero"/><path fill="#000000" d="M 154.15625 352.1875 C 148.402344 352.1875 143.75 347.507812 143.75 341.78125 C 143.75 336.027344 148.429688 331.375 154.15625 331.375 C 159.910156 331.375 164.5625 336.054688 164.5625 341.78125 C 164.5625 347.507812 159.910156 352.1875 154.15625 352.1875 Z M 154.15625 337.046875 C 151.539062 337.046875 149.417969 339.167969 149.417969 341.78125 C 149.417969 344.398438 151.539062 346.519531 154.15625 346.519531 C 156.769531 346.519531 158.890625 344.398438 158.890625 341.78125 C 158.890625 339.167969 156.769531 337.046875 154.15625 337.046875 Z M 154.15625 337.046875 " fill-opacity="1" fill-rule="nonzero"/><path fill="#ff9441" d="M 189.089844 339.523438 C 189.089844 343.570312 185.816406 346.875 181.738281 346.875 C 177.691406 346.875 174.390625 343.597656 174.390625 339.523438 C 174.390625 335.449219 177.664062 332.175781 181.738281 332.175781 C 185.785156 332.175781 189.089844 335.476562 189.089844 339.523438 Z M 126.984375 332.175781 C 122.9375 332.175781 119.632812 335.449219 119.632812 339.523438 C 119.632812 343.597656 122.910156 346.875 126.984375 346.875 C 131.058594 346.875 134.332031 343.597656 134.332031 339.523438 C 134.332031 335.449219 131.03125 332.175781 126.984375 332.175781 Z M 126.984375 332.175781 " fill-opacity="1" fill-rule="nonzero"/><path fill="#000000" d="M 148.621094 325.183594 C 148.621094 329.171875 145.402344 332.394531 141.410156 332.394531 C 137.417969 332.394531 134.195312 329.171875 134.195312 325.183594 C 134.195312 321.191406 137.417969 317.96875 141.410156 317.96875 C 145.402344 317.96875 148.621094 321.191406 148.621094 325.183594 Z M 167.285156 317.96875 C 163.296875 317.96875 160.074219 321.191406 160.074219 325.183594 C 160.074219 329.171875 163.296875 332.394531 167.285156 332.394531 C 171.277344 332.394531 174.5 329.171875 174.5 325.183594 C 174.5 321.191406 171.277344 317.96875 167.285156 317.96875 Z M 167.285156 317.96875 " fill-opacity="1" fill-rule="nonzero"/><g clip-path="url(#46cacd6185)"><path fill="#231815" d="M 243.785156 183.699219 C 251.574219 173.027344 255.972656 160.316406 256.332031 147.085938 C 256.808594 129.453125 250.355469 112.664062 238.167969 99.816406 C 225.953125 86.941406 209.480469 79.601562 191.777344 79.148438 C 191.691406 79.148438 191.605469 79.144531 191.519531 79.144531 L 190.007812 79.144531 C 154.300781 79.144531 124.503906 108.03125 123.589844 143.546875 C 123.269531 156.738281 126.964844 169.644531 134.125 180.714844 C 123.769531 192.773438 117.902344 207.820312 117.414062 223.972656 C 116.414062 262.597656 147.148438 294.875 185.921875 295.917969 C 186.015625 295.921875 186.105469 295.921875 186.199219 295.921875 L 187.746094 295.921875 C 225.574219 295.921875 257.175781 265.347656 258.199219 227.75 C 258.605469 211.59375 253.539062 196.257812 243.785156 183.699219 Z M 174.972656 225.433594 C 175.125 219.5625 180.976562 214.605469 187.746094 214.605469 L 188.265625 214.605469 C 195.195312 214.847656 200.691406 220.039062 200.539062 226.203125 C 200.367188 232.410156 194.71875 237.097656 187.367188 237.160156 C 180.363281 236.882812 174.816406 231.644531 174.972656 225.433594 Z M 198.789062 145.621094 C 198.621094 149.574219 194.699219 152.554688 189.570312 152.597656 C 187.046875 152.515625 184.667969 151.476562 183.074219 149.785156 C 182.1875 148.832031 181.152344 147.261719 181.226562 145.1875 C 181.226562 145.136719 181.226562 145.085938 181.230469 145.03125 C 181.3125 141.261719 185.074219 138.070312 189.488281 137.996094 L 190.007812 138.015625 C 190.117188 138.019531 190.222656 138.023438 190.328125 138.023438 C 192.867188 138.042969 195.078125 138.972656 196.753906 140.75 C 198.089844 142.140625 198.789062 143.824219 198.789062 145.621094 Z M 198.789062 145.621094 " fill-opacity="1" fill-rule="nonzero"/></g><path fill="#05a552" d="M 246.167969 146.8125 C 247 115.972656 222.496094 90.109375 191.519531 89.3125 C 191.4375 89.3125 190.050781 89.3125 190.007812 89.3125 C 159.785156 89.3125 134.527344 113.726562 133.753906 143.792969 C 133.417969 157.632812 138.339844 171.058594 147.476562 181.59375 C 135.242188 192.554688 128.078125 207.753906 127.578125 224.238281 C 126.726562 257.277344 152.996094 284.863281 186.199219 285.753906 C 186.234375 285.753906 187.75 285.753906 187.75 285.753906 C 220.132812 285.753906 247.164062 259.644531 248.035156 227.492188 C 248.449219 211.050781 242.136719 195.472656 230.363281 183.875 C 240.109375 173.867188 245.789062 160.652344 246.167969 146.8125 Z M 189.652344 127.824219 L 190.40625 127.855469 C 195.726562 127.898438 200.574219 129.980469 204.109375 133.726562 C 207.324219 137.09375 209.015625 141.371094 208.953125 145.839844 C 208.675781 155.339844 200.375 162.765625 189.492188 162.765625 L 189.453125 162.765625 C 184.171875 162.648438 179.144531 160.445312 175.632812 156.710938 C 172.535156 153.382812 170.90625 149.183594 171.066406 144.816406 C 171.265625 135.433594 179.605469 127.824219 189.652344 127.824219 Z M 164.808594 225.167969 C 165.109375 213.75 175.433594 204.4375 187.746094 204.4375 L 188.421875 204.4375 C 200.992188 204.777344 211 214.625 210.703125 226.476562 C 210.386719 238.15625 200.257812 247.332031 187.214844 247.332031 C 174.5625 246.953125 164.515625 237.023438 164.808594 225.167969 Z M 164.808594 225.167969 " fill-opacity="1" fill-rule="nonzero"/><path fill="#ffffff" d="M 146.335938 129.214844 C 145.613281 129.214844 144.871094 129.046875 144.179688 128.695312 C 141.816406 127.503906 140.863281 124.628906 142.050781 122.265625 C 142.457031 121.460938 152.152344 102.578125 171.1875 99.242188 C 173.804688 98.785156 176.285156 100.527344 176.742188 103.140625 C 177.203125 105.75 175.457031 108.238281 172.847656 108.695312 C 158.621094 111.191406 150.707031 126.433594 150.625 126.589844 C 149.773438 128.253906 148.085938 129.214844 146.335938 129.214844 Z M 146.335938 129.214844 " fill-opacity="1" fill-rule="nonzero"/><path fill="#ffffff" d="M 145.570312 148.503906 C 142.917969 148.503906 140.769531 146.351562 140.769531 143.703125 L 140.769531 137.339844 C 140.769531 134.6875 142.917969 132.539062 145.570312 132.539062 C 148.21875 132.539062 150.367188 134.6875 150.367188 137.339844 L 150.367188 143.703125 C 150.371094 146.351562 148.21875 148.503906 145.570312 148.503906 Z M 145.570312 148.503906 " fill-opacity="1" fill-rule="nonzero"/><g clip-path="url(#d0161dc0a5)"><g clip-path="url(#508333f242)"><g clip-path="url(#abc06f9c13)"><path fill="#ffb72c" d="M 310.042969 41.027344 C 331.0625 53.902344 337.6875 81.398438 324.832031 102.4375 C 311.976562 123.472656 284.53125 130.082031 263.507812 117.203125 C 242.484375 104.328125 235.863281 76.832031 248.71875 55.792969 C 261.574219 34.757812 289.015625 28.132812 310.042969 41.027344 Z M 310.042969 41.027344 " fill-opacity="1" fill-rule="nonzero"/></g></g></g><g clip-path="url(#dfc04d8ce1)"><g clip-path="url(#ab1c47192a)"><g clip-path="url(#d2075afed4)"><path fill="#ffffff" d="M 283.703125 71.582031 C 285.375 78.515625 281.109375 85.488281 274.175781 87.15625 C 267.238281 88.828125 260.269531 84.5625 258.597656 77.628906 C 256.929688 70.691406 261.195312 63.722656 268.128906 62.050781 C 275.0625 60.382812 282.035156 64.648438 283.703125 71.582031 Z M 295.589844 55.4375 C 288.65625 57.109375 284.390625 64.078125 286.0625 71.015625 C 287.730469 77.949219 294.703125 82.214844 301.636719 80.542969 C 308.570312 78.875 312.835938 71.902344 311.167969 64.96875 C 309.496094 58.03125 302.527344 53.769531 295.589844 55.4375 Z M 295.589844 55.4375 " fill-opacity="1" fill-rule="nonzero"/></g></g></g><g clip-path="url(#ee6d206807)"><g clip-path="url(#c6f6501159)"><g clip-path="url(#969fce8ad5)"><path fill="#2e2e2e" d="M 278.816406 72.757812 C 279.832031 76.988281 277.222656 81.230469 273.011719 82.246094 C 268.796875 83.261719 264.539062 80.65625 263.523438 76.441406 C 262.507812 72.230469 265.113281 67.96875 269.328125 66.953125 C 273.539062 65.941406 277.796875 68.527344 278.816406 72.757812 Z M 296.773438 60.34375 C 292.542969 61.363281 289.953125 65.621094 290.96875 69.832031 C 291.984375 74.046875 296.242188 76.652344 300.457031 75.636719 C 304.667969 74.621094 307.273438 70.363281 306.261719 66.148438 C 305.246094 61.9375 301.003906 59.328125 296.773438 60.34375 Z M 296.773438 60.34375 " fill-opacity="1" fill-rule="nonzero"/></g></g></g><g clip-path="url(#02788eb539)"><g clip-path="url(#a35fe8b548)"><g clip-path="url(#9debd7269e)"><path fill="#ff7f1d" d="M 325.425781 77.640625 C 326.460938 81.9375 323.816406 86.261719 319.515625 87.296875 C 315.214844 88.335938 310.890625 85.6875 309.855469 81.390625 C 308.820312 77.089844 311.46875 72.765625 315.765625 71.730469 C 320.066406 70.695312 324.390625 73.339844 325.425781 77.640625 Z M 257.613281 85.714844 C 253.3125 86.753906 250.667969 91.074219 251.703125 95.375 C 252.738281 99.675781 257.0625 102.320312 261.363281 101.285156 C 265.660156 100.25 268.308594 95.925781 267.273438 91.625 C 266.242188 87.34375 261.914062 84.679688 257.613281 85.714844 Z M 257.613281 85.714844 " fill-opacity="1" fill-rule="nonzero"/></g></g></g><g clip-path="url(#04c496b2d9)"><g clip-path="url(#b1fb6bbbf7)"><g clip-path="url(#2c54cfbe3e)"><path fill="#2e2e2e" d="M 313.09375 84.386719 C 296.4375 106.945312 275.699219 100.109375 266.691406 95.542969 C 264.980469 94.671875 265.285156 92.140625 267.160156 91.691406 L 310.953125 81.144531 C 312.820312 80.675781 314.238281 82.828125 313.09375 84.386719 Z M 313.09375 84.386719 " fill-opacity="1" fill-rule="nonzero"/></g></g></g><g clip-path="url(#6d5e24456d)"><g clip-path="url(#9220bae370)"><g clip-path="url(#d6f974e370)"><path fill="#05a552" d="M 131.867188 295.644531 L 88.496094 361.144531 C 86.488281 364.183594 82.390625 365.007812 79.351562 362.996094 L 13.847656 319.628906 C 10.808594 317.617188 9.988281 313.519531 11.996094 310.480469 L 55.367188 244.976562 C 57.375 241.941406 61.472656 241.117188 64.511719 243.125 L 130.015625 286.496094 C 133.054688 288.503906 133.875 292.605469 131.867188 295.644531 Z M 131.867188 295.644531 " fill-opacity="1" fill-rule="nonzero"/></g></g></g><g clip-path="url(#58ac2d4514)"><g clip-path="url(#63ebd5d4e9)"><g clip-path="url(#ce1b91549d)"><path fill="#ffffff" d="M 64.421875 298.054688 C 65.363281 303.957031 61.339844 309.472656 55.46875 310.410156 C 49.59375 311.347656 44.046875 307.328125 43.113281 301.453125 C 42.175781 295.582031 46.191406 290.035156 52.066406 289.097656 C 57.941406 288.160156 63.480469 292.152344 64.421875 298.054688 Z M 86.367188 283.007812 C 80.46875 283.953125 76.476562 289.492188 77.414062 295.363281 C 78.351562 301.238281 83.894531 305.257812 89.769531 304.320312 C 95.644531 303.382812 99.660156 297.839844 98.722656 291.964844 C 97.789062 286.089844 92.269531 282.066406 86.367188 283.007812 Z M 86.367188 283.007812 " fill-opacity="1" fill-rule="nonzero"/></g></g></g><g clip-path="url(#efc29b040f)"><g clip-path="url(#c5e2fc761c)"><g clip-path="url(#43afc5f656)"><path fill="#05a552" d="M 109.808594 303.476562 C 110.390625 307.136719 107.910156 310.558594 104.25 311.144531 C 100.589844 311.726562 97.167969 309.246094 96.582031 305.585938 C 96 301.925781 98.480469 298.503906 102.140625 297.921875 C 105.769531 297.3125 109.222656 299.816406 109.808594 303.476562 Z M 41.742188 308.144531 C 38.082031 308.730469 35.601562 312.152344 36.183594 315.8125 C 36.769531 319.472656 40.191406 321.953125 43.851562 321.367188 C 47.511719 320.785156 49.992188 317.363281 49.40625 313.703125 C 48.824219 310.039062 45.402344 307.5625 41.742188 308.144531 Z M 41.742188 308.144531 " fill-opacity="1" fill-rule="nonzero"/></g></g></g><g clip-path="url(#c81a645cc1)"><g clip-path="url(#74c57ab481)"><g clip-path="url(#54b9d7c7b7)"><path fill="#2e2e2e" d="M 60.269531 298.71875 C 60.839844 302.296875 58.382812 305.6875 54.804688 306.257812 C 51.226562 306.828125 47.835938 304.371094 47.265625 300.792969 C 46.691406 297.210938 49.148438 293.824219 52.730469 293.25 C 56.308594 292.679688 59.695312 295.109375 60.269531 298.71875 Z M 87.03125 287.164062 C 83.453125 287.734375 80.996094 291.125 81.566406 294.703125 C 82.136719 298.28125 85.527344 300.738281 89.105469 300.167969 C 92.6875 299.597656 95.140625 296.207031 94.570312 292.628906 C 94 289.046875 90.609375 286.589844 87.03125 287.164062 Z M 87.03125 287.164062 " fill-opacity="1" fill-rule="nonzero"/></g></g></g><g clip-path="url(#af9f7b1f34)"><g clip-path="url(#fd6834f370)"><g clip-path="url(#9906005fb0)"><path fill="#2e2e2e" d="M 73.890625 313.15625 C 73.644531 313.195312 73.402344 313.234375 73.148438 313.246094 C 66.152344 314 60.769531 309.226562 60.542969 309.039062 C 59.464844 308.0625 59.359375 306.371094 60.335938 305.289062 C 61.3125 304.210938 63.007812 304.109375 64.085938 305.085938 C 64.183594 305.152344 68.019531 308.492188 72.617188 307.980469 C 75.644531 307.636719 78.445312 305.707031 80.996094 302.191406 C 81.867188 300.984375 83.507812 300.726562 84.710938 301.597656 C 85.914062 302.46875 86.175781 304.109375 85.304688 305.3125 C 82.046875 309.839844 78.210938 312.46875 73.890625 313.15625 Z M 73.890625 313.15625 " fill-opacity="1" fill-rule="nonzero"/></g></g></g></svg>