<svg xmlns="http://www.w3.org/2000/svg" xmlns:xlink="http://www.w3.org/1999/xlink" width="500" zoomAndPan="magnify" viewBox="0 0 375 374.999991" height="500" preserveAspectRatio="xMidYMid meet" version="1.0"><defs><clipPath id="a83ef508b1"><path d="M 16.070312 16.070312 L 358.929688 16.070312 L 358.929688 358.929688 L 16.070312 358.929688 Z M 16.070312 16.070312 " clip-rule="nonzero"/></clipPath><clipPath id="0aa0fb4253"><path d="M 187.5 16.070312 C 92.820312 16.070312 16.070312 92.820312 16.070312 187.5 C 16.070312 282.179688 92.820312 358.929688 187.5 358.929688 C 282.179688 358.929688 358.929688 282.179688 358.929688 187.5 C 358.929688 92.820312 282.179688 16.070312 187.5 16.070312 Z M 187.5 16.070312 " clip-rule="nonzero"/></clipPath><clipPath id="344643d6c1"><path d="M 10 18 L 133 18 L 133 141 L 10 141 Z M 10 18 " clip-rule="nonzero"/></clipPath><clipPath id="2e35f567af"><path d="M 0 26.984375 L 124.425781 7.132812 L 144.277344 131.558594 L 19.851562 151.410156 Z M 0 26.984375 " clip-rule="nonzero"/></clipPath><clipPath id="ddfd36a095"><path d="M 0 26.984375 L 124.425781 7.132812 L 144.277344 131.558594 L 19.851562 151.410156 Z M 0 26.984375 " clip-rule="nonzero"/></clipPath><clipPath id="73c0ef0174"><path d="M 42 58 L 99 58 L 99 87 L 42 87 Z M 42 58 " clip-rule="nonzero"/></clipPath><clipPath id="fd531edf0f"><path d="M 0 26.984375 L 124.425781 7.132812 L 144.277344 131.558594 L 19.851562 151.410156 Z M 0 26.984375 " clip-rule="nonzero"/></clipPath><clipPath id="5cd65fccd5"><path d="M 0 26.984375 L 124.425781 7.132812 L 144.277344 131.558594 L 19.851562 151.410156 Z M 0 26.984375 " clip-rule="nonzero"/></clipPath><clipPath id="b46dbad1ab"><path d="M 36 73 L 110 73 L 110 98 L 36 98 Z M 36 73 " clip-rule="nonzero"/></clipPath><clipPath id="bed9711086"><path d="M 0 26.984375 L 124.425781 7.132812 L 144.277344 131.558594 L 19.851562 151.410156 Z M 0 26.984375 " clip-rule="nonzero"/></clipPath><clipPath id="0421c10679"><path d="M 0 26.984375 L 124.425781 7.132812 L 144.277344 131.558594 L 19.851562 151.410156 Z M 0 26.984375 " clip-rule="nonzero"/></clipPath><clipPath id="38c5fd8426"><path d="M 47 63 L 95 63 L 95 83 L 47 83 Z M 47 63 " clip-rule="nonzero"/></clipPath><clipPath id="9a27041b79"><path d="M 0 26.984375 L 124.425781 7.132812 L 144.277344 131.558594 L 19.851562 151.410156 Z M 0 26.984375 " clip-rule="nonzero"/></clipPath><clipPath id="91bf72304c"><path d="M 0 26.984375 L 124.425781 7.132812 L 144.277344 131.558594 L 19.851562 151.410156 Z M 0 26.984375 " clip-rule="nonzero"/></clipPath><clipPath id="b0f10da0f7"><path d="M 59 77 L 86 77 L 86 90 L 59 90 Z M 59 77 " clip-rule="nonzero"/></clipPath><clipPath id="accc94e676"><path d="M 0 26.984375 L 124.425781 7.132812 L 144.277344 131.558594 L 19.851562 151.410156 Z M 0 26.984375 " clip-rule="nonzero"/></clipPath><clipPath id="e3c088643f"><path d="M 0 26.984375 L 124.425781 7.132812 L 144.277344 131.558594 L 19.851562 151.410156 Z M 0 26.984375 " clip-rule="nonzero"/></clipPath><clipPath id="cd6f5323ec"><path d="M 69 79.125 L 176.542969 79.125 L 176.542969 295.875 L 69 295.875 Z M 69 79.125 " clip-rule="nonzero"/></clipPath><clipPath id="8cf4a39f74"><path d="M 178.511719 79.125 L 307.511719 79.125 L 307.511719 295.875 L 178.511719 295.875 Z M 178.511719 79.125 " clip-rule="nonzero"/></clipPath><clipPath id="51cf400e91"><path d="M 165 300.839844 L 304 300.839844 L 304 374.339844 L 165 374.339844 Z M 165 300.839844 " clip-rule="nonzero"/></clipPath><clipPath id="d916946b45"><path d="M 266 277 L 303 277 L 303 317 L 266 317 Z M 266 277 " clip-rule="nonzero"/></clipPath><clipPath id="fef3bca275"><path d="M 261.496094 283.863281 L 294.871094 272.519531 L 306.941406 308.023438 L 273.566406 319.371094 Z M 261.496094 283.863281 " clip-rule="nonzero"/></clipPath><clipPath id="a4c328a7c3"><path d="M 261.496094 283.863281 L 294.871094 272.519531 L 306.941406 308.023438 L 273.566406 319.371094 Z M 261.496094 283.863281 " clip-rule="nonzero"/></clipPath><clipPath id="4dfb2135ed"><path d="M 276 288 L 292 288 L 292 299 L 276 299 Z M 276 288 " clip-rule="nonzero"/></clipPath><clipPath id="3ad4354efa"><path d="M 261.496094 283.863281 L 294.871094 272.519531 L 306.941406 308.023438 L 273.566406 319.371094 Z M 261.496094 283.863281 " clip-rule="nonzero"/></clipPath><clipPath id="f440d8f6a3"><path d="M 261.496094 283.863281 L 294.871094 272.519531 L 306.941406 308.023438 L 273.566406 319.371094 Z M 261.496094 283.863281 " clip-rule="nonzero"/></clipPath><clipPath id="d1a624e27c"><path d="M 274 292 L 296 292 L 296 303 L 274 303 Z M 274 292 " clip-rule="nonzero"/></clipPath><clipPath id="df28ef411e"><path d="M 261.496094 283.863281 L 294.871094 272.519531 L 306.941406 308.023438 L 273.566406 319.371094 Z M 261.496094 283.863281 " clip-rule="nonzero"/></clipPath><clipPath id="ca9c185a84"><path d="M 261.496094 283.863281 L 294.871094 272.519531 L 306.941406 308.023438 L 273.566406 319.371094 Z M 261.496094 283.863281 " clip-rule="nonzero"/></clipPath><clipPath id="1a744c005e"><path d="M 277 294 L 293 294 L 293 302 L 277 302 Z M 277 294 " clip-rule="nonzero"/></clipPath><clipPath id="2e10a04511"><path d="M 261.496094 283.863281 L 294.871094 272.519531 L 306.941406 308.023438 L 273.566406 319.371094 Z M 261.496094 283.863281 " clip-rule="nonzero"/></clipPath><clipPath id="8dd781ab18"><path d="M 261.496094 283.863281 L 294.871094 272.519531 L 306.941406 308.023438 L 273.566406 319.371094 Z M 261.496094 283.863281 " clip-rule="nonzero"/></clipPath><clipPath id="eaf7d57692"><path d="M 277 290 L 290 290 L 290 298 L 277 298 Z M 277 290 " clip-rule="nonzero"/></clipPath><clipPath id="765232c845"><path d="M 261.496094 283.863281 L 294.871094 272.519531 L 306.941406 308.023438 L 273.566406 319.371094 Z M 261.496094 283.863281 " clip-rule="nonzero"/></clipPath><clipPath id="17d50b9f19"><path d="M 261.496094 283.863281 L 294.871094 272.519531 L 306.941406 308.023438 L 273.566406 319.371094 Z M 261.496094 283.863281 " clip-rule="nonzero"/></clipPath></defs><g clip-path="url(#a83ef508b1)"><g clip-path="url(#0aa0fb4253)"><path fill="#ffffff" d="M 16.070312 16.070312 L 358.929688 16.070312 L 358.929688 358.929688 L 16.070312 358.929688 Z M 16.070312 16.070312 " fill-opacity="1" fill-rule="nonzero"/></g></g><g clip-path="url(#344643d6c1)"><g clip-path="url(#2e35f567af)"><g clip-path="url(#ddfd36a095)"><path fill="#05a552" d="M 131.867188 71.703125 L 88.496094 137.207031 C 86.488281 140.242188 82.390625 141.066406 79.351562 139.058594 L 13.847656 95.6875 C 10.808594 93.679688 9.988281 89.578125 11.996094 86.539062 L 55.367188 21.039062 C 57.375 18 61.472656 17.175781 64.511719 19.1875 L 130.015625 62.554688 C 133.054688 64.566406 133.875 68.664062 131.867188 71.703125 Z M 131.867188 71.703125 " fill-opacity="1" fill-rule="nonzero"/></g></g></g><g clip-path="url(#73c0ef0174)"><g clip-path="url(#fd531edf0f)"><g clip-path="url(#5cd65fccd5)"><path fill="#ffffff" d="M 64.421875 74.113281 C 65.363281 80.015625 61.339844 85.53125 55.46875 86.46875 C 49.59375 87.40625 44.046875 83.386719 43.113281 77.515625 C 42.175781 71.640625 46.191406 66.097656 52.066406 65.160156 C 57.941406 64.222656 63.480469 68.210938 64.421875 74.113281 Z M 86.367188 59.070312 C 80.46875 60.011719 76.476562 65.550781 77.414062 71.425781 C 78.351562 77.300781 83.894531 81.316406 89.769531 80.378906 C 95.644531 79.441406 99.660156 73.898438 98.722656 68.023438 C 97.789062 62.152344 92.269531 58.128906 86.367188 59.070312 Z M 86.367188 59.070312 " fill-opacity="1" fill-rule="nonzero"/></g></g></g><g clip-path="url(#b46dbad1ab)"><g clip-path="url(#bed9711086)"><g clip-path="url(#0421c10679)"><path fill="#05a552" d="M 109.808594 79.535156 C 110.390625 83.199219 107.910156 86.621094 104.25 87.203125 C 100.589844 87.789062 97.167969 85.308594 96.582031 81.648438 C 96 77.984375 98.480469 74.5625 102.140625 73.980469 C 105.769531 73.371094 109.222656 75.875 109.808594 79.535156 Z M 41.742188 84.203125 C 38.082031 84.789062 35.601562 88.210938 36.183594 91.871094 C 36.769531 95.53125 40.191406 98.011719 43.851562 97.429688 C 47.511719 96.84375 49.992188 93.421875 49.40625 89.761719 C 48.824219 86.101562 45.402344 83.621094 41.742188 84.203125 Z M 41.742188 84.203125 " fill-opacity="1" fill-rule="nonzero"/></g></g></g><g clip-path="url(#38c5fd8426)"><g clip-path="url(#9a27041b79)"><g clip-path="url(#91bf72304c)"><path fill="#2e2e2e" d="M 60.269531 74.777344 C 60.839844 78.355469 58.382812 81.746094 54.804688 82.316406 C 51.226562 82.886719 47.835938 80.429688 47.265625 76.851562 C 46.691406 73.273438 49.148438 69.882812 52.730469 69.3125 C 56.308594 68.742188 59.695312 71.171875 60.269531 74.777344 Z M 87.03125 63.222656 C 83.453125 63.792969 80.996094 67.183594 81.566406 70.761719 C 82.136719 74.339844 85.527344 76.796875 89.105469 76.226562 C 92.6875 75.65625 95.140625 72.265625 94.570312 68.6875 C 94 65.109375 90.609375 62.652344 87.03125 63.222656 Z M 87.03125 63.222656 " fill-opacity="1" fill-rule="nonzero"/></g></g></g><g clip-path="url(#b0f10da0f7)"><g clip-path="url(#accc94e676)"><g clip-path="url(#e3c088643f)"><path fill="#2e2e2e" d="M 73.890625 89.21875 C 73.644531 89.257812 73.402344 89.296875 73.148438 89.308594 C 66.152344 90.058594 60.769531 85.289062 60.542969 85.097656 C 59.464844 84.121094 59.359375 82.429688 60.335938 81.351562 C 61.3125 80.269531 63.007812 80.167969 64.085938 81.144531 C 64.183594 81.210938 68.019531 84.550781 72.617188 84.042969 C 75.644531 83.699219 78.445312 81.765625 80.996094 78.25 C 81.867188 77.046875 83.507812 76.785156 84.710938 77.65625 C 85.914062 78.53125 86.175781 80.167969 85.304688 81.371094 C 82.046875 85.898438 78.210938 88.527344 73.890625 89.21875 Z M 73.890625 89.21875 " fill-opacity="1" fill-rule="nonzero"/></g></g></g><g clip-path="url(#cd6f5323ec)"><path fill="#231815" d="M 159.300781 295.914062 L 130.871094 295.914062 C 126.546875 295.914062 122.484375 294.285156 119.414062 291.324219 C 116.25 288.335938 114.441406 284.113281 114.441406 279.710938 L 114.765625 173.195312 C 111.375 175.886719 107.042969 177.191406 102.808594 176.777344 C 102.730469 176.769531 102.65625 176.761719 102.578125 176.75 C 98.152344 176.214844 94.230469 174.066406 91.535156 170.699219 L 73.394531 148.371094 C 67.855469 141.515625 68.789062 131.679688 75.507812 125.953125 L 125.78125 83.125 C 128.753906 80.554688 132.570312 79.140625 136.535156 79.140625 C 138.960938 79.140625 141.324219 79.65625 143.554688 80.664062 C 143.652344 80.710938 143.75 80.753906 143.847656 80.800781 L 167.109375 92.246094 C 172.640625 94.976562 176.210938 100.664062 176.210938 106.746094 L 175.699219 279.742188 C 175.621094 288.6875 168.265625 295.914062 159.300781 295.914062 Z M 159.300781 295.914062 " fill-opacity="1" fill-rule="nonzero"/></g><path fill="#231815" d="M 103.769531 136.417969 C 100.671875 136.417969 97.613281 134.992188 95.636719 132.296875 C 92.355469 127.8125 93.328125 121.511719 97.816406 118.226562 L 129.660156 94.917969 C 134.148438 91.636719 140.445312 92.609375 143.730469 97.09375 C 147.015625 101.582031 146.039062 107.878906 141.550781 111.164062 L 109.710938 134.472656 C 107.917969 135.785156 105.835938 136.417969 103.769531 136.417969 Z M 103.769531 136.417969 " fill-opacity="1" fill-rule="nonzero"/><path fill="#26e1ea" d="M 139.402344 89.835938 C 137.011719 88.753906 134.269531 89.078125 132.34375 90.761719 L 82.035156 133.617188 C 79.507812 135.769531 79.175781 139.507812 81.210938 142.023438 L 99.398438 164.40625 C 100.5 165.785156 102.089844 166.550781 103.792969 166.757812 C 105.496094 166.925781 107.253906 166.335938 108.589844 165.246094 L 124.902344 151.273438 L 124.507812 279.710938 C 124.507812 281.304688 125.175781 282.9375 126.367188 284.039062 C 127.566406 285.21875 129.179688 285.847656 130.871094 285.847656 L 159.300781 285.847656 C 162.78125 285.847656 165.605469 283.09375 165.632812 279.710938 L 166.144531 106.746094 C 166.144531 104.476562 164.777344 102.324219 162.664062 101.28125 Z M 139.402344 89.835938 " fill-opacity="1" fill-rule="nonzero"/><path fill="#ffffff" d="M 103.765625 131.027344 C 102.328125 131.027344 100.90625 130.363281 99.992188 129.109375 C 98.464844 127.027344 98.917969 124.101562 101.003906 122.578125 L 132.847656 99.269531 C 134.929688 97.742188 137.855469 98.199219 139.378906 100.277344 C 140.90625 102.363281 140.453125 105.289062 138.367188 106.8125 L 106.523438 130.121094 C 105.691406 130.730469 104.726562 131.027344 103.765625 131.027344 Z M 103.765625 131.027344 " fill-opacity="1" fill-rule="nonzero"/><g clip-path="url(#8cf4a39f74)"><path fill="#231815" d="M 292.011719 100.410156 C 280.816406 86.980469 264.730469 79.242188 247.839844 79.183594 L 238.4375 79.183594 C 205.6875 79.183594 178.964844 107.695312 178.871094 142.738281 L 178.589844 231.890625 C 178.542969 249.980469 185.6875 267.285156 198.179688 279.351562 C 209.09375 289.949219 223.214844 295.785156 237.9375 295.785156 L 247.558594 295.785156 C 280.199219 295.785156 306.816406 267.261719 306.886719 232.214844 L 307.207031 143.109375 C 307.207031 127.226562 301.796875 112.050781 292.011719 100.410156 Z M 247.816406 232.136719 C 247.816406 233.332031 247.328125 234.054688 247.074219 234.261719 L 238.449219 234.335938 C 238.167969 234.058594 237.679688 233.277344 237.679688 232.09375 L 237.957031 142.988281 C 237.957031 141.777344 238.449219 140.953125 238.761719 140.621094 L 247.355469 140.6875 C 247.644531 140.996094 248.109375 141.785156 248.117188 142.902344 Z M 247.816406 232.136719 " fill-opacity="1" fill-rule="nonzero"/></g><path fill="#26e1ea" d="M 247.839844 89.425781 L 238.4375 89.425781 C 211.316406 89.425781 189.191406 113.335938 189.113281 142.769531 L 188.832031 231.917969 C 188.789062 247.199219 194.773438 261.820312 205.3125 272.003906 C 214.296875 280.722656 225.875 285.542969 237.9375 285.542969 L 247.558594 285.542969 C 274.5625 285.542969 296.585938 261.621094 296.644531 232.175781 L 296.960938 143.109375 C 296.960938 129.726562 292.441406 116.835938 284.144531 106.964844 C 274.878906 95.855469 261.636719 89.472656 247.839844 89.425781 Z M 258.058594 232.136719 C 258.058594 238.980469 253.238281 244.5 247.238281 244.5 L 238.078125 244.578125 C 232.234375 244.539062 227.4375 238.917969 227.4375 232.058594 L 227.71875 142.988281 C 227.71875 136.136719 232.554688 130.378906 238.296875 130.378906 L 238.339844 130.378906 L 247.761719 130.449219 C 253.582031 130.449219 258.320312 136.109375 258.363281 142.941406 Z M 258.058594 232.136719 " fill-opacity="1" fill-rule="nonzero"/><path fill="#ffffff" d="M 210.460938 125.453125 C 210.179688 125.453125 209.902344 125.429688 209.621094 125.378906 C 207.035156 124.914062 205.3125 122.449219 205.773438 119.863281 C 205.90625 119.109375 209.371094 101.351562 235.890625 98.851562 C 238.503906 98.601562 240.824219 100.523438 241.070312 103.140625 C 241.320312 105.753906 239.398438 108.074219 236.785156 108.320312 C 217.386719 110.148438 215.152344 121.417969 215.132812 121.53125 C 214.726562 123.835938 212.722656 125.453125 210.460938 125.453125 Z M 210.460938 125.453125 " fill-opacity="1" fill-rule="nonzero"/><path fill="#ffffff" d="M 210.453125 144.234375 C 207.828125 144.234375 205.699219 142.105469 205.699219 139.476562 L 205.699219 133.238281 C 205.699219 130.609375 207.828125 128.484375 210.453125 128.484375 C 213.082031 128.484375 215.210938 130.609375 215.210938 133.238281 L 215.210938 139.476562 C 215.210938 142.105469 213.082031 144.234375 210.453125 144.234375 Z M 210.453125 144.234375 " fill-opacity="1" fill-rule="nonzero"/><g clip-path="url(#51cf400e91)"><path fill="#3128e8" d="M 186.273438 374.339844 C 170.957031 374.339844 160.636719 358.578125 166.84375 344.585938 C 178.242188 318.808594 204.046875 300.839844 234.046875 300.839844 C 264.046875 300.839844 289.851562 318.808594 301.277344 344.585938 C 307.484375 358.578125 297.164062 374.339844 281.847656 374.339844 Z M 186.273438 374.339844 " fill-opacity="1" fill-rule="nonzero"/></g><path fill="#ffffff" d="M 232.941406 330.207031 C 232.941406 336.746094 227.644531 342.046875 221.101562 342.046875 C 214.5625 342.046875 209.261719 336.746094 209.261719 330.207031 C 209.261719 323.664062 214.5625 318.363281 221.101562 318.363281 C 227.644531 318.363281 232.941406 323.664062 232.941406 330.207031 Z M 247.019531 318.363281 C 240.476562 318.363281 235.179688 323.664062 235.179688 330.207031 C 235.179688 336.746094 240.476562 342.046875 247.019531 342.046875 C 253.558594 342.046875 258.859375 336.746094 258.859375 330.207031 C 258.859375 323.664062 253.558594 318.363281 247.019531 318.363281 Z M 247.019531 318.363281 " fill-opacity="1" fill-rule="nonzero"/><path fill="#000000" d="M 233.855469 357.28125 C 228.085938 357.28125 223.421875 352.589844 223.421875 346.847656 C 223.421875 341.082031 228.113281 336.414062 233.855469 336.414062 C 239.621094 336.414062 244.285156 341.109375 244.285156 346.847656 C 244.285156 352.589844 239.621094 357.28125 233.855469 357.28125 Z M 233.855469 342.101562 C 231.230469 342.101562 229.105469 344.226562 229.105469 346.847656 C 229.105469 349.472656 231.230469 351.597656 233.855469 351.597656 C 236.476562 351.597656 238.601562 349.472656 238.601562 346.847656 C 238.601562 344.226562 236.476562 342.101562 233.855469 342.101562 Z M 233.855469 342.101562 " fill-opacity="1" fill-rule="nonzero"/><path fill="#af3bf2" d="M 268.875 344.585938 C 268.875 348.644531 265.589844 351.953125 261.507812 351.953125 C 257.449219 351.953125 254.136719 348.671875 254.136719 344.585938 C 254.136719 340.5 257.421875 337.214844 261.507812 337.214844 C 265.5625 337.214844 268.875 340.527344 268.875 344.585938 Z M 206.613281 337.214844 C 202.558594 337.214844 199.246094 340.5 199.246094 344.585938 C 199.246094 348.671875 202.53125 351.953125 206.613281 351.953125 C 210.699219 351.953125 213.984375 348.671875 213.984375 344.585938 C 213.984375 340.5 210.671875 337.214844 206.613281 337.214844 Z M 206.613281 337.214844 " fill-opacity="1" fill-rule="nonzero"/><path fill="#000000" d="M 228.304688 330.207031 C 228.304688 334.207031 225.078125 337.4375 221.074219 337.4375 C 217.074219 337.4375 213.84375 334.207031 213.84375 330.207031 C 213.84375 326.203125 217.074219 322.972656 221.074219 322.972656 C 225.078125 322.972656 228.304688 326.203125 228.304688 330.207031 Z M 247.019531 322.972656 C 243.015625 322.972656 239.789062 326.203125 239.789062 330.207031 C 239.789062 334.207031 243.015625 337.4375 247.019531 337.4375 C 251.019531 337.4375 254.25 334.207031 254.25 330.207031 C 254.25 326.203125 251.019531 322.972656 247.019531 322.972656 Z M 247.019531 322.972656 " fill-opacity="1" fill-rule="nonzero"/><g clip-path="url(#d916946b45)"><g clip-path="url(#fef3bca275)"><g clip-path="url(#a4c328a7c3)"><path fill="#f69aa2" d="M 298.199219 296.890625 C 299.941406 297.789062 301.347656 299.335938 302.027344 301.332031 C 303.425781 305.441406 301.226562 309.90625 297.117188 311.300781 C 294.03125 312.351562 290.746094 311.371094 288.714844 309.074219 C 288.421875 312.046875 286.445312 314.726562 283.425781 315.753906 C 279.320312 317.148438 274.855469 314.949219 273.460938 310.84375 C 272.796875 308.894531 272.949219 306.859375 273.722656 305.117188 C 270.703125 304.855469 267.96875 302.859375 266.933594 299.8125 C 265.539062 295.707031 267.738281 291.242188 271.84375 289.84375 C 272.476562 289.628906 273.109375 289.5 273.738281 289.457031 C 273.523438 289.054688 273.328125 288.636719 273.175781 288.191406 C 271.78125 284.085938 273.980469 279.621094 278.085938 278.226562 C 282.191406 276.828125 286.65625 279.027344 288.054688 283.136719 C 288.222656 283.632812 288.339844 284.128906 288.402344 284.628906 C 289.050781 284.144531 289.777344 283.746094 290.589844 283.472656 C 294.695312 282.074219 299.164062 284.273438 300.558594 288.378906 C 301.617188 291.519531 300.578125 294.867188 298.199219 296.890625 Z M 298.199219 296.890625 " fill-opacity="1" fill-rule="nonzero"/></g></g></g><g clip-path="url(#4dfb2135ed)"><g clip-path="url(#3ad4354efa)"><g clip-path="url(#f440d8f6a3)"><path fill="#f5f5ef" d="M 283.277344 293.804688 C 283.933594 295.734375 282.898438 297.820312 280.980469 298.472656 C 279.058594 299.125 276.964844 298.09375 276.3125 296.175781 C 275.660156 294.253906 276.691406 292.160156 278.609375 291.507812 C 280.53125 290.855469 282.625 291.886719 283.277344 293.804688 Z M 286.230469 288.917969 C 284.304688 289.570312 283.28125 291.664062 283.933594 293.582031 C 284.585938 295.503906 286.679688 296.535156 288.597656 295.882812 C 290.519531 295.230469 291.550781 293.132812 290.898438 291.214844 C 290.246094 289.296875 288.152344 288.265625 286.230469 288.917969 Z M 286.230469 288.917969 " fill-opacity="1" fill-rule="nonzero"/></g></g></g><g clip-path="url(#d1a624e27c)"><g clip-path="url(#df28ef411e)"><g clip-path="url(#ca9c185a84)"><path fill="#ff7f1d" d="M 295.273438 294.441406 C 295.675781 295.632812 295.035156 296.9375 293.84375 297.339844 C 292.652344 297.746094 291.351562 297.105469 290.945312 295.914062 C 290.539062 294.71875 291.179688 293.417969 292.371094 293.015625 C 293.566406 292.609375 294.867188 293.25 295.273438 294.441406 Z M 276.234375 298.507812 C 275.042969 298.914062 274.402344 300.214844 274.804688 301.410156 C 275.210938 302.601562 276.511719 303.242188 277.707031 302.835938 C 278.898438 302.429688 279.539062 301.128906 279.132812 299.9375 C 278.726562 298.738281 277.433594 298.101562 276.234375 298.507812 Z M 276.234375 298.507812 " fill-opacity="1" fill-rule="nonzero"/></g></g></g><g clip-path="url(#1a744c005e)"><g clip-path="url(#2e10a04511)"><g clip-path="url(#8dd781ab18)"><path fill="#2e2e2e" d="M 286.445312 301.46875 C 283.222656 302.5625 280.089844 301.683594 278.449219 301.035156 C 277.992188 300.855469 277.773438 300.339844 277.953125 299.882812 C 278.128906 299.421875 278.644531 299.203125 279.105469 299.382812 C 281.925781 300.503906 287.199219 301.484375 290.902344 295.371094 C 291.15625 294.953125 291.699219 294.820312 292.121094 295.074219 C 292.542969 295.324219 292.675781 295.871094 292.421875 296.292969 C 290.648438 299.238281 288.523438 300.761719 286.445312 301.46875 Z M 286.445312 301.46875 " fill-opacity="1" fill-rule="nonzero"/></g></g></g><g clip-path="url(#eaf7d57692)"><g clip-path="url(#765232c845)"><g clip-path="url(#17d50b9f19)"><path fill="#2e2e2e" d="M 281.910156 294.269531 C 282.308594 295.441406 281.6875 296.71875 280.507812 297.117188 C 279.339844 297.515625 278.0625 296.890625 277.664062 295.714844 C 277.261719 294.539062 277.886719 293.269531 279.066406 292.867188 C 280.242188 292.46875 281.515625 293.101562 281.910156 294.269531 Z M 286.691406 290.277344 C 285.523438 290.671875 284.890625 291.945312 285.292969 293.121094 C 285.691406 294.296875 286.960938 294.925781 288.136719 294.523438 C 289.304688 294.125 289.941406 292.855469 289.539062 291.675781 C 289.140625 290.5 287.863281 289.878906 286.691406 290.277344 Z M 286.691406 290.277344 " fill-opacity="1" fill-rule="nonzero"/></g></g></g></svg>