<svg xmlns="http://www.w3.org/2000/svg" xmlns:xlink="http://www.w3.org/1999/xlink" width="500" zoomAndPan="magnify" viewBox="0 0 375 374.999991" height="500" preserveAspectRatio="xMidYMid meet" version="1.0"><defs><clipPath id="0eb6f04644"><path d="M 10 11 L 115 11 L 115 120 L 10 120 Z M 10 11 " clip-rule="nonzero"/></clipPath><clipPath id="a9137572e3"><path d="M -5.140625 44.804688 L 54.945312 -4.929688 L 130.027344 85.777344 L 69.941406 135.511719 Z M -5.140625 44.804688 " clip-rule="nonzero"/></clipPath><clipPath id="aa6c1756b0"><path d="M -5.140625 44.804688 L 54.945312 -4.929688 L 130.027344 85.777344 L 69.941406 135.511719 Z M -5.140625 44.804688 " clip-rule="nonzero"/></clipPath><clipPath id="9cd7bc26af"><path d="M -5.140625 44.804688 L 54.945312 -4.929688 L 130.027344 85.777344 L 69.941406 135.511719 Z M -5.140625 44.804688 " clip-rule="nonzero"/></clipPath><clipPath id="b62247dc38"><path d="M 25 29 L 77 29 L 77 74 L 25 74 Z M 25 29 " clip-rule="nonzero"/></clipPath><clipPath id="b04a7d47c8"><path d="M -5.140625 44.804688 L 54.945312 -4.929688 L 130.027344 85.777344 L 69.941406 135.511719 Z M -5.140625 44.804688 " clip-rule="nonzero"/></clipPath><clipPath id="9f2306d97c"><path d="M -5.140625 44.804688 L 54.945312 -4.929688 L 130.027344 85.777344 L 69.941406 135.511719 Z M -5.140625 44.804688 " clip-rule="nonzero"/></clipPath><clipPath id="19106b20fd"><path d="M -5.140625 44.804688 L 54.945312 -4.929688 L 130.027344 85.777344 L 69.941406 135.511719 Z M -5.140625 44.804688 " clip-rule="nonzero"/></clipPath><clipPath id="8a4bc9d37a"><path d="M 26 27 L 60 27 L 60 59 L 26 59 Z M 26 27 " clip-rule="nonzero"/></clipPath><clipPath id="e97a41754c"><path d="M -5.140625 44.804688 L 54.945312 -4.929688 L 130.027344 85.777344 L 69.941406 135.511719 Z M -5.140625 44.804688 " clip-rule="nonzero"/></clipPath><clipPath id="5a175f1d96"><path d="M -5.140625 44.804688 L 54.945312 -4.929688 L 130.027344 85.777344 L 69.941406 135.511719 Z M -5.140625 44.804688 " clip-rule="nonzero"/></clipPath><clipPath id="fb29cb8902"><path d="M -5.140625 44.804688 L 54.945312 -4.929688 L 130.027344 85.777344 L 69.941406 135.511719 Z M -5.140625 44.804688 " clip-rule="nonzero"/></clipPath><clipPath id="1e8221aa42"><path d="M 16.070312 16.070312 L 358.929688 16.070312 L 358.929688 358.929688 L 16.070312 358.929688 Z M 16.070312 16.070312 " clip-rule="nonzero"/></clipPath><clipPath id="b8fc7cb8c7"><path d="M 187.5 16.070312 C 92.820312 16.070312 16.070312 92.820312 16.070312 187.5 C 16.070312 282.179688 92.820312 358.929688 187.5 358.929688 C 282.179688 358.929688 358.929688 282.179688 358.929688 187.5 C 358.929688 92.820312 282.179688 16.070312 187.5 16.070312 Z M 187.5 16.070312 " clip-rule="nonzero"/></clipPath><clipPath id="366516923d"><path d="M 64 78.703125 L 171.90625 78.703125 L 171.90625 296.953125 L 64 296.953125 Z M 64 78.703125 " clip-rule="nonzero"/></clipPath><clipPath id="1f7a093bfe"><path d="M 175 78.40625 L 283 78.40625 L 283 296.65625 L 175 296.65625 Z M 175 78.40625 " clip-rule="nonzero"/></clipPath><clipPath id="199e3eb8a6"><path d="M 81.28125 3.40625 L 152.53125 3.40625 L 152.53125 78.40625 L 81.28125 78.40625 Z M 81.28125 3.40625 " clip-rule="nonzero"/></clipPath></defs><g clip-path="url(#0eb6f04644)"><g clip-path="url(#a9137572e3)"><g clip-path="url(#aa6c1756b0)"><g clip-path="url(#9cd7bc26af)"><path fill="#af3bf2" d="M 99.90625 110.550781 C 83.386719 124.21875 58.738281 121.976562 45.15625 105.566406 L 19.644531 74.75 C 6.0625 58.339844 8.464844 33.703125 24.984375 20.03125 C 41.5 6.363281 66.148438 8.605469 79.734375 25.015625 L 105.242188 55.832031 C 118.824219 72.242188 116.421875 96.878906 99.90625 110.550781 Z M 99.90625 110.550781 " fill-opacity="1" fill-rule="nonzero"/></g></g></g></g><g clip-path="url(#b62247dc38)"><g clip-path="url(#b04a7d47c8)"><g clip-path="url(#9f2306d97c)"><g clip-path="url(#19106b20fd)"><path fill="#f93ae7" d="M 75.050781 31.988281 C 77.34375 34.757812 76.941406 38.867188 74.15625 41.175781 C 71.367188 43.480469 67.253906 43.109375 64.960938 40.339844 C 62.671875 37.570312 63.070312 33.457031 65.859375 31.152344 C 68.644531 28.84375 72.757812 29.21875 75.050781 31.988281 Z M 28.246094 62.28125 C 25.460938 64.589844 25.058594 68.699219 27.351562 71.46875 C 29.644531 74.238281 33.757812 74.613281 36.542969 72.304688 C 39.332031 70 39.714844 65.867188 37.441406 63.117188 C 35.164062 60.371094 31.035156 59.976562 28.246094 62.28125 Z M 28.246094 62.28125 " fill-opacity="1" fill-rule="nonzero"/></g></g></g></g><g clip-path="url(#8a4bc9d37a)"><g clip-path="url(#e97a41754c)"><g clip-path="url(#5a175f1d96)"><g clip-path="url(#fb29cb8902)"><path fill="#000000" d="M 39.289062 53.960938 C 35.363281 57.210938 29.730469 56.082031 29.109375 55.949219 C 27.570312 55.625 26.613281 54.097656 26.972656 52.542969 C 27.328125 51.023438 28.84375 50.039062 30.382812 50.367188 C 31.296875 50.5625 34.246094 50.8125 35.71875 49.527344 C 36.65625 48.714844 37.046875 47.234375 36.902344 45.074219 C 36.792969 43.496094 37.972656 42.144531 39.554688 42.027344 C 41.136719 41.910156 42.480469 43.078125 42.589844 44.65625 C 42.917969 49.695312 41.042969 52.441406 39.394531 53.839844 C 39.390625 53.878906 39.328125 53.929688 39.289062 53.960938 Z M 56.414062 39.785156 C 58.050781 38.363281 59.941406 35.640625 59.609375 30.601562 C 59.503906 29.023438 58.136719 27.871094 56.574219 27.972656 C 54.992188 28.089844 53.816406 29.4375 53.921875 31.019531 C 54.070312 33.144531 53.679688 34.660156 52.742188 35.472656 C 51.25 36.773438 48.320312 36.507812 47.402344 36.3125 C 45.867188 35.984375 44.351562 36.929688 43.996094 38.488281 C 43.65625 40.027344 44.613281 41.550781 46.128906 41.894531 C 46.769531 42.046875 52.382812 43.15625 56.308594 39.90625 C 56.332031 39.851562 56.375 39.820312 56.414062 39.785156 Z M 55.070312 55.847656 C 56.707031 54.425781 58.597656 51.703125 58.269531 46.664062 C 58.160156 45.082031 56.796875 43.929688 55.234375 44.03125 C 53.652344 44.148438 52.472656 45.5 52.582031 47.078125 C 52.726562 49.203125 52.335938 50.71875 51.398438 51.53125 C 49.925781 52.816406 46.976562 52.570312 46.0625 52.375 C 44.523438 52.046875 43.007812 52.992188 42.652344 54.546875 C 42.316406 56.085938 43.269531 57.613281 44.789062 57.957031 C 45.425781 58.109375 51.042969 59.21875 54.96875 55.96875 C 54.992188 55.914062 55.03125 55.878906 55.070312 55.847656 Z M 55.070312 55.847656 " fill-opacity="1" fill-rule="nonzero"/></g></g></g></g><g clip-path="url(#1e8221aa42)"><g clip-path="url(#b8fc7cb8c7)"><path fill="#ffffff" d="M 16.070312 16.070312 L 358.929688 16.070312 L 358.929688 358.929688 L 16.070312 358.929688 Z M 16.070312 16.070312 " fill-opacity="1" fill-rule="nonzero"/></g></g><g clip-path="url(#366516923d)"><path fill="#231815" d="M 154.519531 296.921875 L 125.898438 296.921875 C 121.546875 296.921875 117.457031 295.28125 114.367188 292.300781 C 111.183594 289.292969 109.359375 285.042969 109.359375 280.613281 L 109.6875 173.394531 C 106.273438 176.101562 101.914062 177.414062 97.652344 177 C 97.574219 176.992188 97.496094 176.984375 97.421875 176.972656 C 92.964844 176.433594 89.015625 174.269531 86.304688 170.878906 L 68.046875 148.40625 C 62.46875 141.507812 63.40625 131.605469 70.171875 125.839844 L 120.777344 82.730469 C 123.769531 80.144531 127.609375 78.722656 131.601562 78.722656 C 134.042969 78.722656 136.421875 79.238281 138.667969 80.253906 C 138.765625 80.300781 138.863281 80.34375 138.960938 80.390625 L 162.375 91.910156 C 167.945312 94.660156 171.539062 100.386719 171.539062 106.507812 L 171.023438 280.640625 C 170.945312 289.648438 163.542969 296.921875 154.519531 296.921875 Z M 154.519531 296.921875 " fill-opacity="1" fill-rule="nonzero"/></g><path fill="#231815" d="M 98.621094 136.375 C 95.5 136.375 92.421875 134.9375 90.433594 132.226562 C 87.128906 127.710938 88.109375 121.371094 92.625 118.0625 L 124.679688 94.597656 C 129.195312 91.296875 135.539062 92.273438 138.84375 96.789062 C 142.148438 101.308594 141.167969 107.648438 136.652344 110.953125 L 104.597656 134.417969 C 102.792969 135.738281 100.699219 136.375 98.621094 136.375 Z M 98.621094 136.375 " fill-opacity="1" fill-rule="nonzero"/><path fill="#f69aa2" d="M 134.488281 89.484375 C 132.082031 88.394531 129.320312 88.722656 127.382812 90.414062 L 76.742188 133.554688 C 74.199219 135.722656 73.863281 139.484375 75.910156 142.015625 L 94.21875 164.550781 C 95.328125 165.933594 96.929688 166.707031 98.644531 166.914062 C 100.355469 167.082031 102.125 166.488281 103.472656 165.390625 L 119.890625 151.328125 L 119.496094 280.613281 C 119.496094 282.214844 120.167969 283.863281 121.367188 284.96875 C 122.574219 286.15625 124.195312 286.789062 125.898438 286.789062 L 154.519531 286.789062 C 158.023438 286.789062 160.863281 284.015625 160.890625 280.613281 L 161.40625 106.507812 C 161.40625 104.222656 160.03125 102.054688 157.902344 101.003906 Z M 134.488281 89.484375 " fill-opacity="1" fill-rule="nonzero"/><path fill="#ffffff" d="M 98.617188 130.945312 C 97.167969 130.945312 95.738281 130.28125 94.816406 129.019531 C 93.28125 126.921875 93.738281 123.976562 95.835938 122.445312 L 127.886719 98.980469 C 129.984375 97.445312 132.929688 97.902344 134.464844 99.996094 C 136 102.09375 135.542969 105.039062 133.445312 106.574219 L 101.390625 130.039062 C 100.554688 130.652344 99.582031 130.945312 98.617188 130.945312 Z M 98.617188 130.945312 " fill-opacity="1" fill-rule="nonzero"/><g clip-path="url(#1f7a093bfe)"><path fill="#231815" d="M 265.875 296.628906 L 237.253906 296.628906 C 232.902344 296.628906 228.8125 294.988281 225.722656 292.003906 C 222.539062 288.996094 220.71875 284.746094 220.71875 280.316406 L 221.042969 173.097656 C 217.628906 175.804688 213.273438 177.121094 209.007812 176.703125 C 208.929688 176.695312 208.855469 176.6875 208.777344 176.679688 C 204.320312 176.136719 200.375 173.972656 197.660156 170.585938 L 179.402344 148.109375 C 173.824219 141.210938 174.761719 131.308594 181.527344 125.546875 L 232.132812 82.433594 C 235.125 79.847656 238.964844 78.425781 242.957031 78.425781 C 245.398438 78.425781 247.777344 78.941406 250.023438 79.957031 C 250.121094 80.003906 250.21875 80.050781 250.316406 80.097656 L 273.734375 91.617188 C 279.300781 94.363281 282.898438 100.089844 282.898438 106.210938 L 282.382812 280.347656 C 282.304688 289.351562 274.898438 296.628906 265.875 296.628906 Z M 265.875 296.628906 " fill-opacity="1" fill-rule="nonzero"/></g><path fill="#231815" d="M 209.976562 136.078125 C 206.855469 136.078125 203.777344 134.640625 201.789062 131.929688 C 198.484375 127.414062 199.464844 121.074219 203.984375 117.765625 L 236.039062 94.304688 C 240.554688 91 246.894531 91.980469 250.199219 96.496094 C 253.503906 101.011719 252.523438 107.351562 248.007812 110.660156 L 215.953125 134.121094 C 214.152344 135.441406 212.054688 136.078125 209.976562 136.078125 Z M 209.976562 136.078125 " fill-opacity="1" fill-rule="nonzero"/><path fill="#f69aa2" d="M 245.84375 89.191406 C 243.4375 88.101562 240.675781 88.429688 238.738281 90.121094 L 188.097656 133.257812 C 185.554688 135.425781 185.21875 139.1875 187.265625 141.71875 L 205.574219 164.253906 C 206.683594 165.640625 208.285156 166.410156 210 166.617188 C 211.710938 166.789062 213.480469 166.195312 214.828125 165.097656 L 231.246094 151.03125 L 230.851562 280.316406 C 230.851562 281.921875 231.523438 283.566406 232.722656 284.671875 C 233.929688 285.859375 235.550781 286.492188 237.253906 286.492188 L 265.875 286.492188 C 269.378906 286.492188 272.21875 283.722656 272.25 280.316406 L 272.761719 106.210938 C 272.761719 103.925781 271.386719 101.757812 269.257812 100.707031 Z M 245.84375 89.191406 " fill-opacity="1" fill-rule="nonzero"/><path fill="#ffffff" d="M 209.972656 130.652344 C 208.523438 130.652344 207.09375 129.984375 206.171875 128.722656 C 204.636719 126.625 205.09375 123.683594 207.191406 122.148438 L 239.242188 98.683594 C 241.34375 97.148438 244.285156 97.605469 245.820312 99.703125 C 247.355469 101.800781 246.898438 104.742188 244.804688 106.277344 L 212.746094 129.742188 C 211.910156 130.355469 210.9375 130.652344 209.972656 130.652344 Z M 209.972656 130.652344 " fill-opacity="1" fill-rule="nonzero"/><path fill="#e8ed24" d="M 290.738281 269.492188 C 297.980469 256.933594 316.058594 256.933594 323.300781 269.492188 L 345.664062 308.265625 L 368.027344 347.035156 C 375.269531 359.59375 366.214844 375.269531 351.734375 375.269531 L 262.304688 375.269531 C 247.820312 375.269531 238.769531 359.570312 246.011719 347.035156 L 268.375 308.265625 Z M 290.738281 269.492188 " fill-opacity="1" fill-rule="nonzero"/><path fill="#ffffff" d="M 305.65625 330.164062 C 305.65625 338.230469 299.125 344.765625 291.070312 344.765625 C 283.011719 344.765625 276.484375 338.230469 276.484375 330.164062 C 276.484375 322.097656 283.011719 315.566406 291.070312 315.566406 C 299.125 315.566406 305.65625 322.097656 305.65625 330.164062 Z M 322.96875 315.566406 C 314.910156 315.566406 308.382812 322.097656 308.382812 330.164062 C 308.382812 338.230469 314.910156 344.765625 322.96875 344.765625 C 331.027344 344.765625 337.554688 338.230469 337.554688 330.164062 C 337.554688 322.097656 331.027344 315.566406 322.96875 315.566406 Z M 322.96875 315.566406 " fill-opacity="1" fill-rule="nonzero"/><path fill="#e5890e" d="M 349.847656 347.878906 C 349.847656 352.882812 345.792969 356.941406 340.792969 356.941406 C 335.796875 356.941406 331.742188 352.882812 331.742188 347.878906 C 331.742188 342.875 335.796875 338.816406 340.792969 338.816406 C 345.792969 338.816406 349.847656 342.875 349.847656 347.878906 Z M 273.246094 338.816406 C 268.246094 338.816406 264.191406 342.875 264.191406 347.878906 C 264.191406 352.882812 268.246094 356.941406 273.246094 356.941406 C 278.242188 356.941406 282.296875 352.882812 282.296875 347.878906 C 282.296875 342.875 278.242188 338.816406 273.246094 338.816406 Z M 273.246094 338.816406 " fill-opacity="1" fill-rule="nonzero"/><path fill="#000000" d="M 299.941406 330.164062 C 299.941406 335.066406 295.964844 339.074219 291.042969 339.074219 C 286.121094 339.074219 282.144531 335.089844 282.144531 330.164062 C 282.144531 325.238281 286.121094 321.257812 291.042969 321.257812 C 295.964844 321.257812 299.941406 325.265625 299.941406 330.164062 Z M 322.96875 321.28125 C 318.074219 321.28125 314.070312 325.265625 314.070312 330.191406 C 314.070312 335.117188 318.046875 339.097656 322.96875 339.097656 C 327.890625 339.097656 331.867188 335.117188 331.867188 330.191406 C 331.867188 325.265625 327.890625 321.28125 322.96875 321.28125 Z M 308.433594 352.269531 L 317.410156 345.277344 C 318.609375 344.355469 318.8125 342.621094 317.894531 341.421875 C 316.976562 340.222656 315.242188 340.019531 314.042969 340.9375 L 306.75 346.628906 L 299.304688 340.9375 C 298.105469 340.019531 296.371094 340.246094 295.453125 341.445312 C 294.535156 342.648438 294.765625 344.382812 295.964844 345.300781 L 305.066406 352.296875 C 305.554688 352.679688 306.140625 352.855469 306.726562 352.855469 C 307.335938 352.855469 307.925781 352.652344 308.433594 352.269531 Z M 308.433594 352.269531 " fill-opacity="1" fill-rule="nonzero"/><path fill="#000000" d="M 329.445312 311.429688 L 283.265625 311.429688 C 281.761719 311.429688 280.539062 310.203125 280.539062 308.699219 C 280.539062 307.191406 281.761719 305.96875 283.265625 305.96875 L 329.445312 305.96875 C 330.949219 305.96875 332.175781 307.191406 332.175781 308.699219 C 332.175781 310.203125 330.976562 311.429688 329.445312 311.429688 Z M 329.445312 311.429688 " fill-opacity="1" fill-rule="nonzero"/><g clip-path="url(#199e3eb8a6)"><path fill="#26e1ea" d="M 142.554688 51.777344 C 145.28125 54.601562 146.957031 58.441406 146.957031 62.667969 C 146.957031 71.355469 139.894531 78.40625 131.195312 78.40625 C 124.652344 78.40625 119.046875 74.429688 116.671875 68.769531 C 114.195312 74.214844 108.707031 78.023438 102.316406 78.023438 C 93.617188 78.023438 86.554688 70.972656 86.554688 62.285156 C 86.554688 58.160156 88.160156 54.398438 90.753906 51.59375 C 85.183594 49.152344 81.285156 43.605469 81.285156 37.15625 C 81.285156 28.46875 88.34375 21.417969 97.046875 21.417969 C 98.382812 21.417969 99.671875 21.585938 100.894531 21.902344 C 100.742188 21 100.644531 20.082031 100.644531 19.144531 C 100.644531 10.457031 107.703125 3.40625 116.402344 3.40625 C 125.105469 3.40625 132.164062 10.457031 132.164062 19.144531 C 132.164062 20.199219 132.066406 21.21875 131.863281 22.203125 C 133.402344 21.703125 135.042969 21.417969 136.765625 21.417969 C 145.464844 21.417969 152.527344 28.46875 152.527344 37.15625 C 152.511719 43.789062 148.378906 49.46875 142.554688 51.777344 Z M 142.554688 51.777344 " fill-opacity="1" fill-rule="nonzero"/></g><path fill="#ffffff" d="M 116.203125 36.304688 C 116.203125 40.382812 112.890625 43.671875 108.824219 43.671875 C 104.757812 43.671875 101.445312 40.363281 101.445312 36.304688 C 101.445312 32.246094 104.757812 28.9375 108.824219 28.9375 C 112.890625 28.9375 116.203125 32.246094 116.203125 36.304688 Z M 124.96875 28.9375 C 120.886719 28.9375 117.589844 32.246094 117.589844 36.304688 C 117.589844 40.363281 120.90625 43.671875 124.96875 43.671875 C 129.035156 43.671875 132.347656 40.363281 132.347656 36.304688 C 132.347656 32.246094 129.035156 28.9375 124.96875 28.9375 Z M 124.96875 28.9375 " fill-opacity="1" fill-rule="nonzero"/><path fill="#f93ae7" d="M 138.574219 45.242188 C 138.574219 47.765625 136.515625 49.820312 133.988281 49.820312 C 131.460938 49.820312 129.402344 47.765625 129.402344 45.242188 C 129.402344 42.71875 131.460938 40.664062 133.988281 40.664062 C 136.515625 40.664062 138.574219 42.71875 138.574219 45.242188 Z M 99.789062 40.683594 C 97.261719 40.683594 95.203125 42.738281 95.203125 45.261719 C 95.203125 47.78125 97.261719 49.839844 99.789062 49.839844 C 102.316406 49.839844 104.375 47.78125 104.375 45.261719 C 104.375 42.71875 102.332031 40.683594 99.789062 40.683594 Z M 99.789062 40.683594 " fill-opacity="1" fill-rule="nonzero"/><path fill="#000000" d="M 117.273438 52.878906 C 110.449219 52.878906 105.058594 49.1875 102.367188 46.898438 C 101.613281 46.261719 101.53125 45.144531 102.164062 44.390625 C 102.800781 43.640625 103.921875 43.554688 104.675781 44.191406 C 109.308594 48.132812 118.695312 53.398438 129.671875 44.191406 C 130.425781 43.554688 131.546875 43.65625 132.183594 44.40625 C 132.816406 45.160156 132.71875 46.277344 131.964844 46.914062 C 126.695312 51.359375 121.675781 52.878906 117.273438 52.878906 Z M 117.273438 52.878906 " fill-opacity="1" fill-rule="nonzero"/><path fill="#000000" d="M 113.308594 36.304688 C 113.308594 38.777344 111.300781 40.800781 108.808594 40.800781 C 106.332031 40.800781 104.308594 38.792969 104.308594 36.304688 C 104.308594 33.816406 106.316406 31.8125 108.808594 31.8125 C 111.300781 31.8125 113.308594 33.832031 113.308594 36.304688 Z M 124.96875 31.8125 C 122.492188 31.8125 120.46875 33.816406 120.46875 36.304688 C 120.46875 38.792969 122.476562 40.800781 124.96875 40.800781 C 127.445312 40.800781 129.472656 38.792969 129.472656 36.304688 C 129.472656 33.816406 127.445312 31.8125 124.96875 31.8125 Z M 124.96875 31.8125 " fill-opacity="1" fill-rule="nonzero"/></svg>