<svg xmlns="http://www.w3.org/2000/svg" xmlns:xlink="http://www.w3.org/1999/xlink" width="500" zoomAndPan="magnify" viewBox="0 0 375 374.999991" height="500" preserveAspectRatio="xMidYMid meet" version="1.0"><defs><clipPath id="775718a145"><path d="M 243 112 L 364 112 L 364 234 L 243 234 Z M 243 112 " clip-rule="nonzero"/></clipPath><clipPath id="520c1f8783"><path d="M 271.285156 86.414062 L 390.007812 140.589844 L 335.832031 259.3125 L 217.109375 205.136719 Z M 271.285156 86.414062 " clip-rule="nonzero"/></clipPath><clipPath id="174319f7ba"><path d="M 271.285156 86.414062 L 390.007812 140.589844 L 335.832031 259.3125 L 217.109375 205.136719 Z M 271.285156 86.414062 " clip-rule="nonzero"/></clipPath><clipPath id="0de08c4d1b"><path d="M 278 148 L 335 148 L 335 186 L 278 186 Z M 278 148 " clip-rule="nonzero"/></clipPath><clipPath id="ade5bf8bfe"><path d="M 271.285156 86.414062 L 390.007812 140.589844 L 335.832031 259.3125 L 217.109375 205.136719 Z M 271.285156 86.414062 " clip-rule="nonzero"/></clipPath><clipPath id="92885d2f73"><path d="M 271.285156 86.414062 L 390.007812 140.589844 L 335.832031 259.3125 L 217.109375 205.136719 Z M 271.285156 86.414062 " clip-rule="nonzero"/></clipPath><clipPath id="a640006973"><path d="M 264 159 L 337 159 L 337 199 L 264 199 Z M 264 159 " clip-rule="nonzero"/></clipPath><clipPath id="569d74013b"><path d="M 271.285156 86.414062 L 390.007812 140.589844 L 335.832031 259.3125 L 217.109375 205.136719 Z M 271.285156 86.414062 " clip-rule="nonzero"/></clipPath><clipPath id="de728836b0"><path d="M 271.285156 86.414062 L 390.007812 140.589844 L 335.832031 259.3125 L 217.109375 205.136719 Z M 271.285156 86.414062 " clip-rule="nonzero"/></clipPath><clipPath id="143f93ea13"><path d="M 282 152 L 330 152 L 330 181 L 282 181 Z M 282 152 " clip-rule="nonzero"/></clipPath><clipPath id="2f7c057099"><path d="M 271.285156 86.414062 L 390.007812 140.589844 L 335.832031 259.3125 L 217.109375 205.136719 Z M 271.285156 86.414062 " clip-rule="nonzero"/></clipPath><clipPath id="582581276e"><path d="M 271.285156 86.414062 L 390.007812 140.589844 L 335.832031 259.3125 L 217.109375 205.136719 Z M 271.285156 86.414062 " clip-rule="nonzero"/></clipPath><clipPath id="3955508db8"><path d="M 290 167 L 316 167 L 316 185 L 290 185 Z M 290 167 " clip-rule="nonzero"/></clipPath><clipPath id="2246d7c93c"><path d="M 271.285156 86.414062 L 390.007812 140.589844 L 335.832031 259.3125 L 217.109375 205.136719 Z M 271.285156 86.414062 " clip-rule="nonzero"/></clipPath><clipPath id="58222aa1f3"><path d="M 271.285156 86.414062 L 390.007812 140.589844 L 335.832031 259.3125 L 217.109375 205.136719 Z M 271.285156 86.414062 " clip-rule="nonzero"/></clipPath><clipPath id="18b5aebd71"><path d="M 126 9 L 243 9 L 243 136 L 126 136 Z M 126 9 " clip-rule="nonzero"/></clipPath><clipPath id="21a8dbb759"><path d="M 135.398438 0 L 251.585938 19.121094 L 231.488281 141.230469 L 115.304688 122.109375 Z M 135.398438 0 " clip-rule="nonzero"/></clipPath><clipPath id="50e89dea69"><path d="M 135.398438 0 L 251.585938 19.121094 L 231.488281 141.230469 L 115.304688 122.109375 Z M 135.398438 0 " clip-rule="nonzero"/></clipPath><clipPath id="577fb1ef5d"><path d="M 159 48 L 210 48 L 210 78 L 159 78 Z M 159 48 " clip-rule="nonzero"/></clipPath><clipPath id="d35b36deeb"><path d="M 135.398438 0 L 251.585938 19.121094 L 231.488281 141.230469 L 115.304688 122.109375 Z M 135.398438 0 " clip-rule="nonzero"/></clipPath><clipPath id="23d599c7b4"><path d="M 135.398438 0 L 251.585938 19.121094 L 231.488281 141.230469 L 115.304688 122.109375 Z M 135.398438 0 " clip-rule="nonzero"/></clipPath><clipPath id="df96268d7f"><path d="M 146 65 L 218 65 L 218 90 L 146 90 Z M 146 65 " clip-rule="nonzero"/></clipPath><clipPath id="016d7d50ef"><path d="M 135.398438 0 L 251.585938 19.121094 L 231.488281 141.230469 L 115.304688 122.109375 Z M 135.398438 0 " clip-rule="nonzero"/></clipPath><clipPath id="a6ab28fd93"><path d="M 135.398438 0 L 251.585938 19.121094 L 231.488281 141.230469 L 115.304688 122.109375 Z M 135.398438 0 " clip-rule="nonzero"/></clipPath><clipPath id="2778a4a73e"><path d="M 157 71 L 208 71 L 208 91 L 157 91 Z M 157 71 " clip-rule="nonzero"/></clipPath><clipPath id="515df40e43"><path d="M 135.398438 0 L 251.585938 19.121094 L 231.488281 141.230469 L 115.304688 122.109375 Z M 135.398438 0 " clip-rule="nonzero"/></clipPath><clipPath id="e30e1a2105"><path d="M 135.398438 0 L 251.585938 19.121094 L 231.488281 141.230469 L 115.304688 122.109375 Z M 135.398438 0 " clip-rule="nonzero"/></clipPath><clipPath id="9c4b36b017"><path d="M 163 53 L 206 53 L 206 73 L 163 73 Z M 163 53 " clip-rule="nonzero"/></clipPath><clipPath id="998419e6fa"><path d="M 135.398438 0 L 251.585938 19.121094 L 231.488281 141.230469 L 115.304688 122.109375 Z M 135.398438 0 " clip-rule="nonzero"/></clipPath><clipPath id="1992ee644c"><path d="M 135.398438 0 L 251.585938 19.121094 L 231.488281 141.230469 L 115.304688 122.109375 Z M 135.398438 0 " clip-rule="nonzero"/></clipPath><clipPath id="edbe4db32c"><path d="M 246 18 L 318 18 L 318 109 L 246 109 Z M 246 18 " clip-rule="nonzero"/></clipPath><clipPath id="6b363f12da"><path d="M 237.496094 31.289062 L 293.59375 10.007812 L 326.050781 95.558594 L 269.949219 116.839844 Z M 237.496094 31.289062 " clip-rule="nonzero"/></clipPath><clipPath id="b81073048e"><path d="M 237.496094 31.289062 L 293.59375 10.007812 L 326.050781 95.558594 L 269.949219 116.839844 Z M 237.496094 31.289062 " clip-rule="nonzero"/></clipPath><clipPath id="fea530ae0c"><path d="M 254 38 L 300 38 L 300 63 L 254 63 Z M 254 38 " clip-rule="nonzero"/></clipPath><clipPath id="2f5dd2af55"><path d="M 237.496094 31.289062 L 293.59375 10.007812 L 326.050781 95.558594 L 269.949219 116.839844 Z M 237.496094 31.289062 " clip-rule="nonzero"/></clipPath><clipPath id="e935532043"><path d="M 237.496094 31.289062 L 293.59375 10.007812 L 326.050781 95.558594 L 269.949219 116.839844 Z M 237.496094 31.289062 " clip-rule="nonzero"/></clipPath><clipPath id="6825ed6572"><path d="M 258 34 L 289 34 L 289 56 L 258 56 Z M 258 34 " clip-rule="nonzero"/></clipPath><clipPath id="3888ac7fa0"><path d="M 237.496094 31.289062 L 293.59375 10.007812 L 326.050781 95.558594 L 269.949219 116.839844 Z M 237.496094 31.289062 " clip-rule="nonzero"/></clipPath><clipPath id="d1de7e42b3"><path d="M 237.496094 31.289062 L 293.59375 10.007812 L 326.050781 95.558594 L 269.949219 116.839844 Z M 237.496094 31.289062 " clip-rule="nonzero"/></clipPath><clipPath id="995ca04b84"><path d="M 180 288.179688 L 333 288.179688 L 333 368.429688 L 180 368.429688 Z M 180 288.179688 " clip-rule="nonzero"/></clipPath><clipPath id="23cf8f4baf"><path d="M 66 48 L 116 48 L 116 98 L 66 98 Z M 66 48 " clip-rule="nonzero"/></clipPath><clipPath id="54fbced5ad"><path d="M 73.285156 40.050781 L 124.328125 55.21875 L 108.945312 106.980469 L 57.902344 91.8125 Z M 73.285156 40.050781 " clip-rule="nonzero"/></clipPath><clipPath id="edd327945a"><path d="M 73.285156 40.050781 L 124.328125 55.21875 L 108.945312 106.980469 L 57.902344 91.8125 Z M 73.285156 40.050781 " clip-rule="nonzero"/></clipPath><clipPath id="422ca60279"><path d="M 78 59 L 108 59 L 108 79 L 78 79 Z M 78 59 " clip-rule="nonzero"/></clipPath><clipPath id="d05004d6da"><path d="M 73.285156 40.050781 L 124.328125 55.21875 L 108.945312 106.980469 L 57.902344 91.8125 Z M 73.285156 40.050781 " clip-rule="nonzero"/></clipPath><clipPath id="e82df7fd47"><path d="M 73.285156 40.050781 L 124.328125 55.21875 L 108.945312 106.980469 L 57.902344 91.8125 Z M 73.285156 40.050781 " clip-rule="nonzero"/></clipPath><clipPath id="26c11bf7b3"><path d="M 80 62 L 105 62 L 105 76 L 80 76 Z M 80 62 " clip-rule="nonzero"/></clipPath><clipPath id="c65c466a9e"><path d="M 73.285156 40.050781 L 124.328125 55.21875 L 108.945312 106.980469 L 57.902344 91.8125 Z M 73.285156 40.050781 " clip-rule="nonzero"/></clipPath><clipPath id="2e0afa139e"><path d="M 73.285156 40.050781 L 124.328125 55.21875 L 108.945312 106.980469 L 57.902344 91.8125 Z M 73.285156 40.050781 " clip-rule="nonzero"/></clipPath><clipPath id="6331fd0be9"><path d="M 70 68 L 111 68 L 111 87 L 70 87 Z M 70 68 " clip-rule="nonzero"/></clipPath><clipPath id="68c9da9a03"><path d="M 73.285156 40.050781 L 124.328125 55.21875 L 108.945312 106.980469 L 57.902344 91.8125 Z M 73.285156 40.050781 " clip-rule="nonzero"/></clipPath><clipPath id="02c760e71f"><path d="M 73.285156 40.050781 L 124.328125 55.21875 L 108.945312 106.980469 L 57.902344 91.8125 Z M 73.285156 40.050781 " clip-rule="nonzero"/></clipPath><clipPath id="ef76ae5fe4"><path d="M 77 73 L 104 73 L 104 86 L 77 86 Z M 77 73 " clip-rule="nonzero"/></clipPath><clipPath id="906048c79d"><path d="M 73.285156 40.050781 L 124.328125 55.21875 L 108.945312 106.980469 L 57.902344 91.8125 Z M 73.285156 40.050781 " clip-rule="nonzero"/></clipPath><clipPath id="1a8dbf71f7"><path d="M 73.285156 40.050781 L 124.328125 55.21875 L 108.945312 106.980469 L 57.902344 91.8125 Z M 73.285156 40.050781 " clip-rule="nonzero"/></clipPath><clipPath id="26cd65c32b"><path d="M 82 139 L 229 139 L 229 291 L 82 291 Z M 82 139 " clip-rule="nonzero"/></clipPath><clipPath id="6990739184"><path d="M 118.203125 110.164062 L 272.246094 164.96875 L 224.730469 298.519531 L 70.6875 243.714844 Z M 118.203125 110.164062 " clip-rule="nonzero"/></clipPath><clipPath id="90d8cebaad"><path d="M 118.203125 110.164062 L 272.246094 164.96875 L 224.730469 298.519531 L 70.6875 243.714844 Z M 118.203125 110.164062 " clip-rule="nonzero"/></clipPath><clipPath id="99d2bfc3e4"><path d="M 130 196 L 202 196 L 202 245 L 130 245 Z M 130 196 " clip-rule="nonzero"/></clipPath><clipPath id="a2d57cafbb"><path d="M 118.203125 110.164062 L 272.246094 164.96875 L 224.730469 298.519531 L 70.6875 243.714844 Z M 118.203125 110.164062 " clip-rule="nonzero"/></clipPath><clipPath id="22f01265f3"><path d="M 118.203125 110.164062 L 272.246094 164.96875 L 224.730469 298.519531 L 70.6875 243.714844 Z M 118.203125 110.164062 " clip-rule="nonzero"/></clipPath><clipPath id="362e05fc50"><path d="M 109 215 L 208 215 L 208 265 L 109 265 Z M 109 215 " clip-rule="nonzero"/></clipPath><clipPath id="2fd6912270"><path d="M 118.203125 110.164062 L 272.246094 164.96875 L 224.730469 298.519531 L 70.6875 243.714844 Z M 118.203125 110.164062 " clip-rule="nonzero"/></clipPath><clipPath id="646513e1be"><path d="M 118.203125 110.164062 L 272.246094 164.96875 L 224.730469 298.519531 L 70.6875 243.714844 Z M 118.203125 110.164062 " clip-rule="nonzero"/></clipPath><clipPath id="aca1b3ff5e"><path d="M 137 203 L 195 203 L 195 246 L 137 246 Z M 137 203 " clip-rule="nonzero"/></clipPath><clipPath id="3e3c6989ff"><path d="M 118.203125 110.164062 L 272.246094 164.96875 L 224.730469 298.519531 L 70.6875 243.714844 Z M 118.203125 110.164062 " clip-rule="nonzero"/></clipPath><clipPath id="ad68745db7"><path d="M 118.203125 110.164062 L 272.246094 164.96875 L 224.730469 298.519531 L 70.6875 243.714844 Z M 118.203125 110.164062 " clip-rule="nonzero"/></clipPath><clipPath id="fa8d201360"><path d="M 144 183 L 203 183 L 203 209 L 144 209 Z M 144 183 " clip-rule="nonzero"/></clipPath><clipPath id="e7a28c57c4"><path d="M 118.203125 110.164062 L 272.246094 164.96875 L 224.730469 298.519531 L 70.6875 243.714844 Z M 118.203125 110.164062 " clip-rule="nonzero"/></clipPath><clipPath id="5224d04a50"><path d="M 118.203125 110.164062 L 272.246094 164.96875 L 224.730469 298.519531 L 70.6875 243.714844 Z M 118.203125 110.164062 " clip-rule="nonzero"/></clipPath><clipPath id="28b81056c3"><path d="M 237 227 L 290 227 L 290 280 L 237 280 Z M 237 227 " clip-rule="nonzero"/></clipPath><clipPath id="c9b696c8dc"><path d="M 229.003906 232.601562 L 284.417969 219.257812 L 297.761719 274.671875 L 242.347656 288.019531 Z M 229.003906 232.601562 " clip-rule="nonzero"/></clipPath><clipPath id="f2b9a8d042"><path d="M 229.003906 232.601562 L 284.417969 219.257812 L 297.761719 274.671875 L 242.347656 288.019531 Z M 229.003906 232.601562 " clip-rule="nonzero"/></clipPath><clipPath id="00566b7603"><path d="M 246 239 L 278 239 L 278 259 L 246 259 Z M 246 239 " clip-rule="nonzero"/></clipPath><clipPath id="b9dac0de15"><path d="M 229.003906 232.601562 L 284.417969 219.257812 L 297.761719 274.671875 L 242.347656 288.019531 Z M 229.003906 232.601562 " clip-rule="nonzero"/></clipPath><clipPath id="417b0a1037"><path d="M 229.003906 232.601562 L 284.417969 219.257812 L 297.761719 274.671875 L 242.347656 288.019531 Z M 229.003906 232.601562 " clip-rule="nonzero"/></clipPath><clipPath id="9cc70d86ab"><path d="M 249 242 L 275 242 L 275 256 L 249 256 Z M 249 242 " clip-rule="nonzero"/></clipPath><clipPath id="cb8375cf7f"><path d="M 229.003906 232.601562 L 284.417969 219.257812 L 297.761719 274.671875 L 242.347656 288.019531 Z M 229.003906 232.601562 " clip-rule="nonzero"/></clipPath><clipPath id="48bd446d28"><path d="M 229.003906 232.601562 L 284.417969 219.257812 L 297.761719 274.671875 L 242.347656 288.019531 Z M 229.003906 232.601562 " clip-rule="nonzero"/></clipPath><clipPath id="e41b27464d"><path d="M 242 249 L 287 249 L 287 267 L 242 267 Z M 242 249 " clip-rule="nonzero"/></clipPath><clipPath id="a1b6b76422"><path d="M 229.003906 232.601562 L 284.417969 219.257812 L 297.761719 274.671875 L 242.347656 288.019531 Z M 229.003906 232.601562 " clip-rule="nonzero"/></clipPath><clipPath id="3ced1f0736"><path d="M 229.003906 232.601562 L 284.417969 219.257812 L 297.761719 274.671875 L 242.347656 288.019531 Z M 229.003906 232.601562 " clip-rule="nonzero"/></clipPath><clipPath id="241b9c0178"><path d="M 251 254 L 280 254 L 280 267 L 251 267 Z M 251 254 " clip-rule="nonzero"/></clipPath><clipPath id="b22bc905ba"><path d="M 229.003906 232.601562 L 284.417969 219.257812 L 297.761719 274.671875 L 242.347656 288.019531 Z M 229.003906 232.601562 " clip-rule="nonzero"/></clipPath><clipPath id="03983ed42f"><path d="M 229.003906 232.601562 L 284.417969 219.257812 L 297.761719 274.671875 L 242.347656 288.019531 Z M 229.003906 232.601562 " clip-rule="nonzero"/></clipPath><clipPath id="19853d9724"><path d="M 6 126 L 100 126 L 100 220 L 6 220 Z M 6 126 " clip-rule="nonzero"/></clipPath><clipPath id="ac697daa25"><path d="M -19.082031 150.476562 L 75.179688 100.914062 L 124.742188 195.179688 L 30.476562 244.742188 Z M -19.082031 150.476562 " clip-rule="nonzero"/></clipPath><clipPath id="319870e0f2"><path d="M -19.082031 150.476562 L 75.179688 100.914062 L 124.742188 195.179688 L 30.476562 244.742188 Z M -19.082031 150.476562 " clip-rule="nonzero"/></clipPath><clipPath id="b4a9d451b2"><path d="M 28 151 L 73 151 L 73 185 L 28 185 Z M 28 151 " clip-rule="nonzero"/></clipPath><clipPath id="656801915b"><path d="M -19.082031 150.476562 L 75.179688 100.914062 L 124.742188 195.179688 L 30.476562 244.742188 Z M -19.082031 150.476562 " clip-rule="nonzero"/></clipPath><clipPath id="edc37a0732"><path d="M -19.082031 150.476562 L 75.179688 100.914062 L 124.742188 195.179688 L 30.476562 244.742188 Z M -19.082031 150.476562 " clip-rule="nonzero"/></clipPath><clipPath id="9389bcd3eb"><path d="M 26 159 L 84 159 L 84 196 L 26 196 Z M 26 159 " clip-rule="nonzero"/></clipPath><clipPath id="b7566b0628"><path d="M -19.082031 150.476562 L 75.179688 100.914062 L 124.742188 195.179688 L 30.476562 244.742188 Z M -19.082031 150.476562 " clip-rule="nonzero"/></clipPath><clipPath id="aa992c875c"><path d="M -19.082031 150.476562 L 75.179688 100.914062 L 124.742188 195.179688 L 30.476562 244.742188 Z M -19.082031 150.476562 " clip-rule="nonzero"/></clipPath><clipPath id="bc4f37d37a"><path d="M 31 155 L 69 155 L 69 181 L 31 181 Z M 31 155 " clip-rule="nonzero"/></clipPath><clipPath id="90883f1459"><path d="M -19.082031 150.476562 L 75.179688 100.914062 L 124.742188 195.179688 L 30.476562 244.742188 Z M -19.082031 150.476562 " clip-rule="nonzero"/></clipPath><clipPath id="6e0fcb23d0"><path d="M -19.082031 150.476562 L 75.179688 100.914062 L 124.742188 195.179688 L 30.476562 244.742188 Z M -19.082031 150.476562 " clip-rule="nonzero"/></clipPath><clipPath id="3bee9e9eec"><path d="M 43 168 L 65 168 L 65 182 L 43 182 Z M 43 168 " clip-rule="nonzero"/></clipPath><clipPath id="a28f4ecbc3"><path d="M -19.082031 150.476562 L 75.179688 100.914062 L 124.742188 195.179688 L 30.476562 244.742188 Z M -19.082031 150.476562 " clip-rule="nonzero"/></clipPath><clipPath id="9bf8799640"><path d="M -19.082031 150.476562 L 75.179688 100.914062 L 124.742188 195.179688 L 30.476562 244.742188 Z M -19.082031 150.476562 " clip-rule="nonzero"/></clipPath><clipPath id="27fb4fb888"><path d="M 102 278 L 174 278 L 174 355 L 102 355 Z M 102 278 " clip-rule="nonzero"/></clipPath><clipPath id="acfdc6d493"><path d="M 92.96875 290.324219 L 159.71875 267.632812 L 183.617188 337.929688 L 116.871094 360.621094 Z M 92.96875 290.324219 " clip-rule="nonzero"/></clipPath><clipPath id="2f201a3d9a"><path d="M 92.96875 290.324219 L 159.71875 267.632812 L 183.617188 337.929688 L 116.871094 360.621094 Z M 92.96875 290.324219 " clip-rule="nonzero"/></clipPath><clipPath id="443f84677e"><path d="M 121 299 L 152 299 L 152 320 L 121 320 Z M 121 299 " clip-rule="nonzero"/></clipPath><clipPath id="233f4d2311"><path d="M 92.96875 290.324219 L 159.71875 267.632812 L 183.617188 337.929688 L 116.871094 360.621094 Z M 92.96875 290.324219 " clip-rule="nonzero"/></clipPath><clipPath id="76b3a8d214"><path d="M 92.96875 290.324219 L 159.71875 267.632812 L 183.617188 337.929688 L 116.871094 360.621094 Z M 92.96875 290.324219 " clip-rule="nonzero"/></clipPath><clipPath id="e43facb9e9"><path d="M 119 308 L 160 308 L 160 329 L 119 329 Z M 119 308 " clip-rule="nonzero"/></clipPath><clipPath id="af537c9263"><path d="M 92.96875 290.324219 L 159.71875 267.632812 L 183.617188 337.929688 L 116.871094 360.621094 Z M 92.96875 290.324219 " clip-rule="nonzero"/></clipPath><clipPath id="8510dddc89"><path d="M 92.96875 290.324219 L 159.71875 267.632812 L 183.617188 337.929688 L 116.871094 360.621094 Z M 92.96875 290.324219 " clip-rule="nonzero"/></clipPath><clipPath id="d6a1f73bd5"><path d="M 125 312 L 155 312 L 155 327 L 125 327 Z M 125 312 " clip-rule="nonzero"/></clipPath><clipPath id="8f72939db9"><path d="M 92.96875 290.324219 L 159.71875 267.632812 L 183.617188 337.929688 L 116.871094 360.621094 Z M 92.96875 290.324219 " clip-rule="nonzero"/></clipPath><clipPath id="fee5aec700"><path d="M 92.96875 290.324219 L 159.71875 267.632812 L 183.617188 337.929688 L 116.871094 360.621094 Z M 92.96875 290.324219 " clip-rule="nonzero"/></clipPath><clipPath id="9c2da695c1"><path d="M 124 302 L 149 302 L 149 317 L 124 317 Z M 124 302 " clip-rule="nonzero"/></clipPath><clipPath id="0ab6011f98"><path d="M 92.96875 290.324219 L 159.71875 267.632812 L 183.617188 337.929688 L 116.871094 360.621094 Z M 92.96875 290.324219 " clip-rule="nonzero"/></clipPath><clipPath id="f1ca82c471"><path d="M 92.96875 290.324219 L 159.71875 267.632812 L 183.617188 337.929688 L 116.871094 360.621094 Z M 92.96875 290.324219 " clip-rule="nonzero"/></clipPath><clipPath id="b90e3781cd"><path d="M 14 253 L 101 253 L 101 367 L 14 367 Z M 14 253 " clip-rule="nonzero"/></clipPath><clipPath id="3b2f96bdc8"><path d="M 36.699219 244.273438 L 109.597656 264.859375 L 78.414062 375.292969 L 5.515625 354.707031 Z M 36.699219 244.273438 " clip-rule="nonzero"/></clipPath><clipPath id="f149910ca0"><path d="M 36.699219 244.273438 L 109.597656 264.859375 L 78.414062 375.292969 L 5.515625 354.707031 Z M 36.699219 244.273438 " clip-rule="nonzero"/></clipPath><clipPath id="5451fc302e"><path d="M 33 280 L 92 280 L 92 306 L 33 306 Z M 33 280 " clip-rule="nonzero"/></clipPath><clipPath id="0b52fb99c5"><path d="M 36.699219 244.273438 L 109.597656 264.859375 L 78.414062 375.292969 L 5.515625 354.707031 Z M 36.699219 244.273438 " clip-rule="nonzero"/></clipPath><clipPath id="3035995728"><path d="M 36.699219 244.273438 L 109.597656 264.859375 L 78.414062 375.292969 L 5.515625 354.707031 Z M 36.699219 244.273438 " clip-rule="nonzero"/></clipPath><clipPath id="804e4e86ff"><path d="M 46 274 L 85 274 L 85 299 L 46 299 Z M 46 274 " clip-rule="nonzero"/></clipPath><clipPath id="1086f68b63"><path d="M 36.699219 244.273438 L 109.597656 264.859375 L 78.414062 375.292969 L 5.515625 354.707031 Z M 36.699219 244.273438 " clip-rule="nonzero"/></clipPath><clipPath id="8c258c8b23"><path d="M 36.699219 244.273438 L 109.597656 264.859375 L 78.414062 375.292969 L 5.515625 354.707031 Z M 36.699219 244.273438 " clip-rule="nonzero"/></clipPath></defs><g clip-path="url(#775718a145)"><g clip-path="url(#520c1f8783)"><g clip-path="url(#174319f7ba)"><path fill="#05a552" d="M 359.632812 200.828125 L 284.503906 232.5625 C 281.023438 234.035156 277.003906 232.390625 275.53125 228.910156 L 243.796875 153.777344 C 242.324219 150.296875 243.96875 146.277344 247.449219 144.804688 L 322.578125 113.070312 C 326.0625 111.597656 330.078125 113.242188 331.554688 116.722656 L 363.285156 191.855469 C 364.761719 195.335938 363.117188 199.355469 359.632812 200.828125 Z M 359.632812 200.828125 " fill-opacity="1" fill-rule="nonzero"/></g></g></g><g clip-path="url(#0de08c4d1b)"><g clip-path="url(#ade5bf8bfe)"><g clip-path="url(#92885d2f73)"><path fill="#ffffff" d="M 299.925781 164.171875 C 297.347656 169.816406 290.703125 172.277344 285.082031 169.714844 C 279.464844 167.148438 276.980469 160.492188 279.542969 154.871094 C 282.105469 149.253906 288.765625 146.769531 294.382812 149.332031 C 300.003906 151.894531 302.5 158.527344 299.925781 164.171875 Z M 327.546875 163.769531 C 321.902344 161.191406 315.265625 163.691406 312.703125 169.308594 C 310.140625 174.925781 312.625 181.585938 318.246094 184.152344 C 323.863281 186.714844 330.523438 184.226562 333.085938 178.609375 C 335.648438 172.992188 333.1875 166.34375 327.546875 163.769531 Z M 327.546875 163.769531 " fill-opacity="1" fill-rule="nonzero"/></g></g></g><g clip-path="url(#a640006973)"><g clip-path="url(#569d74013b)"><g clip-path="url(#de728836b0)"><path fill="#05a552" d="M 336.058594 194.929688 C 334.460938 198.433594 330.347656 199.964844 326.847656 198.367188 C 323.347656 196.769531 321.8125 192.660156 323.410156 189.160156 C 325.007812 185.65625 329.117188 184.125 332.617188 185.722656 C 336.105469 187.28125 337.65625 191.429688 336.058594 194.929688 Z M 274.515625 159.871094 C 271.011719 158.273438 266.902344 159.808594 265.304688 163.308594 C 263.707031 166.8125 265.242188 170.921875 268.742188 172.519531 C 272.246094 174.117188 276.355469 172.582031 277.953125 169.082031 C 279.550781 165.578125 278.015625 161.46875 274.515625 159.871094 Z M 274.515625 159.871094 " fill-opacity="1" fill-rule="nonzero"/></g></g></g><g clip-path="url(#143f93ea13)"><g clip-path="url(#2f7c057099)"><g clip-path="url(#582581276e)"><path fill="#2e2e2e" d="M 295.953125 162.359375 C 294.390625 165.785156 290.320312 167.304688 286.894531 165.742188 C 283.472656 164.179688 281.953125 160.109375 283.515625 156.683594 C 285.078125 153.261719 289.148438 151.742188 292.570312 153.304688 C 295.996094 154.867188 297.527344 158.910156 295.953125 162.359375 Z M 325.734375 167.742188 C 322.308594 166.179688 318.238281 167.699219 316.675781 171.121094 C 315.113281 174.546875 316.632812 178.617188 320.058594 180.179688 C 323.480469 181.742188 327.550781 180.222656 329.113281 176.796875 C 330.675781 173.375 329.15625 169.300781 325.734375 167.742188 Z M 325.734375 167.742188 " fill-opacity="1" fill-rule="nonzero"/></g></g></g><g clip-path="url(#3955508db8)"><g clip-path="url(#2246d7c93c)"><g clip-path="url(#58222aa1f3)"><path fill="#2e2e2e" d="M 299.4375 182.671875 C 299.203125 182.566406 298.96875 182.457031 298.746094 182.324219 C 292.261719 178.957031 290.347656 171.738281 290.261719 171.445312 C 289.886719 169.980469 290.773438 168.457031 292.238281 168.082031 C 293.703125 167.710938 295.222656 168.59375 295.597656 170.058594 C 295.640625 170.171875 297.042969 175.265625 301.308594 177.464844 C 304.125 178.90625 307.65625 178.847656 311.882812 177.269531 C 313.328125 176.730469 314.894531 177.445312 315.433594 178.890625 C 315.976562 180.335938 315.261719 181.90625 313.8125 182.445312 C 308.398438 184.488281 303.566406 184.558594 299.4375 182.671875 Z M 299.4375 182.671875 " fill-opacity="1" fill-rule="nonzero"/></g></g></g><g clip-path="url(#18b5aebd71)"><g clip-path="url(#21a8dbb759)"><g clip-path="url(#50e89dea69)"><path fill="#f69aa2" d="M 222.167969 95.238281 C 225.847656 100.570312 227.539062 107.28125 226.40625 114.167969 C 224.074219 128.328125 210.695312 137.925781 196.535156 135.597656 C 185.890625 133.84375 177.835938 125.863281 175.488281 115.996094 C 170 124.210938 160.046875 128.949219 149.644531 127.234375 C 135.488281 124.90625 125.890625 111.523438 128.21875 97.367188 C 129.324219 90.640625 132.949219 84.945312 137.921875 81.066406 C 129.507812 75.597656 124.652344 65.515625 126.382812 55.003906 C 128.710938 40.847656 142.09375 31.25 156.25 33.578125 C 158.429688 33.9375 160.480469 34.554688 162.382812 35.398438 C 162.378906 33.886719 162.464844 32.363281 162.714844 30.839844 C 165.042969 16.679688 178.425781 7.082031 192.582031 9.410156 C 206.742188 11.742188 216.339844 25.121094 214.011719 39.28125 C 213.726562 40.996094 213.292969 42.628906 212.699219 44.183594 C 215.339844 43.777344 218.082031 43.753906 220.886719 44.214844 C 235.046875 46.546875 244.644531 59.925781 242.316406 74.085938 C 240.507812 84.890625 232.261719 93.039062 222.167969 95.238281 Z M 222.167969 95.238281 " fill-opacity="1" fill-rule="nonzero"/></g></g></g><g clip-path="url(#577fb1ef5d)"><g clip-path="url(#d35b36deeb)"><g clip-path="url(#23d599c7b4)"><path fill="#f5f5ef" d="M 183.433594 62.96875 C 182.339844 69.613281 176.066406 74.089844 169.449219 73 C 162.835938 71.910156 158.332031 65.632812 159.417969 59.015625 C 160.507812 52.398438 166.785156 47.894531 173.402344 48.984375 C 180.019531 50.074219 184.523438 56.351562 183.433594 62.96875 Z M 199.675781 53.308594 C 193.035156 52.214844 186.78125 56.722656 185.695312 63.339844 C 184.605469 69.957031 189.109375 76.234375 195.722656 77.324219 C 202.339844 78.414062 208.617188 73.910156 209.707031 67.292969 C 210.796875 60.675781 206.292969 54.398438 199.675781 53.308594 Z M 199.675781 53.308594 " fill-opacity="1" fill-rule="nonzero"/></g></g></g><g clip-path="url(#df96268d7f)"><g clip-path="url(#016d7d50ef)"><g clip-path="url(#a6ab28fd93)"><path fill="#ff7f1d" d="M 217.4375 83.527344 C 216.761719 87.636719 212.863281 90.433594 208.75 89.757812 C 204.640625 89.082031 201.84375 85.183594 202.519531 81.070312 C 203.195312 76.960938 207.09375 74.160156 211.207031 74.839844 C 215.316406 75.515625 218.117188 79.414062 217.4375 83.527344 Z M 155.550781 65.707031 C 151.4375 65.03125 147.539062 67.828125 146.863281 71.9375 C 146.183594 76.050781 148.984375 79.949219 153.09375 80.625 C 157.207031 81.304688 161.105469 78.503906 161.78125 74.394531 C 162.464844 70.253906 159.6875 66.386719 155.550781 65.707031 Z M 155.550781 65.707031 " fill-opacity="1" fill-rule="nonzero"/></g></g></g><g clip-path="url(#2778a4a73e)"><g clip-path="url(#515df40e43)"><g clip-path="url(#e30e1a2105)"><path fill="#2e2e2e" d="M 180.730469 90.265625 C 169.621094 88.4375 161.84375 80.976562 158.074219 76.523438 C 157.019531 75.289062 157.183594 73.441406 158.421875 72.386719 C 159.65625 71.332031 161.503906 71.496094 162.558594 72.730469 C 169.042969 80.398438 182.90625 91.488281 203.238281 79.425781 C 204.632812 78.59375 206.429688 79.058594 207.261719 80.453125 C 208.09375 81.847656 207.632812 83.644531 206.234375 84.480469 C 196.46875 90.308594 187.890625 91.441406 180.730469 90.265625 Z M 180.730469 90.265625 " fill-opacity="1" fill-rule="nonzero"/></g></g></g><g clip-path="url(#9c4b36b017)"><g clip-path="url(#998419e6fa)"><g clip-path="url(#1992ee644c)"><path fill="#2e2e2e" d="M 178.722656 62.191406 C 178.058594 66.222656 174.25 68.980469 170.195312 68.3125 C 166.164062 67.648438 163.40625 63.839844 164.074219 59.78125 C 164.742188 55.726562 168.546875 52.996094 172.605469 53.664062 C 176.660156 54.332031 179.386719 58.164062 178.722656 62.191406 Z M 198.90625 57.992188 C 194.875 57.328125 191.042969 60.054688 190.375 64.109375 C 189.707031 68.167969 192.4375 71.972656 196.496094 72.640625 C 200.523438 73.304688 204.355469 70.578125 205.023438 66.523438 C 205.691406 62.464844 202.9375 58.65625 198.90625 57.992188 Z M 198.90625 57.992188 " fill-opacity="1" fill-rule="nonzero"/></g></g></g><g clip-path="url(#edbe4db32c)"><g clip-path="url(#6b363f12da)"><g clip-path="url(#b81073048e)"><path fill="#ffb72c" d="M 298.167969 106.195312 C 282.664062 112.074219 265.152344 104.195312 259.273438 88.691406 L 248.226562 59.578125 C 242.347656 44.078125 250.226562 26.566406 265.726562 20.683594 C 281.230469 14.804688 298.742188 22.683594 304.621094 38.1875 L 315.667969 67.300781 C 321.546875 82.800781 313.667969 100.3125 298.167969 106.195312 Z M 298.167969 106.195312 " fill-opacity="1" fill-rule="nonzero"/></g></g></g><g clip-path="url(#fea530ae0c)"><g clip-path="url(#2f5dd2af55)"><g clip-path="url(#e935532043)"><path fill="#ff7f1d" d="M 299.457031 42.132812 C 300.449219 44.746094 299.136719 47.671875 296.519531 48.664062 C 293.90625 49.65625 290.980469 48.339844 289.988281 45.722656 C 288.996094 43.109375 290.3125 40.1875 292.929688 39.195312 C 295.542969 38.203125 298.464844 39.515625 299.457031 42.132812 Z M 257.628906 52.585938 C 255.011719 53.578125 253.699219 56.5 254.691406 59.113281 C 255.683594 61.730469 258.605469 63.046875 261.222656 62.054688 C 263.835938 61.0625 265.144531 58.121094 264.160156 55.523438 C 263.175781 52.925781 260.246094 51.59375 257.628906 52.585938 Z M 257.628906 52.585938 " fill-opacity="1" fill-rule="nonzero"/></g></g></g><g clip-path="url(#6825ed6572)"><g clip-path="url(#3888ac7fa0)"><g clip-path="url(#d1de7e42b3)"><path fill="#2e2e2e" d="M 267.789062 49.253906 C 264.101562 50.652344 260.257812 48.398438 259.832031 48.144531 C 258.785156 47.515625 258.464844 46.152344 259.113281 45.097656 C 259.75 44.070312 261.105469 43.730469 262.152344 44.359375 C 262.773438 44.734375 264.875 45.664062 266.273438 45.089844 C 267.164062 44.730469 267.8125 43.742188 268.246094 42.113281 C 268.558594 40.925781 269.757812 40.230469 270.945312 40.542969 C 272.136719 40.855469 272.832031 42.054688 272.519531 43.246094 C 271.507812 47.035156 269.453125 48.578125 267.894531 49.191406 C 267.882812 49.21875 267.824219 49.242188 267.789062 49.253906 Z M 283.863281 43.15625 C 285.414062 42.523438 287.476562 41 288.484375 37.210938 C 288.796875 36.019531 288.085938 34.828125 286.914062 34.507812 C 285.726562 34.195312 284.527344 34.890625 284.210938 36.078125 C 283.792969 37.679688 283.128906 38.695312 282.242188 39.054688 C 280.824219 39.636719 278.742188 38.699219 278.121094 38.324219 C 277.074219 37.695312 275.730469 38.007812 275.082031 39.0625 C 274.449219 40.109375 274.773438 41.472656 275.800781 42.109375 C 276.230469 42.382812 280.070312 44.617188 283.753906 43.21875 C 283.785156 43.1875 283.824219 43.171875 283.863281 43.15625 Z M 278.890625 54.628906 C 280.441406 54 282.503906 52.472656 283.511719 48.683594 C 283.824219 47.496094 283.113281 46.300781 281.941406 45.980469 C 280.753906 45.667969 279.554688 46.363281 279.238281 47.550781 C 278.820312 49.152344 278.15625 50.167969 277.269531 50.527344 C 275.871094 51.101562 273.769531 50.171875 273.148438 49.796875 C 272.101562 49.167969 270.757812 49.484375 270.109375 50.535156 C 269.480469 51.582031 269.800781 52.945312 270.828125 53.582031 C 271.257812 53.855469 275.097656 56.089844 278.78125 54.691406 C 278.8125 54.660156 278.851562 54.644531 278.890625 54.628906 Z M 278.890625 54.628906 " fill-opacity="1" fill-rule="nonzero"/></g></g></g><g clip-path="url(#995ca04b84)"><path fill="#ff9441" d="M 204.203125 368.699219 C 187.421875 368.699219 176.113281 351.4375 182.917969 336.105469 C 195.40625 307.863281 223.675781 288.179688 256.542969 288.179688 C 289.410156 288.179688 317.679688 307.863281 330.199219 336.105469 C 337 351.4375 325.691406 368.699219 308.910156 368.699219 Z M 204.203125 368.699219 " fill-opacity="1" fill-rule="nonzero"/></g><path fill="#ffffff" d="M 255.332031 320.351562 C 255.332031 327.519531 249.527344 333.324219 242.363281 333.324219 C 235.195312 333.324219 229.390625 327.519531 229.390625 320.351562 C 229.390625 313.1875 235.195312 307.382812 242.363281 307.382812 C 249.527344 307.382812 255.332031 313.1875 255.332031 320.351562 Z M 270.753906 307.382812 C 263.585938 307.382812 257.78125 313.1875 257.78125 320.351562 C 257.78125 327.519531 263.585938 333.324219 270.753906 333.324219 C 277.917969 333.324219 283.726562 327.519531 283.726562 320.351562 C 283.726562 313.1875 277.917969 307.382812 270.753906 307.382812 Z M 270.753906 307.382812 " fill-opacity="1" fill-rule="nonzero"/><path fill="#2e2e2e" d="M 256.332031 350.015625 C 250.011719 350.015625 244.902344 344.875 244.902344 338.585938 C 244.902344 332.265625 250.042969 327.15625 256.332031 327.15625 C 262.648438 327.15625 267.761719 332.296875 267.761719 338.585938 C 267.761719 344.875 262.648438 350.015625 256.332031 350.015625 Z M 256.332031 333.382812 C 253.457031 333.382812 251.128906 335.710938 251.128906 338.585938 C 251.128906 341.457031 253.457031 343.785156 256.332031 343.785156 C 259.203125 343.785156 261.53125 341.457031 261.53125 338.585938 C 261.53125 335.710938 259.203125 333.382812 256.332031 333.382812 Z M 256.332031 333.382812 " fill-opacity="1" fill-rule="nonzero"/><path fill="#ff9441" d="M 294.699219 336.105469 C 294.699219 340.550781 291.101562 344.179688 286.628906 344.179688 C 282.183594 344.179688 278.554688 340.582031 278.554688 336.105469 C 278.554688 331.628906 282.152344 328.03125 286.628906 328.03125 C 291.074219 328.03125 294.699219 331.660156 294.699219 336.105469 Z M 226.488281 328.03125 C 222.042969 328.03125 218.414062 331.628906 218.414062 336.105469 C 218.414062 340.582031 222.011719 344.179688 226.488281 344.179688 C 230.960938 344.179688 234.558594 340.582031 234.558594 336.105469 C 234.558594 331.628906 230.933594 328.03125 226.488281 328.03125 Z M 226.488281 328.03125 " fill-opacity="1" fill-rule="nonzero"/><path fill="#2e2e2e" d="M 250.253906 320.351562 C 250.253906 324.738281 246.714844 328.273438 242.332031 328.273438 C 237.945312 328.273438 234.410156 324.738281 234.410156 320.351562 C 234.410156 315.96875 237.945312 312.429688 242.332031 312.429688 C 246.714844 312.429688 250.253906 315.96875 250.253906 320.351562 Z M 270.753906 312.429688 C 266.371094 312.429688 262.832031 315.96875 262.832031 320.351562 C 262.832031 324.738281 266.371094 328.273438 270.753906 328.273438 C 275.136719 328.273438 278.675781 324.738281 278.675781 320.351562 C 278.675781 315.96875 275.136719 312.429688 270.753906 312.429688 Z M 270.753906 312.429688 " fill-opacity="1" fill-rule="nonzero"/><g clip-path="url(#23cf8f4baf)"><g clip-path="url(#54fbced5ad)"><g clip-path="url(#edd327945a)"><path fill="#84caed" d="M 112.796875 61.769531 C 119.21875 73.640625 114.808594 88.480469 102.949219 94.914062 C 91.085938 101.347656 76.273438 96.945312 69.851562 85.078125 C 63.429688 73.210938 67.839844 58.371094 79.703125 51.933594 C 91.5625 45.5 106.378906 49.894531 112.796875 61.769531 Z M 112.796875 61.769531 " fill-opacity="1" fill-rule="nonzero"/></g></g></g><g clip-path="url(#422ca60279)"><g clip-path="url(#d05004d6da)"><g clip-path="url(#e82df7fd47)"><path fill="#ffffff" d="M 91.9375 69.015625 C 90.824219 72.757812 86.894531 74.886719 83.148438 73.777344 C 79.40625 72.664062 77.277344 68.730469 78.390625 64.988281 C 79.5 61.246094 83.433594 59.113281 87.175781 60.226562 C 90.917969 61.339844 93.050781 65.269531 91.9375 69.015625 Z M 102 64.632812 C 98.253906 63.519531 94.324219 65.648438 93.210938 69.390625 C 92.097656 73.136719 94.230469 77.066406 97.972656 78.179688 C 101.714844 79.292969 105.648438 77.160156 106.761719 73.417969 C 107.871094 69.675781 105.742188 65.742188 102 64.632812 Z M 102 64.632812 " fill-opacity="1" fill-rule="nonzero"/></g></g></g><g clip-path="url(#26c11bf7b3)"><g clip-path="url(#c65c466a9e)"><g clip-path="url(#2e0afa139e)"><path fill="#2e2e2e" d="M 89.300781 68.230469 C 88.621094 70.511719 86.21875 71.804688 83.945312 71.128906 C 81.671875 70.453125 80.371094 68.050781 81.046875 65.777344 C 81.722656 63.503906 84.125 62.203125 86.398438 62.878906 C 88.671875 63.550781 89.976562 65.945312 89.300781 68.230469 Z M 101.210938 67.277344 C 98.929688 66.601562 96.535156 67.90625 95.859375 70.179688 C 95.183594 72.453125 96.484375 74.855469 98.757812 75.53125 C 101.03125 76.207031 103.4375 74.90625 104.113281 72.632812 C 104.789062 70.359375 103.496094 67.957031 101.210938 67.277344 Z M 101.210938 67.277344 " fill-opacity="1" fill-rule="nonzero"/></g></g></g><g clip-path="url(#6331fd0be9)"><g clip-path="url(#68c9da9a03)"><g clip-path="url(#02c760e71f)"><path fill="#84caed" d="M 110.035156 83.332031 C 109.347656 85.652344 106.90625 86.976562 104.585938 86.285156 C 102.265625 85.597656 100.941406 83.15625 101.632812 80.835938 C 102.324219 78.515625 104.761719 77.195312 107.082031 77.882812 C 109.402344 78.574219 110.726562 81.011719 110.035156 83.332031 Z M 75.703125 68.546875 C 73.382812 67.859375 70.941406 69.179688 70.25 71.5 C 69.5625 73.820312 70.882812 76.261719 73.203125 76.949219 C 75.523438 77.640625 77.964844 76.316406 78.65625 73.996094 C 79.339844 71.6875 78.023438 69.238281 75.703125 68.546875 Z M 75.703125 68.546875 " fill-opacity="1" fill-rule="nonzero"/></g></g></g><g clip-path="url(#ef76ae5fe4)"><g clip-path="url(#906048c79d)"><g clip-path="url(#1a8dbf71f7)"><path fill="#2e2e2e" d="M 102.34375 83.144531 C 88.265625 89.257812 80.316406 80.328125 77.304688 75.695312 C 76.730469 74.8125 77.574219 73.695312 78.582031 73.996094 L 102.21875 81.019531 C 103.234375 81.3125 103.3125 82.722656 102.34375 83.144531 Z M 102.34375 83.144531 " fill-opacity="1" fill-rule="nonzero"/></g></g></g><g clip-path="url(#26cd65c32b)"><g clip-path="url(#6990739184)"><g clip-path="url(#90d8cebaad)"><path fill="#3a5dc4" d="M 171.769531 145.28125 C 184.980469 134.03125 205.378906 141.289062 208.511719 158.351562 L 218.199219 211.035156 L 227.882812 263.71875 C 231.015625 280.78125 214.515625 294.8125 198.175781 289 L 147.734375 271.054688 L 97.269531 253.097656 C 80.925781 247.285156 77.007812 225.957031 90.207031 214.734375 Z M 171.769531 145.28125 " fill-opacity="1" fill-rule="nonzero"/></g></g></g><g clip-path="url(#99d2bfc3e4)"><g clip-path="url(#a2d57cafbb)"><g clip-path="url(#22f01265f3)"><path fill="#ffffff" d="M 164.269531 219.660156 C 161.035156 228.753906 151.050781 233.5 141.957031 230.261719 C 132.863281 227.027344 128.121094 217.042969 131.355469 207.949219 C 134.589844 198.859375 144.574219 194.113281 153.667969 197.347656 C 162.761719 200.582031 167.503906 210.570312 164.269531 219.660156 Z M 189.664062 210.152344 C 180.570312 206.917969 170.582031 211.664062 167.347656 220.757812 C 164.113281 229.847656 168.859375 239.835938 177.953125 243.070312 C 187.042969 246.304688 197.03125 241.558594 200.265625 232.46875 C 203.5 223.375 198.753906 213.386719 189.664062 210.152344 Z M 189.664062 210.152344 " fill-opacity="1" fill-rule="nonzero"/></g></g></g><g clip-path="url(#362e05fc50)"><g clip-path="url(#2fd6912270)"><g clip-path="url(#646513e1be)"><path fill="#3a5dc4" d="M 207.027344 257.367188 C 205.023438 263.007812 198.820312 265.957031 193.179688 263.949219 C 187.542969 261.941406 184.59375 255.742188 186.601562 250.101562 C 188.605469 244.460938 194.808594 241.515625 200.449219 243.519531 C 206.089844 245.527344 209.035156 251.730469 207.027344 257.367188 Z M 124.230469 216.402344 C 118.589844 214.398438 112.386719 217.34375 110.382812 222.984375 C 108.375 228.625 111.324219 234.824219 116.960938 236.832031 C 122.601562 238.839844 128.804688 235.890625 130.8125 230.253906 C 132.816406 224.613281 129.871094 218.410156 124.230469 216.402344 Z M 124.230469 216.402344 " fill-opacity="1" fill-rule="nonzero"/></g></g></g><g clip-path="url(#aca1b3ff5e)"><g clip-path="url(#3e3c6989ff)"><g clip-path="url(#ad68745db7)"><path fill="#2e2e2e" d="M 157.824219 217.367188 C 155.859375 222.890625 149.765625 225.8125 144.210938 223.835938 C 138.65625 221.859375 135.765625 215.777344 137.742188 210.222656 C 139.71875 204.667969 145.804688 201.777344 151.355469 203.753906 C 156.910156 205.730469 159.789062 211.84375 157.824219 217.367188 Z M 187.371094 216.597656 C 181.84375 214.632812 175.730469 217.515625 173.753906 223.066406 C 171.78125 228.621094 174.671875 234.707031 180.222656 236.683594 C 185.777344 238.65625 191.863281 235.765625 193.839844 230.210938 C 195.8125 224.660156 192.921875 218.574219 187.371094 216.597656 Z M 158.542969 245.695312 L 171.472656 241.414062 C 173.195312 240.859375 174.121094 238.984375 173.566406 237.261719 C 173.011719 235.542969 171.136719 234.617188 169.417969 235.171875 L 158.90625 238.660156 L 152.785156 229.253906 C 151.800781 227.738281 149.753906 227.300781 148.238281 228.285156 C 146.71875 229.265625 146.28125 231.316406 147.265625 232.832031 L 154.734375 244.371094 C 155.125 244.996094 155.714844 245.433594 156.378906 245.667969 C 157.070312 245.914062 157.8125 245.921875 158.542969 245.695312 Z M 158.542969 245.695312 " fill-opacity="1" fill-rule="nonzero"/></g></g></g><g clip-path="url(#fa8d201360)"><g clip-path="url(#e7a28c57c4)"><g clip-path="url(#5224d04a50)"><path fill="#2e2e2e" d="M 198.628906 208.09375 L 146.523438 189.554688 C 144.824219 188.949219 143.933594 187.078125 144.539062 185.378906 C 145.140625 183.683594 147.015625 182.792969 148.710938 183.398438 L 200.820312 201.933594 C 202.515625 202.539062 203.40625 204.410156 202.804688 206.109375 C 202.199219 207.808594 200.355469 208.707031 198.628906 208.09375 Z M 198.628906 208.09375 " fill-opacity="1" fill-rule="nonzero"/></g></g></g><g clip-path="url(#28b81056c3)"><g clip-path="url(#c9b696c8dc)"><g clip-path="url(#f2b9a8d042)"><path fill="#ffb72c" d="M 276.988281 231.519531 C 289.238281 239.023438 293.097656 255.046875 285.605469 267.304688 C 278.117188 279.5625 262.125 283.414062 249.875 275.910156 C 237.625 268.40625 233.765625 252.382812 241.257812 240.125 C 248.746094 227.871094 264.738281 224.007812 276.988281 231.519531 Z M 276.988281 231.519531 " fill-opacity="1" fill-rule="nonzero"/></g></g></g><g clip-path="url(#00566b7603)"><g clip-path="url(#b9dac0de15)"><g clip-path="url(#417b0a1037)"><path fill="#ffffff" d="M 261.640625 249.324219 C 262.617188 253.367188 260.128906 257.429688 256.089844 258.402344 C 252.046875 259.375 247.988281 256.890625 247.015625 252.847656 C 246.039062 248.808594 248.527344 244.746094 252.566406 243.773438 C 256.609375 242.800781 260.667969 245.285156 261.640625 249.324219 Z M 268.570312 239.917969 C 264.527344 240.890625 262.042969 244.953125 263.015625 248.996094 C 263.988281 253.035156 268.050781 255.519531 272.09375 254.546875 C 276.132812 253.574219 278.617188 249.511719 277.644531 245.472656 C 276.671875 241.429688 272.609375 238.945312 268.570312 239.917969 Z M 268.570312 239.917969 " fill-opacity="1" fill-rule="nonzero"/></g></g></g><g clip-path="url(#9cc70d86ab)"><g clip-path="url(#cb8375cf7f)"><g clip-path="url(#48bd446d28)"><path fill="#2e2e2e" d="M 258.792969 250.011719 C 259.386719 252.476562 257.867188 254.949219 255.410156 255.539062 C 252.957031 256.132812 250.472656 254.613281 249.882812 252.15625 C 249.292969 249.703125 250.808594 247.21875 253.265625 246.628906 C 255.71875 246.039062 258.199219 247.546875 258.792969 250.011719 Z M 269.257812 242.777344 C 266.792969 243.371094 265.285156 245.851562 265.875 248.304688 C 266.464844 250.761719 268.949219 252.28125 271.402344 251.6875 C 273.859375 251.097656 275.375 248.613281 274.785156 246.160156 C 274.195312 243.707031 271.722656 242.183594 269.257812 242.777344 Z M 269.257812 242.777344 " fill-opacity="1" fill-rule="nonzero"/></g></g></g><g clip-path="url(#e41b27464d)"><g clip-path="url(#a1b6b76422)"><g clip-path="url(#3ced1f0736)"><path fill="#ff7f1d" d="M 285.953125 252.855469 C 286.558594 255.359375 285.015625 257.878906 282.511719 258.484375 C 280.003906 259.085938 277.484375 257.546875 276.882812 255.039062 C 276.277344 252.535156 277.820312 250.015625 280.324219 249.410156 C 282.832031 248.808594 285.351562 250.351562 285.953125 252.855469 Z M 246.4375 257.5625 C 243.933594 258.164062 242.390625 260.683594 242.996094 263.191406 C 243.597656 265.695312 246.117188 267.238281 248.625 266.632812 C 251.128906 266.03125 252.671875 263.511719 252.066406 261.003906 C 251.464844 258.511719 248.945312 256.957031 246.4375 257.5625 Z M 246.4375 257.5625 " fill-opacity="1" fill-rule="nonzero"/></g></g></g><g clip-path="url(#241b9c0178)"><g clip-path="url(#b22bc905ba)"><g clip-path="url(#03983ed42f)"><path fill="#2e2e2e" d="M 278.765625 256.789062 C 269.0625 269.929688 256.976562 265.949219 251.730469 263.289062 C 250.730469 262.78125 250.910156 261.304688 252 261.042969 L 277.519531 254.898438 C 278.609375 254.625 279.433594 255.878906 278.765625 256.789062 Z M 278.765625 256.789062 " fill-opacity="1" fill-rule="nonzero"/></g></g></g><g clip-path="url(#19853d9724)"><g clip-path="url(#ac697daa25)"><g clip-path="url(#319870e0f2)"><path fill="#ff9441" d="M 98.882812 150.609375 L 81.839844 214.945312 C 81.050781 217.929688 77.980469 219.699219 75 218.910156 L 10.660156 201.863281 C 7.679688 201.078125 5.90625 198.007812 6.695312 195.027344 L 23.742188 130.6875 C 24.53125 127.707031 27.597656 125.933594 30.582031 126.722656 L 94.917969 143.769531 C 97.902344 144.558594 99.671875 147.625 98.882812 150.609375 Z M 98.882812 150.609375 " fill-opacity="1" fill-rule="nonzero"/></g></g></g><g clip-path="url(#b4a9d451b2)"><g clip-path="url(#656801915b)"><g clip-path="url(#edc37a0732)"><path fill="#ffffff" d="M 45.40625 170.832031 C 47.761719 175.316406 46.027344 180.835938 41.566406 183.179688 C 37.105469 185.523438 31.566406 183.804688 29.222656 179.34375 C 26.875 174.882812 28.597656 169.34375 33.058594 166.996094 C 37.519531 164.652344 43.046875 166.351562 45.40625 170.832031 Z M 58.941406 152.808594 C 54.457031 155.164062 52.757812 160.691406 55.101562 165.152344 C 57.449219 169.613281 62.988281 171.335938 67.449219 168.988281 C 71.910156 166.644531 73.628906 161.105469 71.285156 156.644531 C 68.941406 152.183594 63.421875 150.449219 58.941406 152.808594 Z M 58.941406 152.808594 " fill-opacity="1" fill-rule="nonzero"/></g></g></g><g clip-path="url(#9389bcd3eb)"><g clip-path="url(#b7566b0628)"><g clip-path="url(#aa992c875c)"><path fill="#ff9441" d="M 83.300781 162.878906 C 84.765625 165.660156 83.703125 169.078125 80.921875 170.539062 C 78.140625 172 74.722656 170.9375 73.261719 168.15625 C 71.800781 165.378906 72.863281 161.960938 75.640625 160.496094 C 78.390625 159.027344 81.839844 160.097656 83.300781 162.878906 Z M 29.9375 185.082031 C 27.15625 186.546875 26.09375 189.964844 27.554688 192.746094 C 29.015625 195.523438 32.4375 196.585938 35.214844 195.125 C 37.996094 193.664062 39.058594 190.246094 37.597656 187.464844 C 36.136719 184.683594 32.714844 183.621094 29.9375 185.082031 Z M 29.9375 185.082031 " fill-opacity="1" fill-rule="nonzero"/></g></g></g><g clip-path="url(#bc4f37d37a)"><g clip-path="url(#90883f1459)"><g clip-path="url(#6e0fcb23d0)"><path fill="#2e2e2e" d="M 42.25 172.492188 C 43.679688 175.210938 42.628906 178.597656 39.910156 180.027344 C 37.191406 181.453125 33.804688 180.402344 32.375 177.683594 C 30.945312 174.964844 32 171.578125 34.71875 170.148438 C 37.433594 168.722656 40.8125 169.753906 42.25 172.492188 Z M 60.597656 155.960938 C 57.878906 157.390625 56.828125 160.777344 58.257812 163.496094 C 59.683594 166.210938 63.074219 167.265625 65.789062 165.835938 C 68.507812 164.40625 69.5625 161.019531 68.132812 158.300781 C 66.703125 155.585938 63.316406 154.53125 60.597656 155.960938 Z M 60.597656 155.960938 " fill-opacity="1" fill-rule="nonzero"/></g></g></g><g clip-path="url(#3bee9e9eec)"><g clip-path="url(#a28f4ecbc3)"><g clip-path="url(#9bf8799640)"><path fill="#2e2e2e" d="M 57.101562 180.386719 C 56.914062 180.484375 56.726562 180.585938 56.53125 180.660156 C 51.117188 183.164062 45.503906 180.792969 45.269531 180.703125 C 44.136719 180.210938 43.597656 178.882812 44.089844 177.75 C 44.578125 176.617188 45.910156 176.078125 47.042969 176.566406 C 47.136719 176.597656 51.125 178.234375 54.675781 176.578125 C 57.011719 175.484375 58.738281 173.171875 59.828125 169.660156 C 60.203125 168.457031 61.449219 167.800781 62.652344 168.175781 C 63.851562 168.550781 64.507812 169.792969 64.132812 170.996094 C 62.746094 175.511719 60.378906 178.664062 57.101562 180.386719 Z M 57.101562 180.386719 " fill-opacity="1" fill-rule="nonzero"/></g></g></g><g clip-path="url(#27fb4fb888)"><g clip-path="url(#acfdc6d493)"><g clip-path="url(#2f201a3d9a)"><path fill="#05a552" d="M 165.554688 316.089844 C 168.996094 317.863281 171.78125 320.921875 173.121094 324.875 C 175.882812 332.996094 171.535156 341.828125 163.414062 344.589844 C 157.304688 346.664062 150.808594 344.726562 146.792969 340.1875 C 146.210938 346.0625 142.300781 351.367188 136.332031 353.394531 C 128.210938 356.15625 119.378906 351.804688 116.617188 343.683594 C 115.308594 339.828125 115.613281 335.800781 117.140625 332.355469 C 111.164062 331.84375 105.761719 327.894531 103.714844 321.867188 C 100.953125 313.746094 105.300781 304.914062 113.425781 302.152344 C 114.671875 301.726562 115.929688 301.476562 117.171875 301.382812 C 116.742188 300.589844 116.355469 299.761719 116.058594 298.886719 C 113.300781 290.765625 117.648438 281.933594 125.769531 279.171875 C 133.890625 276.410156 142.722656 280.761719 145.484375 288.882812 C 145.820312 289.867188 146.050781 290.851562 146.175781 291.835938 C 147.453125 290.878906 148.894531 290.09375 150.5 289.546875 C 158.625 286.785156 167.453125 291.136719 170.214844 299.257812 C 172.308594 305.464844 170.253906 312.085938 165.554688 316.089844 Z M 165.554688 316.089844 " fill-opacity="1" fill-rule="nonzero"/></g></g></g><g clip-path="url(#443f84677e)"><g clip-path="url(#233f4d2311)"><g clip-path="url(#76b3a8d214)"><path fill="#f5f5ef" d="M 136.039062 309.988281 C 137.332031 313.800781 135.285156 317.929688 131.492188 319.21875 C 127.695312 320.507812 123.554688 318.46875 122.261719 314.671875 C 120.972656 310.875 123.011719 306.734375 126.808594 305.441406 C 130.605469 304.152344 134.746094 306.195312 136.039062 309.988281 Z M 141.878906 300.320312 C 138.070312 301.613281 136.042969 305.753906 137.335938 309.546875 C 138.625 313.34375 142.769531 315.382812 146.5625 314.09375 C 150.359375 312.804688 152.398438 308.660156 151.109375 304.863281 C 149.820312 301.070312 145.675781 299.027344 141.878906 300.320312 Z M 141.878906 300.320312 " fill-opacity="1" fill-rule="nonzero"/></g></g></g><g clip-path="url(#e43facb9e9)"><g clip-path="url(#af537c9263)"><g clip-path="url(#8510dddc89)"><path fill="#05a552" d="M 159.761719 311.246094 C 160.5625 313.605469 159.292969 316.179688 156.933594 316.980469 C 154.578125 317.78125 152.003906 316.511719 151.203125 314.15625 C 150.398438 311.796875 151.667969 309.222656 154.027344 308.421875 C 156.382812 307.621094 158.957031 308.886719 159.761719 311.246094 Z M 122.109375 319.289062 C 119.75 320.089844 118.480469 322.664062 119.28125 325.023438 C 120.085938 327.382812 122.660156 328.648438 125.015625 327.847656 C 127.375 327.046875 128.644531 324.472656 127.84375 322.113281 C 127.035156 319.738281 124.480469 318.484375 122.109375 319.289062 Z M 122.109375 319.289062 " fill-opacity="1" fill-rule="nonzero"/></g></g></g><g clip-path="url(#d6a1f73bd5)"><g clip-path="url(#8f72939db9)"><g clip-path="url(#fee5aec700)"><path fill="#2e2e2e" d="M 142.304688 325.140625 C 135.933594 327.308594 129.730469 325.566406 126.488281 324.28125 C 125.582031 323.925781 125.148438 322.90625 125.503906 322.003906 C 125.859375 321.097656 126.878906 320.664062 127.78125 321.019531 C 133.363281 323.234375 143.796875 325.175781 151.117188 313.085938 C 151.617188 312.253906 152.695312 311.992188 153.527344 312.492188 C 154.359375 312.992188 154.621094 314.074219 154.121094 314.90625 C 150.613281 320.730469 146.414062 323.746094 142.304688 325.140625 Z M 142.304688 325.140625 " fill-opacity="1" fill-rule="nonzero"/></g></g></g><g clip-path="url(#9c2da695c1)"><g clip-path="url(#0ab6011f98)"><g clip-path="url(#f1ca82c471)"><path fill="#2e2e2e" d="M 133.335938 310.90625 C 134.121094 313.21875 132.890625 315.746094 130.5625 316.535156 C 128.25 317.324219 125.722656 316.089844 124.933594 313.765625 C 124.140625 311.4375 125.378906 308.925781 127.707031 308.132812 C 130.035156 307.34375 132.550781 308.597656 133.335938 310.90625 Z M 142.792969 303.003906 C 140.480469 303.792969 139.230469 306.308594 140.019531 308.636719 C 140.8125 310.960938 143.324219 312.199219 145.648438 311.40625 C 147.960938 310.621094 149.214844 308.105469 148.421875 305.777344 C 147.632812 303.453125 145.105469 302.21875 142.792969 303.003906 Z M 142.792969 303.003906 " fill-opacity="1" fill-rule="nonzero"/></g></g></g><g clip-path="url(#b90e3781cd)"><g clip-path="url(#3b2f96bdc8)"><g clip-path="url(#f149910ca0)"><path fill="#84caed" d="M 41.878906 364.632812 C 21.9375 359.003906 10.21875 338.058594 15.847656 318.117188 L 26.425781 280.664062 C 32.054688 260.71875 53 249 72.941406 254.632812 C 92.886719 260.261719 104.605469 281.207031 98.972656 301.148438 L 88.398438 338.601562 C 82.765625 358.546875 61.824219 370.265625 41.878906 364.632812 Z M 41.878906 364.632812 " fill-opacity="1" fill-rule="nonzero"/></g></g></g><g clip-path="url(#5451fc302e)"><g clip-path="url(#0b52fb99c5)"><g clip-path="url(#3035995728)"><path fill="#ff7f1d" d="M 90.851562 301.269531 C 89.902344 304.632812 86.40625 306.589844 83.042969 305.640625 C 79.675781 304.691406 77.71875 301.195312 78.671875 297.828125 C 79.621094 294.464844 83.117188 292.507812 86.480469 293.457031 C 89.847656 294.410156 91.800781 297.902344 90.851562 301.269531 Z M 41.070312 280.636719 C 37.707031 279.683594 34.210938 281.640625 33.257812 285.007812 C 32.308594 288.371094 34.265625 291.867188 37.628906 292.816406 C 40.996094 293.765625 44.496094 291.785156 45.441406 288.445312 C 46.382812 285.105469 44.433594 281.585938 41.070312 280.636719 Z M 41.070312 280.636719 " fill-opacity="1" fill-rule="nonzero"/></g></g></g><g clip-path="url(#804e4e86ff)"><g clip-path="url(#1086f68b63)"><g clip-path="url(#8c258c8b23)"><path fill="#2e2e2e" d="M 53.75 284.851562 C 49.007812 283.511719 46.824219 278.386719 46.585938 277.816406 C 46.003906 276.40625 46.695312 274.796875 48.132812 274.222656 C 49.535156 273.664062 51.148438 274.332031 51.734375 275.742188 C 52.078125 276.582031 53.496094 279.078125 55.328125 279.542969 C 56.488281 279.84375 57.878906 279.335938 59.523438 278.023438 C 60.722656 277.0625 62.441406 277.257812 63.402344 278.457031 C 64.363281 279.65625 64.171875 281.378906 62.972656 282.335938 C 59.136719 285.390625 55.921875 285.414062 53.902344 284.867188 C 53.871094 284.886719 53.796875 284.867188 53.75 284.851562 Z M 74.429688 290.691406 C 76.457031 291.210938 79.664062 291.214844 83.496094 288.160156 C 84.695312 287.199219 84.863281 285.46875 83.929688 284.277344 C 82.96875 283.078125 81.246094 282.882812 80.046875 283.84375 C 78.433594 285.140625 77.011719 285.667969 75.851562 285.363281 C 73.996094 284.894531 72.605469 282.40625 72.257812 281.566406 C 71.675781 280.15625 70.09375 279.46875 68.65625 280.046875 C 67.246094 280.628906 66.554688 282.234375 67.109375 283.640625 C 67.339844 284.234375 69.535156 289.335938 74.273438 290.675781 C 74.328125 290.664062 74.378906 290.675781 74.429688 290.691406 Z M 60.894531 298.511719 C 62.925781 299.03125 66.132812 299.035156 69.964844 295.980469 C 71.164062 295.019531 71.332031 293.292969 70.398438 292.097656 C 69.4375 290.898438 67.714844 290.703125 66.515625 291.664062 C 64.902344 292.960938 63.480469 293.488281 62.320312 293.1875 C 60.488281 292.722656 59.074219 290.226562 58.726562 289.386719 C 58.144531 287.976562 56.558594 287.289062 55.125 287.867188 C 53.714844 288.449219 53.019531 290.054688 53.578125 291.460938 C 53.808594 292.054688 56.003906 297.15625 60.742188 298.496094 C 60.796875 298.484375 60.847656 298.496094 60.894531 298.511719 Z M 60.894531 298.511719 " fill-opacity="1" fill-rule="nonzero"/></g></g></g></svg>