<svg xmlns="http://www.w3.org/2000/svg" xmlns:xlink="http://www.w3.org/1999/xlink" width="500" zoomAndPan="magnify" viewBox="0 0 375 374.999991" height="500" preserveAspectRatio="xMidYMid meet" version="1.0"><path fill="#05a552" d="M 89.480469 0 C 40.140625 0 0 40.136719 0 89.476562 C 0 138.8125 40.140625 178.957031 89.480469 178.957031 C 138.820312 178.957031 178.957031 138.8125 178.957031 89.476562 C 178.957031 40.136719 138.8125 0 89.480469 0 Z M 89.480469 157.476562 C 51.984375 157.476562 21.476562 126.972656 21.476562 89.476562 C 21.476562 51.984375 51.984375 21.476562 89.480469 21.476562 C 126.976562 21.476562 157.476562 51.984375 157.476562 89.476562 C 157.476562 126.972656 126.972656 157.476562 89.480469 157.476562 Z M 89.480469 157.476562 " fill-opacity="1" fill-rule="nonzero"/><path fill="#05a552" d="M 123.289062 78.738281 L 100.214844 78.738281 L 100.214844 55.660156 C 100.214844 49.730469 95.40625 44.921875 89.476562 44.921875 C 83.542969 44.921875 78.738281 49.730469 78.738281 55.660156 L 78.738281 78.738281 L 55.660156 78.738281 C 49.730469 78.738281 44.921875 83.542969 44.921875 89.476562 C 44.921875 95.40625 49.730469 100.214844 55.660156 100.214844 L 78.738281 100.214844 L 78.738281 123.289062 C 78.738281 129.222656 83.542969 134.027344 89.476562 134.027344 C 95.40625 134.027344 100.214844 129.222656 100.214844 123.289062 L 100.214844 100.214844 L 123.289062 100.214844 C 129.222656 100.214844 134.027344 95.40625 134.027344 89.476562 C 134.027344 83.542969 129.222656 78.738281 123.289062 78.738281 Z M 123.289062 78.738281 " fill-opacity="1" fill-rule="nonzero"/><path fill="#f14924" d="M 285.613281 178.957031 C 236.277344 178.957031 196.132812 138.8125 196.132812 89.476562 C 196.132812 40.136719 236.277344 0 285.613281 0 C 334.953125 0 375.089844 40.136719 375.089844 89.476562 C 375.089844 138.8125 334.953125 178.957031 285.613281 178.957031 Z M 285.613281 21.476562 C 248.117188 21.476562 217.613281 51.984375 217.613281 89.476562 C 217.613281 126.972656 248.117188 157.476562 285.613281 157.476562 C 323.109375 157.476562 353.613281 126.972656 353.613281 89.476562 C 353.613281 51.984375 323.109375 21.476562 285.613281 21.476562 Z M 285.613281 21.476562 " fill-opacity="1" fill-rule="nonzero"/><path fill="#f14924" d="M 316.414062 100.214844 L 254.816406 100.214844 C 248.882812 100.214844 244.078125 95.40625 244.078125 89.476562 C 244.078125 83.542969 248.882812 78.738281 254.816406 78.738281 L 316.410156 78.738281 C 322.339844 78.738281 327.148438 83.542969 327.148438 89.476562 C 327.148438 95.40625 322.34375 100.214844 316.414062 100.214844 Z M 316.414062 100.214844 " fill-opacity="1" fill-rule="nonzero"/><path fill="#ffbe00" d="M 89.480469 196.136719 C 40.140625 196.136719 0 236.277344 0 285.613281 C 0 334.953125 40.140625 375.09375 89.480469 375.09375 C 138.820312 375.09375 178.957031 334.953125 178.957031 285.613281 C 178.957031 236.277344 138.8125 196.136719 89.480469 196.136719 Z M 89.480469 353.613281 C 51.984375 353.613281 21.476562 323.109375 21.476562 285.613281 C 21.476562 248.117188 51.984375 217.617188 89.480469 217.617188 C 126.976562 217.617188 157.480469 248.121094 157.480469 285.613281 C 157.476562 323.109375 126.972656 353.613281 89.480469 353.613281 Z M 89.480469 353.613281 " fill-opacity="1" fill-rule="nonzero"/><path fill="#ffbe00" d="M 122.84375 252.246094 C 118.652344 248.050781 111.847656 248.050781 107.660156 252.246094 L 89.480469 270.425781 L 71.300781 252.246094 C 67.109375 248.050781 60.304688 248.050781 56.117188 252.246094 C 51.921875 256.4375 51.921875 263.238281 56.117188 267.429688 L 74.296875 285.609375 L 56.117188 303.789062 C 51.921875 307.980469 51.921875 314.78125 56.117188 318.972656 C 58.214844 321.070312 60.960938 322.117188 63.710938 322.117188 C 66.460938 322.117188 69.210938 321.070312 71.304688 318.972656 L 89.484375 300.792969 L 107.664062 318.972656 C 109.757812 321.070312 112.507812 322.117188 115.257812 322.117188 C 118.007812 322.117188 120.757812 321.070312 122.851562 318.972656 C 127.050781 314.78125 127.050781 307.980469 122.851562 303.789062 L 104.671875 285.609375 L 122.851562 267.429688 C 127.039062 263.238281 127.039062 256.4375 122.84375 252.246094 Z M 122.84375 252.246094 " fill-opacity="1" fill-rule="nonzero"/><path fill="#2a4674" d="M 285.613281 375.089844 C 236.277344 375.089844 196.132812 334.949219 196.132812 285.609375 C 196.132812 236.269531 236.277344 196.132812 285.613281 196.132812 C 334.953125 196.132812 375.089844 236.269531 375.089844 285.609375 C 375.089844 334.949219 334.953125 375.089844 285.613281 375.089844 Z M 285.613281 217.617188 C 248.117188 217.617188 217.613281 248.121094 217.613281 285.613281 C 217.613281 323.109375 248.117188 353.617188 285.613281 353.617188 C 323.109375 353.617188 353.613281 323.109375 353.613281 285.613281 C 353.613281 248.117188 323.109375 217.617188 285.613281 217.617188 Z M 285.613281 217.617188 " fill-opacity="1" fill-rule="nonzero"/><path fill="#2a4674" d="M 319.425781 296.351562 L 251.804688 296.351562 C 245.871094 296.351562 241.066406 291.546875 241.066406 285.613281 C 241.066406 279.683594 245.871094 274.875 251.804688 274.875 L 319.429688 274.875 C 325.359375 274.875 330.167969 279.683594 330.167969 285.613281 C 330.167969 291.546875 325.355469 296.351562 319.425781 296.351562 Z M 319.425781 296.351562 " fill-opacity="1" fill-rule="nonzero"/><path fill="#2a4674" d="M 298.515625 254.464844 C 298.515625 255.308594 298.429688 256.148438 298.265625 256.980469 C 298.101562 257.808594 297.855469 258.617188 297.53125 259.398438 C 297.207031 260.183594 296.808594 260.925781 296.339844 261.628906 C 295.867188 262.332031 295.335938 262.984375 294.734375 263.585938 C 294.136719 264.183594 293.484375 264.71875 292.78125 265.1875 C 292.078125 265.660156 291.332031 266.054688 290.550781 266.378906 C 289.769531 266.703125 288.960938 266.949219 288.128906 267.113281 C 287.300781 267.28125 286.460938 267.363281 285.613281 267.363281 C 284.765625 267.363281 283.929688 267.28125 283.097656 267.113281 C 282.265625 266.949219 281.460938 266.703125 280.679688 266.378906 C 279.894531 266.054688 279.152344 265.660156 278.449219 265.1875 C 277.742188 264.71875 277.09375 264.183594 276.492188 263.585938 C 275.894531 262.984375 275.359375 262.332031 274.890625 261.628906 C 274.417969 260.925781 274.019531 260.183594 273.695312 259.398438 C 273.371094 258.617188 273.128906 257.808594 272.960938 256.980469 C 272.796875 256.148438 272.714844 255.308594 272.714844 254.464844 C 272.714844 253.617188 272.796875 252.777344 272.960938 251.945312 C 273.128906 251.117188 273.371094 250.308594 273.695312 249.527344 C 274.019531 248.742188 274.417969 248 274.890625 247.296875 C 275.359375 246.59375 275.894531 245.941406 276.492188 245.339844 C 277.09375 244.742188 277.742188 244.207031 278.449219 243.738281 C 279.152344 243.265625 279.894531 242.871094 280.679688 242.546875 C 281.460938 242.222656 282.265625 241.976562 283.097656 241.8125 C 283.929688 241.644531 284.765625 241.5625 285.613281 241.5625 C 286.460938 241.5625 287.300781 241.644531 288.128906 241.8125 C 288.960938 241.976562 289.769531 242.222656 290.550781 242.546875 C 291.332031 242.871094 292.078125 243.265625 292.78125 243.738281 C 293.484375 244.207031 294.136719 244.742188 294.734375 245.339844 C 295.335938 245.941406 295.867188 246.59375 296.339844 247.296875 C 296.808594 248 297.207031 248.742188 297.53125 249.527344 C 297.855469 250.308594 298.101562 251.117188 298.265625 251.945312 C 298.429688 252.777344 298.515625 253.617188 298.515625 254.464844 Z M 298.515625 254.464844 " fill-opacity="1" fill-rule="nonzero"/><path fill="#2a4674" d="M 298.515625 316.765625 C 298.515625 317.613281 298.429688 318.453125 298.265625 319.28125 C 298.101562 320.113281 297.855469 320.917969 297.53125 321.703125 C 297.207031 322.484375 296.808594 323.226562 296.339844 323.933594 C 295.867188 324.636719 295.335938 325.289062 294.734375 325.886719 C 294.136719 326.484375 293.484375 327.019531 292.78125 327.492188 C 292.078125 327.960938 291.332031 328.359375 290.550781 328.683594 C 289.769531 329.007812 288.960938 329.25 288.128906 329.417969 C 287.300781 329.582031 286.460938 329.664062 285.613281 329.664062 C 284.765625 329.664062 283.929688 329.582031 283.097656 329.417969 C 282.265625 329.25 281.460938 329.007812 280.679688 328.683594 C 279.894531 328.359375 279.152344 327.960938 278.449219 327.492188 C 277.742188 327.019531 277.09375 326.484375 276.492188 325.886719 C 275.894531 325.289062 275.359375 324.636719 274.890625 323.933594 C 274.417969 323.226562 274.019531 322.484375 273.695312 321.703125 C 273.371094 320.917969 273.128906 320.113281 272.960938 319.28125 C 272.796875 318.453125 272.714844 317.613281 272.714844 316.765625 C 272.714844 315.917969 272.796875 315.078125 272.960938 314.25 C 273.128906 313.417969 273.371094 312.613281 273.695312 311.828125 C 274.019531 311.046875 274.417969 310.304688 274.890625 309.597656 C 275.359375 308.894531 275.894531 308.242188 276.492188 307.644531 C 277.09375 307.046875 277.742188 306.511719 278.449219 306.039062 C 279.152344 305.570312 279.894531 305.171875 280.679688 304.847656 C 281.460938 304.523438 282.265625 304.277344 283.097656 304.113281 C 283.929688 303.949219 284.765625 303.867188 285.613281 303.867188 C 286.460938 303.867188 287.300781 303.949219 288.128906 304.113281 C 288.960938 304.277344 289.769531 304.523438 290.550781 304.847656 C 291.332031 305.171875 292.078125 305.570312 292.78125 306.039062 C 293.484375 306.511719 294.136719 307.046875 294.734375 307.644531 C 295.335938 308.242188 295.867188 308.894531 296.339844 309.597656 C 296.808594 310.304688 297.207031 311.046875 297.53125 311.828125 C 297.855469 312.613281 298.101562 313.417969 298.265625 314.25 C 298.429688 315.078125 298.515625 315.917969 298.515625 316.765625 Z M 298.515625 316.765625 " fill-opacity="1" fill-rule="nonzero"/></svg>